<svg width="79" height="95" viewBox="0 0 79 95" fill="none" xmlns="http://www.w3.org/2000/svg">
<path d="M17.5851 91.14C16.8384 91.14 16.1431 91.0187 15.4991 90.776C14.8644 90.524 14.3091 90.174 13.8331 89.726C13.3664 89.2687 13.0024 88.732 12.7411 88.116C12.4797 87.5 12.3491 86.828 12.3491 86.1C12.3491 85.372 12.4797 84.7 12.7411 84.084C13.0024 83.468 13.3711 82.936 13.8471 82.488C14.3231 82.0307 14.8784 81.6807 15.5131 81.438C16.1477 81.186 16.8431 81.06 17.5991 81.06C18.4017 81.06 19.1344 81.2 19.7971 81.48C20.4597 81.7507 21.0197 82.1567 21.4771 82.698L20.3011 83.804C19.9464 83.4213 19.5497 83.1367 19.1111 82.95C18.6724 82.754 18.1964 82.656 17.6831 82.656C17.1697 82.656 16.6984 82.74 16.2691 82.908C15.8491 83.076 15.4804 83.314 15.1631 83.622C14.8551 83.93 14.6124 84.294 14.4351 84.714C14.2671 85.134 14.1831 85.596 14.1831 86.1C14.1831 86.604 14.2671 87.066 14.4351 87.486C14.6124 87.906 14.8551 88.27 15.1631 88.578C15.4804 88.886 15.8491 89.124 16.2691 89.292C16.6984 89.46 17.1697 89.544 17.6831 89.544C18.1964 89.544 18.6724 89.4507 19.1111 89.264C19.5497 89.068 19.9464 88.774 20.3011 88.382L21.4771 89.502C21.0197 90.034 20.4597 90.44 19.7971 90.72C19.1344 91 18.3971 91.14 17.5851 91.14ZM26.0858 91.098C25.3018 91.098 24.6018 90.9347 23.9858 90.608C23.3791 90.272 22.9031 89.8147 22.5578 89.236C22.2125 88.6573 22.0398 87.9993 22.0398 87.262C22.0398 86.5153 22.2125 85.8573 22.5578 85.288C22.9031 84.7093 23.3791 84.2567 23.9858 83.93C24.6018 83.6033 25.3018 83.44 26.0858 83.44C26.8138 83.44 27.4531 83.5893 28.0038 83.888C28.5638 84.1773 28.9885 84.6067 29.2778 85.176L27.9338 85.96C27.7098 85.6053 27.4345 85.344 27.1078 85.176C26.7905 85.008 26.4451 84.924 26.0718 84.924C25.6425 84.924 25.2551 85.0173 24.9098 85.204C24.5645 85.3907 24.2938 85.6613 24.0978 86.016C23.9018 86.3613 23.8038 86.7767 23.8038 87.262C23.8038 87.7473 23.9018 88.1673 24.0978 88.522C24.2938 88.8673 24.5645 89.1333 24.9098 89.32C25.2551 89.5067 25.6425 89.6 26.0718 89.6C26.4451 89.6 26.7905 89.516 27.1078 89.348C27.4345 89.18 27.7098 88.9187 27.9338 88.564L29.2778 89.348C28.9885 89.908 28.5638 90.342 28.0038 90.65C27.4531 90.9487 26.8138 91.098 26.0858 91.098ZM38.3646 91V83.524H40.1146V91H38.3646ZM34.4586 85.988C35.4199 85.988 36.1479 86.2027 36.6426 86.632C37.1466 87.0613 37.3986 87.668 37.3986 88.452C37.3986 89.264 37.1186 89.8987 36.5586 90.356C36.0079 90.804 35.2239 91.0233 34.2066 91.014L30.8186 91V83.524H32.5686V85.974L34.4586 85.988ZM34.0526 89.726C34.5659 89.7353 34.9579 89.628 35.2286 89.404C35.4992 89.18 35.6346 88.8533 35.6346 88.424C35.6346 87.9947 35.4992 87.6867 35.2286 87.5C34.9672 87.304 34.5752 87.2013 34.0526 87.192L32.5686 87.178V89.712L34.0526 89.726ZM41.375 90.986L41.459 89.516C41.5243 89.5253 41.585 89.5347 41.641 89.544C41.697 89.5533 41.7483 89.558 41.795 89.558C42.0843 89.558 42.3083 89.4693 42.467 89.292C42.6257 89.1147 42.7423 88.8767 42.817 88.578C42.901 88.27 42.957 87.9293 42.985 87.556C43.0223 87.1733 43.0503 86.7907 43.069 86.408L43.195 83.524H49.243V91H47.493V84.532L47.899 85.008H44.343L44.721 84.518L44.623 86.492C44.595 87.1547 44.539 87.7707 44.455 88.34C44.3803 88.9 44.259 89.39 44.091 89.81C43.9323 90.23 43.7083 90.5567 43.419 90.79C43.139 91.0233 42.7797 91.14 42.341 91.14C42.201 91.14 42.047 91.126 41.879 91.098C41.7203 91.07 41.5523 91.0327 41.375 90.986ZM56.9618 91L54.2598 87.416L55.6878 86.534L59.0198 91H56.9618ZM51.5998 91V83.524H53.3498V91H51.5998ZM52.8318 88.004V86.548H55.3658V88.004H52.8318ZM55.8558 87.472L54.2178 87.276L56.9618 83.524H58.8378L55.8558 87.472ZM64.6534 91V89.488L64.5554 89.166V86.52C64.5554 86.0067 64.4014 85.61 64.0934 85.33C63.7854 85.0407 63.3187 84.896 62.6934 84.896C62.2734 84.896 61.8581 84.9613 61.4474 85.092C61.0461 85.2227 60.7054 85.4047 60.4254 85.638L59.7394 84.364C60.1407 84.056 60.6167 83.8273 61.1674 83.678C61.7274 83.5193 62.3061 83.44 62.9034 83.44C63.9861 83.44 64.8214 83.7013 65.4094 84.224C66.0067 84.7373 66.3054 85.5353 66.3054 86.618V91H64.6534ZM62.3014 91.098C61.7414 91.098 61.2514 91.0047 60.8314 90.818C60.4114 90.622 60.0847 90.356 59.8514 90.02C59.6274 89.6747 59.5154 89.2873 59.5154 88.858C59.5154 88.438 59.6134 88.06 59.8094 87.724C60.0147 87.388 60.3461 87.122 60.8034 86.926C61.2607 86.73 61.8674 86.632 62.6234 86.632H64.7934V87.794H62.7494C62.1521 87.794 61.7507 87.892 61.5454 88.088C61.3401 88.2747 61.2374 88.508 61.2374 88.788C61.2374 89.1053 61.3634 89.3573 61.6154 89.544C61.8674 89.7307 62.2174 89.824 62.6654 89.824C63.0947 89.824 63.4774 89.726 63.8134 89.53C64.1587 89.334 64.4061 89.0447 64.5554 88.662L64.8494 89.712C64.6814 90.1507 64.3781 90.4913 63.9394 90.734C63.5101 90.9767 62.9641 91.098 62.3014 91.098Z" fill="#3D5A08"/>
<path d="M11.7051 92.75H67.2994V93.45H11.7051V92.75Z" fill="#3D5A08"/>
<g clip-path="url(#clip0_504_2920)">
<path d="M48.0161 34.4143C49.8293 32.6076 52.6416 35.4081 50.8281 37.2159C47.3541 40.6748 43.8847 44.1318 40.4118 47.591C39.6476 48.3523 38.3645 48.3523 37.6002 47.591C34.1284 44.1281 30.6555 40.6665 27.1821 37.2038C25.3631 35.3985 28.1772 32.6003 29.9926 34.4066C32.9987 37.3997 36.0022 40.3944 39.0079 43.389C42.0068 40.398 45.0129 37.4077 48.0157 34.4146L48.0161 34.4143ZM42.7282 33.5951C42.7282 31.5443 41.0586 29.8842 39.0008 29.8842C36.9439 29.8842 35.2802 31.5447 35.2802 33.5951C35.2802 35.6448 36.9436 37.3024 39.0008 37.3024C41.0586 37.3024 42.7282 35.6452 42.7282 33.5951V33.5951ZM42.7282 22.0889C42.7282 20.0392 41.0586 18.378 39.0008 18.378C36.9439 18.378 35.2802 20.0396 35.2802 22.0889C35.2802 24.1398 36.9436 25.7973 39.0008 25.7973C41.0586 25.797 42.7282 24.1398 42.7282 22.0889V22.0889ZM42.7282 10.5855C42.7282 8.53469 41.0586 6.875 39.0008 6.875C36.9439 6.875 35.2802 8.53469 35.2802 10.5855C35.2802 12.6338 36.9436 14.2935 39.0008 14.2935C41.0586 14.2928 42.7282 12.6338 42.7282 10.5855V10.5855Z" fill="url(#paint0_linear_504_2920)"/>
</g>
<defs>
<linearGradient id="paint0_linear_504_2920" x1="37.3975" y1="49.6843" x2="35.9612" y2="7.41713" gradientUnits="userSpaceOnUse">
<stop stop-color="#DC5001"/>
<stop offset="1" stop-color="#DC5001" stop-opacity="0.3"/>
</linearGradient>
<clipPath id="clip0_504_2920">
<rect width="55" height="40" fill="white" transform="matrix(0 1 -1 0 59 0)"/>
</clipPath>
</defs>
</svg>
