<svg width="56" height="77" viewBox="0 0 56 77" fill="none" xmlns="http://www.w3.org/2000/svg">
<g clip-path="url(#clip0_508_2920)">
<path d="M40.6226 48.18C43.161 45.6506 47.0983 49.5713 44.5593 52.1023C39.6957 56.9447 34.8386 61.7846 29.9765 66.6274C28.9066 67.6932 27.1103 67.6932 26.0403 66.6274C21.1797 61.7794 16.3176 56.933 11.4549 52.0854C8.90827 49.5579 12.848 45.6404 15.3895 48.1692C19.5981 52.3596 23.803 56.5521 28.0111 60.7446C32.2095 56.5572 36.4181 52.3708 40.6219 48.1804L40.6226 48.18ZM33.2195 47.0332C33.2195 44.162 30.882 41.8379 28.001 41.8379C25.1215 41.8379 22.7922 44.1625 22.7922 47.0332C22.7922 49.9028 25.121 52.2234 28.001 52.2234C30.882 52.2234 33.2195 49.9033 33.2195 47.0332ZM33.2195 30.9245C33.2195 28.0549 30.882 25.7293 28.001 25.7293C25.1215 25.7293 22.7922 28.0554 22.7922 30.9245C22.7922 33.7957 25.121 36.1162 28.001 36.1162C30.882 36.1157 33.2195 33.7957 33.2195 30.9245ZM33.2195 14.8197C33.2195 11.9486 30.882 9.625 28.001 9.625C25.1215 9.625 22.7922 11.9486 22.7922 14.8197C22.7922 17.6874 25.121 20.0109 28.001 20.0109C30.882 20.0099 33.2195 17.6874 33.2195 14.8197Z" fill="url(#paint0_linear_508_2920)"/>
</g>
<defs>
<linearGradient id="paint0_linear_508_2920" x1="25.7564" y1="69.5581" x2="23.7457" y2="10.384" gradientUnits="userSpaceOnUse">
<stop stop-color="#DC5001"/>
<stop offset="1" stop-color="#DC5001" stop-opacity="0.3"/>
</linearGradient>
<clipPath id="clip0_508_2920">
<rect width="77" height="56" fill="white" transform="matrix(0 1 -1 0 56 0)"/>
</clipPath>
</defs>
</svg>
