<svg width="462" height="508" viewBox="0 0 462 508" fill="none" xmlns="http://www.w3.org/2000/svg">
<path d="M254.598 353.095L213.258 369.228L210.888 362.901L252.172 346.79L254.598 353.095ZM128.314 394.509L86.9258 410.644L89.3778 416.89L130.692 400.816L128.314 394.509ZM204.737 222.79L163.586 238.867L165.984 245.183L207.106 229.117L204.737 222.79ZM260.463 252.765L276.009 294.167L282.291 291.725L266.754 250.303L260.463 252.765ZM212.924 129.261L228.459 170.635L234.751 168.173L219.216 126.799L212.924 129.261ZM290.035 197.715L331.186 181.638L328.808 175.331L287.61 191.41L290.035 197.715ZM183.197 424.319L198.697 465.56L204.98 463.117L189.519 421.894L183.197 424.319ZM136.113 300.429L151.671 341.908L157.982 339.455L142.415 297.995L136.113 300.429ZM165.215 348.046L139.138 366.991C138.832 367.213 138.591 367.511 138.437 367.855C138.284 368.2 138.223 368.578 138.262 368.953L141.576 401.015C141.607 401.404 141.743 401.777 141.971 402.094C142.198 402.411 142.507 402.659 142.864 402.814L172.255 415.93C172.609 416.094 173.001 416.157 173.388 416.115C173.776 416.072 174.144 415.925 174.454 415.688L200.532 396.743C200.837 396.522 201.078 396.224 201.232 395.879C201.386 395.535 201.446 395.156 201.407 394.781L198.093 362.719C198.062 362.33 197.926 361.958 197.699 361.641C197.472 361.324 197.163 361.075 196.805 360.921L167.414 347.804C167.06 347.641 166.669 347.577 166.281 347.62C165.894 347.662 165.525 347.81 165.215 348.046ZM196.863 393.906L172.881 411.316L145.861 399.258L142.764 369.763L166.738 352.372L193.797 364.448L196.863 393.906ZM242.254 175.262L216.177 194.207C215.872 194.429 215.63 194.727 215.477 195.071C215.323 195.415 215.263 195.794 215.302 196.169L218.615 228.231C218.647 228.62 218.783 228.993 219.01 229.31C219.237 229.626 219.546 229.875 219.904 230.03L249.295 243.146C249.649 243.309 250.04 243.373 250.428 243.331C250.815 243.288 251.184 243.141 251.494 242.904L277.571 223.959C277.876 223.737 278.118 223.44 278.272 223.095C278.425 222.751 278.486 222.372 278.447 221.997L275.133 189.935C275.098 189.549 274.958 189.179 274.73 188.866C274.501 188.553 274.192 188.308 273.836 188.156L244.445 175.04C244.099 174.89 243.72 174.835 243.346 174.878C242.972 174.922 242.616 175.063 242.313 175.288L242.254 175.262ZM273.894 221.142L249.868 238.65L222.848 226.591L219.835 197.016L243.817 179.606L270.896 191.69L273.894 221.142Z" fill="white"/>
<path d="M254.598 353.095L213.258 369.228L210.888 362.901L252.172 346.79L254.598 353.095ZM128.314 394.509L86.9258 410.644L89.3778 416.89L130.692 400.816L128.314 394.509ZM204.737 222.79L163.586 238.867L165.984 245.183L207.106 229.117L204.737 222.79ZM260.463 252.765L276.009 294.167L282.291 291.725L266.754 250.303L260.463 252.765ZM212.924 129.261L228.459 170.635L234.751 168.173L219.216 126.799L212.924 129.261ZM290.035 197.715L331.186 181.638L328.808 175.331L287.61 191.41L290.035 197.715ZM183.197 424.319L198.697 465.56L204.98 463.117L189.519 421.894L183.197 424.319ZM136.113 300.429L151.671 341.908L157.982 339.455L142.415 297.995L136.113 300.429ZM165.215 348.046L139.138 366.991C138.832 367.213 138.591 367.511 138.437 367.855C138.284 368.2 138.223 368.578 138.262 368.953L141.576 401.015C141.607 401.404 141.743 401.777 141.971 402.094C142.198 402.411 142.507 402.659 142.864 402.814L172.255 415.93C172.609 416.094 173.001 416.157 173.388 416.115C173.776 416.072 174.144 415.925 174.454 415.688L200.532 396.743C200.837 396.522 201.078 396.224 201.232 395.879C201.386 395.535 201.446 395.156 201.407 394.781L198.093 362.719C198.062 362.33 197.926 361.958 197.699 361.641C197.472 361.324 197.163 361.075 196.805 360.921L167.414 347.804C167.06 347.641 166.669 347.577 166.281 347.62C165.894 347.662 165.525 347.81 165.215 348.046ZM196.863 393.906L172.881 411.316L145.861 399.258L142.764 369.763L166.738 352.372L193.797 364.448L196.863 393.906ZM242.254 175.262L216.177 194.207C215.872 194.429 215.63 194.727 215.477 195.071C215.323 195.415 215.263 195.794 215.302 196.169L218.615 228.231C218.647 228.62 218.783 228.993 219.01 229.31C219.237 229.626 219.546 229.875 219.904 230.03L249.295 243.146C249.649 243.309 250.04 243.373 250.428 243.331C250.815 243.288 251.184 243.141 251.494 242.904L277.571 223.959C277.876 223.737 278.118 223.44 278.272 223.095C278.425 222.751 278.486 222.372 278.447 221.997L275.133 189.935C275.098 189.549 274.958 189.179 274.73 188.866C274.501 188.553 274.192 188.308 273.836 188.156L244.445 175.04C244.099 174.89 243.72 174.835 243.346 174.878C242.972 174.922 242.616 175.063 242.313 175.288L242.254 175.262ZM273.894 221.142L249.868 238.65L222.848 226.591L219.835 197.016L243.817 179.606L270.896 191.69L273.894 221.142Z" fill="white"/>
<path d="M82.3501 270.969L40.9619 287.104L43.414 293.35L84.728 277.276L82.3501 270.969ZM158.773 99.2502L117.623 115.327L120.02 121.643L161.142 105.577L158.773 99.2502ZM166.961 5.72041L182.496 47.0946L188.787 44.6326L173.252 3.25844L166.961 5.72041ZM244.071 74.1748L285.222 58.0982L282.844 51.7908L241.646 67.8696L244.071 74.1748ZM90.1487 176.889L105.707 218.368L112.018 215.914L96.451 174.455L90.1487 176.889ZM119.251 224.506L93.1737 243.451C92.8686 243.673 92.6271 243.971 92.4734 244.315C92.3197 244.66 92.2593 245.038 92.2982 245.413L95.6119 277.475C95.6432 277.864 95.7797 278.237 96.0067 278.554C96.2337 278.87 96.5427 279.119 96.9005 279.274L126.291 292.39C126.645 292.553 127.037 292.617 127.424 292.575C127.812 292.532 128.18 292.385 128.491 292.148L154.568 273.203C154.873 272.981 155.114 272.684 155.268 272.339C155.422 271.995 155.482 271.616 155.443 271.241L152.13 239.179C152.098 238.79 151.962 238.418 151.735 238.101C151.508 237.784 151.199 237.535 150.841 237.381L121.45 224.264C121.096 224.101 120.705 224.037 120.317 224.08C119.93 224.122 119.561 224.27 119.251 224.506ZM150.9 270.366L126.917 287.776L99.8972 275.718L96.8006 246.223L120.774 228.832L147.834 240.908L150.9 270.366ZM196.291 51.7219L170.213 70.6672C169.908 70.8887 169.667 71.1866 169.513 71.531C169.359 71.8754 169.299 72.2541 169.338 72.6291L172.651 104.691C172.683 105.08 172.819 105.453 173.046 105.769C173.273 106.086 173.582 106.335 173.94 106.489L203.331 119.606C203.685 119.769 204.076 119.833 204.464 119.79C204.851 119.748 205.22 119.6 205.53 119.364L231.607 100.419C231.912 100.197 232.154 99.8994 232.308 99.555C232.461 99.2107 232.522 98.8319 232.483 98.4569L229.169 66.395C229.134 66.0087 228.994 65.6394 228.766 65.3262C228.538 65.013 228.229 64.7677 227.872 64.6162L198.481 51.4996C198.135 51.3502 197.756 51.2945 197.382 51.3381C197.008 51.3818 196.652 51.5231 196.349 51.7481L196.291 51.7219ZM227.93 97.6015L203.904 115.11L176.884 103.051L173.871 73.4757L197.853 56.0656L224.932 68.1504L227.93 97.6015Z" fill="white"/>
<path d="M82.3501 270.969L40.9619 287.104L43.414 293.35L84.728 277.276L82.3501 270.969ZM158.773 99.2502L117.623 115.327L120.02 121.643L161.142 105.577L158.773 99.2502ZM166.961 5.72041L182.496 47.0946L188.787 44.6326L173.252 3.25844L166.961 5.72041ZM244.071 74.1748L285.222 58.0982L282.844 51.7908L241.646 67.8696L244.071 74.1748ZM90.1487 176.889L105.707 218.368L112.018 215.914L96.451 174.455L90.1487 176.889ZM119.251 224.506L93.1737 243.451C92.8686 243.673 92.6271 243.971 92.4734 244.315C92.3197 244.66 92.2593 245.038 92.2982 245.413L95.6119 277.475C95.6432 277.864 95.7797 278.237 96.0067 278.554C96.2337 278.87 96.5427 279.119 96.9005 279.274L126.291 292.39C126.645 292.553 127.037 292.617 127.424 292.575C127.812 292.532 128.18 292.385 128.491 292.148L154.568 273.203C154.873 272.981 155.114 272.684 155.268 272.339C155.422 271.995 155.482 271.616 155.443 271.241L152.13 239.179C152.098 238.79 151.962 238.418 151.735 238.101C151.508 237.784 151.199 237.535 150.841 237.381L121.45 224.264C121.096 224.101 120.705 224.037 120.317 224.08C119.93 224.122 119.561 224.27 119.251 224.506ZM150.9 270.366L126.917 287.776L99.8972 275.718L96.8006 246.223L120.774 228.832L147.834 240.908L150.9 270.366ZM196.291 51.7219L170.213 70.6672C169.908 70.8887 169.667 71.1866 169.513 71.531C169.359 71.8754 169.299 72.2541 169.338 72.6291L172.651 104.691C172.683 105.08 172.819 105.453 173.046 105.769C173.273 106.086 173.582 106.335 173.94 106.489L203.331 119.606C203.685 119.769 204.076 119.833 204.464 119.79C204.851 119.748 205.22 119.6 205.53 119.364L231.607 100.419C231.912 100.197 232.154 99.8994 232.308 99.555C232.461 99.2107 232.522 98.8319 232.483 98.4569L229.169 66.395C229.134 66.0087 228.994 65.6394 228.766 65.3262C228.538 65.013 228.229 64.7677 227.872 64.6162L198.481 51.4996C198.135 51.3502 197.756 51.2945 197.382 51.3381C197.008 51.3818 196.652 51.5231 196.349 51.7481L196.291 51.7219ZM227.93 97.6015L203.904 115.11L176.884 103.051L173.871 73.4757L197.853 56.0656L224.932 68.1504L227.93 97.6015Z" fill="white"/>
<path d="M382.554 307.289L341.214 323.422L338.845 317.095L380.128 300.984L382.554 307.289ZM388.419 206.959L403.965 248.362L410.248 245.92L394.711 204.497L388.419 206.959ZM340.881 83.455L356.416 124.829L362.707 122.367L347.172 80.9931L340.881 83.455ZM417.992 151.909L459.142 135.833L456.764 129.525L415.566 145.604L417.992 151.909ZM311.153 378.513L326.654 419.754L332.936 417.312L317.475 376.088L311.153 378.513ZM293.171 302.241L267.094 321.186C266.789 321.408 266.547 321.705 266.393 322.05C266.24 322.394 266.179 322.773 266.218 323.148L269.532 355.21C269.563 355.599 269.7 355.971 269.927 356.288C270.154 356.605 270.463 356.854 270.821 357.008L300.212 370.125C300.565 370.288 300.957 370.352 301.344 370.309C301.732 370.267 302.1 370.119 302.411 369.883L328.488 350.938C328.793 350.716 329.035 350.418 329.188 350.074C329.342 349.729 329.402 349.351 329.363 348.976L326.05 316.914C326.018 316.525 325.882 316.152 325.655 315.835C325.428 315.519 325.119 315.27 324.761 315.115L295.37 301.999C295.016 301.835 294.625 301.772 294.237 301.814C293.85 301.857 293.481 302.004 293.171 302.241ZM324.82 348.101L300.837 365.511L273.817 353.452L270.721 323.957L294.694 306.567L321.754 318.643L324.82 348.101ZM370.211 129.457L344.133 148.402C343.828 148.623 343.587 148.921 343.433 149.266C343.279 149.61 343.219 149.989 343.258 150.364L346.572 182.426C346.603 182.814 346.739 183.187 346.966 183.504C347.193 183.821 347.502 184.07 347.86 184.224L377.251 197.341C377.605 197.504 377.996 197.568 378.384 197.525C378.771 197.483 379.14 197.335 379.45 197.099L405.527 178.153C405.833 177.932 406.074 177.634 406.228 177.29C406.381 176.945 406.442 176.567 406.403 176.192L403.089 144.13C403.054 143.743 402.914 143.374 402.686 143.061C402.458 142.748 402.149 142.502 401.792 142.351L372.401 129.234C372.055 129.085 371.676 129.029 371.302 129.073C370.928 129.116 370.572 129.258 370.269 129.483L370.211 129.457ZM401.851 175.336L377.824 192.844L350.804 180.786L347.791 151.21L371.773 133.8L398.852 145.885L401.851 175.336Z" fill="white"/>
<path d="M382.554 307.289L341.214 323.422L338.845 317.095L380.128 300.984L382.554 307.289ZM388.419 206.959L403.965 248.362L410.248 245.92L394.711 204.497L388.419 206.959ZM340.881 83.455L356.416 124.829L362.707 122.367L347.172 80.9931L340.881 83.455ZM417.992 151.909L459.142 135.833L456.764 129.525L415.566 145.604L417.992 151.909ZM311.153 378.513L326.654 419.754L332.936 417.312L317.475 376.088L311.153 378.513ZM293.171 302.241L267.094 321.186C266.789 321.408 266.547 321.705 266.393 322.05C266.24 322.394 266.179 322.773 266.218 323.148L269.532 355.21C269.563 355.599 269.7 355.971 269.927 356.288C270.154 356.605 270.463 356.854 270.821 357.008L300.212 370.125C300.565 370.288 300.957 370.352 301.344 370.309C301.732 370.267 302.1 370.119 302.411 369.883L328.488 350.938C328.793 350.716 329.035 350.418 329.188 350.074C329.342 349.729 329.402 349.351 329.363 348.976L326.05 316.914C326.018 316.525 325.882 316.152 325.655 315.835C325.428 315.519 325.119 315.27 324.761 315.115L295.37 301.999C295.016 301.835 294.625 301.772 294.237 301.814C293.85 301.857 293.481 302.004 293.171 302.241ZM324.82 348.101L300.837 365.511L273.817 353.452L270.721 323.957L294.694 306.567L321.754 318.643L324.82 348.101ZM370.211 129.457L344.133 148.402C343.828 148.623 343.587 148.921 343.433 149.266C343.279 149.61 343.219 149.989 343.258 150.364L346.572 182.426C346.603 182.814 346.739 183.187 346.966 183.504C347.193 183.821 347.502 184.07 347.86 184.224L377.251 197.341C377.605 197.504 377.996 197.568 378.384 197.525C378.771 197.483 379.14 197.335 379.45 197.099L405.527 178.153C405.833 177.932 406.074 177.634 406.228 177.29C406.381 176.945 406.442 176.567 406.403 176.192L403.089 144.13C403.054 143.743 402.914 143.374 402.686 143.061C402.458 142.748 402.149 142.502 401.792 142.351L372.401 129.234C372.055 129.085 371.676 129.029 371.302 129.073C370.928 129.116 370.572 129.258 370.269 129.483L370.211 129.457ZM401.851 175.336L377.824 192.844L350.804 180.786L347.791 151.21L371.773 133.8L398.852 145.885L401.851 175.336Z" fill="white"/>
</svg>
