<svg width="356" height="351" viewBox="0 0 356 351" fill="none" xmlns="http://www.w3.org/2000/svg">
<g opacity="0.15" clip-path="url(#clip0_72_181)">
<path d="M91.5978 406.095L50.2576 422.228L47.8885 415.901L89.1721 399.79L91.5978 406.095ZM-34.686 447.509L-76.0742 463.644L-73.6222 469.89L-32.3082 453.816L-34.686 447.509ZM41.7369 275.79L0.586365 291.867L2.98383 298.183L44.106 282.117L41.7369 275.79ZM97.4629 305.765L113.009 347.167L119.291 344.725L103.754 303.303L97.4629 305.765ZM49.9244 182.261L65.4593 223.635L71.7508 221.173L56.2159 179.799L49.9244 182.261ZM127.035 250.715L168.186 234.638L165.808 228.331L124.61 244.41L127.035 250.715ZM20.197 477.319L35.6973 518.56L41.9801 516.118L26.5189 474.894L20.197 477.319ZM-26.8875 353.429L-11.3288 394.908L-5.01781 392.455L-20.5852 350.995L-26.8875 353.429ZM2.21477 401.046L-23.8625 419.992C-24.1675 420.213 -24.4091 420.511 -24.5628 420.855C-24.7165 421.2 -24.7769 421.578 -24.738 421.953L-21.4243 454.015C-21.393 454.404 -21.2565 454.777 -21.0295 455.094C-20.8025 455.411 -20.4935 455.659 -20.1357 455.814L9.25528 468.93C9.60906 469.094 10.0007 469.157 10.3881 469.115C10.7755 469.072 11.1442 468.925 11.4544 468.688L37.5317 449.743C37.8368 449.522 38.0783 449.224 38.232 448.879C38.3857 448.535 38.4461 448.156 38.4072 447.781L35.0935 415.719C35.0622 415.331 34.9257 414.958 34.6987 414.641C34.4717 414.324 34.1627 414.075 33.8049 413.921L4.41393 400.804C4.06015 400.641 3.66854 400.577 3.28111 400.62C2.89368 400.662 2.52501 400.81 2.21477 401.046ZM33.8635 446.906L9.88115 464.316L-17.139 452.258L-20.2355 422.763L3.73803 405.372L30.7973 417.448L33.8635 446.906ZM79.2543 228.262L53.1771 247.207C52.872 247.429 52.6305 247.727 52.4768 248.071C52.3231 248.416 52.2627 248.794 52.3016 249.169L55.6153 281.231C55.6466 281.62 55.7831 281.993 56.0101 282.31C56.2371 282.626 56.5461 282.875 56.9039 283.03L86.2948 296.146C86.6486 296.309 87.0402 296.373 87.4277 296.331C87.8151 296.288 88.1837 296.141 88.494 295.904L114.571 276.959C114.876 276.737 115.118 276.44 115.272 276.095C115.425 275.751 115.486 275.372 115.447 274.997L112.133 242.935C112.098 242.549 111.958 242.18 111.73 241.866C111.501 241.553 111.192 241.308 110.836 241.156L81.4447 228.04C81.0991 227.89 80.7201 227.835 80.346 227.878C79.9718 227.922 79.6156 228.063 79.3131 228.288L79.2543 228.262ZM110.894 274.142L86.8682 291.65L59.8481 279.591L56.8345 250.016L80.8168 232.606L107.896 244.691L110.894 274.142Z" fill="white"/>
<path d="M91.5978 406.095L50.2576 422.228L47.8885 415.901L89.1721 399.79L91.5978 406.095ZM-34.686 447.509L-76.0742 463.644L-73.6222 469.89L-32.3082 453.816L-34.686 447.509ZM41.7369 275.79L0.586365 291.867L2.98383 298.183L44.106 282.117L41.7369 275.79ZM97.4629 305.765L113.009 347.167L119.291 344.725L103.754 303.303L97.4629 305.765ZM49.9244 182.261L65.4593 223.635L71.7508 221.173L56.2159 179.799L49.9244 182.261ZM127.035 250.715L168.186 234.638L165.808 228.331L124.61 244.41L127.035 250.715ZM20.197 477.319L35.6973 518.56L41.9801 516.118L26.5189 474.894L20.197 477.319ZM-26.8875 353.429L-11.3288 394.908L-5.01781 392.455L-20.5852 350.995L-26.8875 353.429ZM2.21477 401.046L-23.8625 419.992C-24.1675 420.213 -24.4091 420.511 -24.5628 420.855C-24.7165 421.2 -24.7769 421.578 -24.738 421.953L-21.4243 454.015C-21.393 454.404 -21.2565 454.777 -21.0295 455.094C-20.8025 455.411 -20.4935 455.659 -20.1357 455.814L9.25528 468.93C9.60906 469.094 10.0007 469.157 10.3881 469.115C10.7755 469.072 11.1442 468.925 11.4544 468.688L37.5317 449.743C37.8368 449.522 38.0783 449.224 38.232 448.879C38.3857 448.535 38.4461 448.156 38.4072 447.781L35.0935 415.719C35.0622 415.331 34.9257 414.958 34.6987 414.641C34.4717 414.324 34.1627 414.075 33.8049 413.921L4.41393 400.804C4.06015 400.641 3.66854 400.577 3.28111 400.62C2.89368 400.662 2.52501 400.81 2.21477 401.046ZM33.8635 446.906L9.88115 464.316L-17.139 452.258L-20.2355 422.763L3.73803 405.372L30.7973 417.448L33.8635 446.906ZM79.2543 228.262L53.1771 247.207C52.872 247.429 52.6305 247.727 52.4768 248.071C52.3231 248.416 52.2627 248.794 52.3016 249.169L55.6153 281.231C55.6466 281.62 55.7831 281.993 56.0101 282.31C56.2371 282.626 56.5461 282.875 56.9039 283.03L86.2948 296.146C86.6486 296.309 87.0402 296.373 87.4277 296.331C87.8151 296.288 88.1837 296.141 88.494 295.904L114.571 276.959C114.876 276.737 115.118 276.44 115.272 276.095C115.425 275.751 115.486 275.372 115.447 274.997L112.133 242.935C112.098 242.549 111.958 242.18 111.73 241.866C111.501 241.553 111.192 241.308 110.836 241.156L81.4447 228.04C81.0991 227.89 80.7201 227.835 80.346 227.878C79.9718 227.922 79.6156 228.063 79.3131 228.288L79.2543 228.262ZM110.894 274.142L86.8682 291.65L59.8481 279.591L56.8345 250.016L80.8168 232.606L107.896 244.691L110.894 274.142Z" fill="white"/>
<path d="M-80.6499 323.969L-122.038 340.104L-119.586 346.35L-78.272 330.276L-80.6499 323.969ZM-4.22691 152.25L-45.3775 168.327L-42.98 174.643L-1.85783 158.577L-4.22691 152.25ZM3.96059 58.7204L19.4955 100.095L25.787 97.6326L10.252 56.2584L3.96059 58.7204ZM81.0715 127.175L122.222 111.098L119.844 104.791L78.6457 120.87L81.0715 127.175ZM-72.8513 229.889L-57.2926 271.368L-50.9816 268.914L-66.549 227.455L-72.8513 229.889ZM-43.7491 277.506L-69.8263 296.451C-70.1314 296.673 -70.3729 296.971 -70.5266 297.315C-70.6803 297.66 -70.7407 298.038 -70.7018 298.413L-67.3881 330.475C-67.3568 330.864 -67.2203 331.237 -66.9933 331.554C-66.7663 331.87 -66.4573 332.119 -66.0995 332.274L-36.7085 345.39C-36.3548 345.553 -35.9632 345.617 -35.5757 345.575C-35.1883 345.532 -34.8197 345.385 -34.5094 345.148L-8.43213 326.203C-8.12706 325.981 -7.88553 325.684 -7.73184 325.339C-7.57816 324.995 -7.51773 324.616 -7.55661 324.241L-10.8704 292.179C-10.9016 291.79 -11.0381 291.418 -11.2651 291.101C-11.4921 290.784 -11.8011 290.535 -12.1589 290.381L-41.5499 277.264C-41.9037 277.101 -42.2953 277.037 -42.6827 277.08C-43.0702 277.122 -43.4388 277.27 -43.7491 277.506ZM-12.1004 323.366L-36.0827 340.776L-63.1028 328.718L-66.1994 299.223L-42.2258 281.832L-15.1665 293.908L-12.1004 323.366ZM33.2905 104.722L7.21328 123.667C6.90821 123.889 6.66667 124.187 6.51299 124.531C6.3593 124.875 6.29888 125.254 6.33776 125.629L9.65147 157.691C9.68274 158.08 9.81924 158.453 10.0463 158.769C10.2733 159.086 10.5823 159.335 10.9401 159.489L40.331 172.606C40.6848 172.769 41.0764 172.833 41.4639 172.79C41.8513 172.748 42.2199 172.6 42.5302 172.364L68.6074 153.419C68.9125 153.197 69.1541 152.899 69.3077 152.555C69.4614 152.211 69.5218 151.832 69.4829 151.457L66.1692 119.395C66.1337 119.009 65.9944 118.639 65.7659 118.326C65.5375 118.013 65.2285 117.768 64.8718 117.616L35.4809 104.5C35.1352 104.35 34.7563 104.295 34.3821 104.338C34.008 104.382 33.6517 104.523 33.3493 104.748L33.2905 104.722ZM64.9304 150.602L40.9043 168.11L13.8843 156.051L10.8707 126.476L34.853 109.066L61.9319 121.15L64.9304 150.602Z" fill="white"/>
<path d="M-80.6499 323.969L-122.038 340.104L-119.586 346.35L-78.272 330.276L-80.6499 323.969ZM-4.22691 152.25L-45.3775 168.327L-42.98 174.643L-1.85783 158.577L-4.22691 152.25ZM3.96059 58.7204L19.4955 100.095L25.787 97.6326L10.252 56.2584L3.96059 58.7204ZM81.0715 127.175L122.222 111.098L119.844 104.791L78.6457 120.87L81.0715 127.175ZM-72.8513 229.889L-57.2926 271.368L-50.9816 268.914L-66.549 227.455L-72.8513 229.889ZM-43.7491 277.506L-69.8263 296.451C-70.1314 296.673 -70.3729 296.971 -70.5266 297.315C-70.6803 297.66 -70.7407 298.038 -70.7018 298.413L-67.3881 330.475C-67.3568 330.864 -67.2203 331.237 -66.9933 331.554C-66.7663 331.87 -66.4573 332.119 -66.0995 332.274L-36.7085 345.39C-36.3548 345.553 -35.9632 345.617 -35.5757 345.575C-35.1883 345.532 -34.8197 345.385 -34.5094 345.148L-8.43213 326.203C-8.12706 325.981 -7.88553 325.684 -7.73184 325.339C-7.57816 324.995 -7.51773 324.616 -7.55661 324.241L-10.8704 292.179C-10.9016 291.79 -11.0381 291.418 -11.2651 291.101C-11.4921 290.784 -11.8011 290.535 -12.1589 290.381L-41.5499 277.264C-41.9037 277.101 -42.2953 277.037 -42.6827 277.08C-43.0702 277.122 -43.4388 277.27 -43.7491 277.506ZM-12.1004 323.366L-36.0827 340.776L-63.1028 328.718L-66.1994 299.223L-42.2258 281.832L-15.1665 293.908L-12.1004 323.366ZM33.2905 104.722L7.21328 123.667C6.90821 123.889 6.66667 124.187 6.51299 124.531C6.3593 124.875 6.29888 125.254 6.33776 125.629L9.65147 157.691C9.68274 158.08 9.81924 158.453 10.0463 158.769C10.2733 159.086 10.5823 159.335 10.9401 159.489L40.331 172.606C40.6848 172.769 41.0764 172.833 41.4639 172.79C41.8513 172.748 42.2199 172.6 42.5302 172.364L68.6074 153.419C68.9125 153.197 69.1541 152.899 69.3077 152.555C69.4614 152.211 69.5218 151.832 69.4829 151.457L66.1692 119.395C66.1337 119.009 65.9944 118.639 65.7659 118.326C65.5375 118.013 65.2285 117.768 64.8718 117.616L35.4809 104.5C35.1352 104.35 34.7563 104.295 34.3821 104.338C34.008 104.382 33.6517 104.523 33.3493 104.748L33.2905 104.722ZM64.9304 150.602L40.9043 168.11L13.8843 156.051L10.8707 126.476L34.853 109.066L61.9319 121.15L64.9304 150.602Z" fill="white"/>
<path d="M219.554 360.289L178.214 376.422L175.845 370.095L217.128 353.984L219.554 360.289ZM225.419 259.959L240.965 301.362L247.248 298.92L231.711 257.497L225.419 259.959ZM177.881 136.455L193.416 177.829L199.707 175.367L184.172 133.993L177.881 136.455ZM254.992 204.909L296.142 188.833L293.764 182.525L252.566 198.604L254.992 204.909ZM148.153 431.513L163.654 472.754L169.936 470.312L154.475 429.088L148.153 431.513ZM130.171 355.241L104.094 374.186C103.789 374.408 103.547 374.705 103.393 375.05C103.24 375.394 103.179 375.773 103.218 376.148L106.532 408.21C106.563 408.599 106.7 408.971 106.927 409.288C107.154 409.605 107.463 409.854 107.821 410.008L137.212 423.125C137.565 423.288 137.957 423.352 138.344 423.309C138.732 423.267 139.1 423.119 139.411 422.883L165.488 403.938C165.793 403.716 166.035 403.418 166.188 403.074C166.342 402.729 166.402 402.351 166.363 401.976L163.05 369.914C163.018 369.525 162.882 369.152 162.655 368.835C162.428 368.519 162.119 368.27 161.761 368.115L132.37 354.999C132.016 354.835 131.625 354.772 131.237 354.814C130.85 354.857 130.481 355.004 130.171 355.241ZM161.82 401.101L137.837 418.511L110.817 406.452L107.721 376.957L131.694 359.567L158.754 371.643L161.82 401.101ZM207.211 182.456L181.133 201.402C180.828 201.623 180.587 201.921 180.433 202.266C180.279 202.61 180.219 202.989 180.258 203.364L183.572 235.426C183.603 235.814 183.739 236.187 183.966 236.504C184.193 236.821 184.502 237.07 184.86 237.224L214.251 250.341C214.605 250.504 214.996 250.568 215.384 250.525C215.771 250.483 216.14 250.335 216.45 250.099L242.527 231.153C242.833 230.932 243.074 230.634 243.228 230.29C243.381 229.945 243.442 229.567 243.403 229.192L240.089 197.13C240.054 196.743 239.914 196.374 239.686 196.061C239.458 195.748 239.149 195.502 238.792 195.351L209.401 182.234C209.055 182.085 208.676 182.029 208.302 182.073C207.928 182.116 207.572 182.258 207.269 182.483L207.211 182.456ZM238.851 228.336L214.824 245.844L187.804 233.786L184.791 204.21L208.773 186.8L235.852 198.885L238.851 228.336Z" fill="white"/>
<path d="M219.554 360.289L178.214 376.422L175.845 370.095L217.128 353.984L219.554 360.289ZM225.419 259.959L240.965 301.362L247.248 298.92L231.711 257.497L225.419 259.959ZM177.881 136.455L193.416 177.829L199.707 175.367L184.172 133.993L177.881 136.455ZM254.992 204.909L296.142 188.833L293.764 182.525L252.566 198.604L254.992 204.909ZM148.153 431.513L163.654 472.754L169.936 470.312L154.475 429.088L148.153 431.513ZM130.171 355.241L104.094 374.186C103.789 374.408 103.547 374.705 103.393 375.05C103.24 375.394 103.179 375.773 103.218 376.148L106.532 408.21C106.563 408.599 106.7 408.971 106.927 409.288C107.154 409.605 107.463 409.854 107.821 410.008L137.212 423.125C137.565 423.288 137.957 423.352 138.344 423.309C138.732 423.267 139.1 423.119 139.411 422.883L165.488 403.938C165.793 403.716 166.035 403.418 166.188 403.074C166.342 402.729 166.402 402.351 166.363 401.976L163.05 369.914C163.018 369.525 162.882 369.152 162.655 368.835C162.428 368.519 162.119 368.27 161.761 368.115L132.37 354.999C132.016 354.835 131.625 354.772 131.237 354.814C130.85 354.857 130.481 355.004 130.171 355.241ZM161.82 401.101L137.837 418.511L110.817 406.452L107.721 376.957L131.694 359.567L158.754 371.643L161.82 401.101ZM207.211 182.456L181.133 201.402C180.828 201.623 180.587 201.921 180.433 202.266C180.279 202.61 180.219 202.989 180.258 203.364L183.572 235.426C183.603 235.814 183.739 236.187 183.966 236.504C184.193 236.821 184.502 237.07 184.86 237.224L214.251 250.341C214.605 250.504 214.996 250.568 215.384 250.525C215.771 250.483 216.14 250.335 216.45 250.099L242.527 231.153C242.833 230.932 243.074 230.634 243.228 230.29C243.381 229.945 243.442 229.567 243.403 229.192L240.089 197.13C240.054 196.743 239.914 196.374 239.686 196.061C239.458 195.748 239.149 195.502 238.792 195.351L209.401 182.234C209.055 182.085 208.676 182.029 208.302 182.073C207.928 182.116 207.572 182.258 207.269 182.483L207.211 182.456ZM238.851 228.336L214.824 245.844L187.804 233.786L184.791 204.21L208.773 186.8L235.852 198.885L238.851 228.336Z" fill="white"/>
</g>
<defs>
<clipPath id="clip0_72_181">
<rect width="412" height="490" fill="white" transform="translate(156.234 615.368) rotate(-155.95)"/>
</clipPath>
</defs>
</svg>
