<svg width="469" height="398" viewBox="0 0 469 398" fill="none" xmlns="http://www.w3.org/2000/svg">
<path d="M325.523 154.914L350.17 191.817L344.501 195.492L319.887 158.639L325.523 154.914ZM393.128 269.336L417.788 306.285L423.361 302.547L398.777 265.657L393.128 269.336ZM208.992 231.634L233.543 268.363L239.196 264.664L214.661 227.959L208.992 231.634ZM226.28 170.765L263.37 146.678L259.633 141.068L222.522 165.15L226.28 170.765ZM115.89 243.754L152.955 219.684L149.197 214.069L112.133 238.139L115.89 243.754ZM166.158 153.725L141.607 116.995L135.959 120.674L160.522 157.45L166.158 153.725ZM410.437 209.325L447.379 185.318L443.643 179.708L406.709 203.673L410.437 209.325ZM299.573 281.954L336.735 257.838L332.982 252.203L295.841 276.322L299.573 281.954ZM339.817 243.291L363.927 264.684C364.209 264.934 364.552 265.106 364.922 265.182C365.291 265.258 365.674 265.235 366.032 265.117L396.63 254.985C397.003 254.871 397.338 254.657 397.599 254.367C397.859 254.077 398.036 253.722 398.11 253.34L404.598 221.815C404.681 221.435 404.659 221.039 404.534 220.669C404.41 220.3 404.186 219.972 403.889 219.72L379.778 198.327C379.496 198.077 379.153 197.905 378.784 197.829C378.415 197.753 378.032 197.776 377.674 197.894L347.075 208.026C346.702 208.14 346.367 208.354 346.107 208.644C345.846 208.934 345.67 209.289 345.596 209.671L339.108 241.196C339.024 241.576 339.046 241.972 339.171 242.342C339.296 242.711 339.519 243.039 339.817 243.291ZM377.797 202.52L399.957 222.196L393.992 251.178L365.854 260.545L343.714 240.873L349.688 211.85L377.797 202.52ZM154.507 205.216L178.617 226.609C178.899 226.859 179.242 227.031 179.612 227.107C179.981 227.183 180.364 227.16 180.722 227.042L211.321 216.91C211.694 216.796 212.028 216.582 212.289 216.292C212.549 216.003 212.726 215.647 212.8 215.265L219.288 183.74C219.371 183.36 219.35 182.964 219.225 182.594C219.1 182.225 218.876 181.897 218.579 181.645L194.468 160.253C194.186 160.002 193.843 159.83 193.474 159.754C193.105 159.678 192.722 159.701 192.364 159.819L161.765 169.951C161.396 170.069 161.065 170.285 160.808 170.575C160.551 170.866 160.378 171.22 160.307 171.601L153.819 203.125C153.747 203.495 153.774 203.877 153.897 204.233C154.02 204.589 154.235 204.906 154.52 205.153L154.507 205.216ZM192.508 164.449L214.774 184.148L208.809 213.129L180.574 222.433L158.413 202.756L164.391 173.712L192.508 164.449Z" fill="#88A750"/>
<path d="M325.523 154.914L350.17 191.817L344.501 195.492L319.887 158.639L325.523 154.914ZM393.128 269.336L417.788 306.285L423.361 302.547L398.777 265.657L393.128 269.336ZM208.992 231.634L233.543 268.363L239.196 264.664L214.661 227.959L208.992 231.634ZM226.28 170.765L263.37 146.678L259.633 141.068L222.522 165.15L226.28 170.765ZM115.89 243.754L152.955 219.684L149.197 214.069L112.133 238.139L115.89 243.754ZM166.158 153.725L141.607 116.995L135.959 120.674L160.522 157.45L166.158 153.725ZM410.437 209.325L447.379 185.318L443.643 179.708L406.709 203.673L410.437 209.325ZM299.573 281.954L336.735 257.838L332.982 252.203L295.841 276.322L299.573 281.954ZM339.817 243.291L363.927 264.684C364.209 264.934 364.552 265.106 364.922 265.182C365.291 265.258 365.674 265.235 366.032 265.117L396.63 254.985C397.003 254.871 397.338 254.657 397.599 254.367C397.859 254.077 398.036 253.722 398.11 253.34L404.598 221.815C404.681 221.435 404.659 221.039 404.534 220.669C404.41 220.3 404.186 219.972 403.889 219.72L379.778 198.327C379.496 198.077 379.153 197.905 378.784 197.829C378.415 197.753 378.032 197.776 377.674 197.894L347.075 208.026C346.702 208.14 346.367 208.354 346.107 208.644C345.846 208.934 345.67 209.289 345.596 209.671L339.108 241.196C339.024 241.576 339.046 241.972 339.171 242.342C339.296 242.711 339.519 243.039 339.817 243.291ZM377.797 202.52L399.957 222.196L393.992 251.178L365.854 260.545L343.714 240.873L349.688 211.85L377.797 202.52ZM154.507 205.216L178.617 226.609C178.899 226.859 179.242 227.031 179.612 227.107C179.981 227.183 180.364 227.16 180.722 227.042L211.321 216.91C211.694 216.796 212.028 216.582 212.289 216.292C212.549 216.003 212.726 215.647 212.8 215.265L219.288 183.74C219.371 183.36 219.35 182.964 219.225 182.594C219.1 182.225 218.876 181.897 218.579 181.645L194.468 160.253C194.186 160.002 193.843 159.83 193.474 159.754C193.105 159.678 192.722 159.701 192.364 159.819L161.765 169.951C161.396 170.069 161.065 170.285 160.808 170.575C160.551 170.866 160.378 171.22 160.307 171.601L153.819 203.125C153.747 203.495 153.774 203.877 153.897 204.233C154.02 204.589 154.235 204.906 154.52 205.153L154.507 205.216ZM192.508 164.449L214.774 184.148L208.809 213.129L180.574 222.433L158.413 202.756L164.391 173.712L192.508 164.449Z" fill="#88A750"/>
<path d="M282.365 340.794L307.025 377.744L312.597 374.005L288.014 337.116L282.365 340.794ZM98.2289 303.092L122.78 339.822L128.432 336.122L103.898 299.418L98.2289 303.092ZM5.12699 315.213L42.1917 291.143L38.4342 285.528L1.3695 309.598L5.12699 315.213ZM55.3946 225.183L30.8437 188.453L25.1954 192.132L49.7587 228.908L55.3946 225.183ZM188.81 353.413L225.972 329.297L222.219 323.661L185.078 347.781L188.81 353.413ZM229.054 314.75L253.164 336.142C253.446 336.393 253.789 336.564 254.158 336.64C254.528 336.716 254.911 336.694 255.268 336.575L285.867 326.443C286.24 326.329 286.575 326.116 286.836 325.826C287.096 325.536 287.273 325.181 287.347 324.798L293.835 293.274C293.918 292.893 293.896 292.497 293.771 292.128C293.646 291.759 293.423 291.431 293.126 291.178L269.015 269.786C268.733 269.536 268.39 269.364 268.021 269.288C267.652 269.212 267.269 269.234 266.911 269.353L236.312 279.485C235.939 279.599 235.604 279.813 235.344 280.102C235.083 280.392 234.906 280.748 234.833 281.13L228.344 312.654C228.261 313.035 228.283 313.431 228.408 313.8C228.533 314.17 228.756 314.498 229.054 314.75ZM267.034 273.979L289.194 293.655L283.229 322.636L255.091 332.004L232.951 312.332L238.925 283.309L267.034 273.979ZM43.7437 276.675L67.8543 298.067C68.1362 298.318 68.4791 298.49 68.8485 298.566C69.2178 298.642 69.6007 298.619 69.9585 298.501L100.557 288.369C100.93 288.254 101.265 288.041 101.526 287.751C101.786 287.461 101.963 287.106 102.037 286.723L108.525 255.199C108.608 254.819 108.586 254.422 108.461 254.053C108.337 253.684 108.113 253.356 107.816 253.104L83.7051 231.711C83.4232 231.461 83.0804 231.289 82.711 231.213C82.3416 231.137 81.9588 231.16 81.6009 231.278L51.002 241.41C50.6324 241.528 50.3017 241.743 50.045 242.034C49.7882 242.324 49.6151 242.679 49.5439 243.06L43.0556 274.584C42.984 274.954 43.0111 275.336 43.1342 275.692C43.2573 276.048 43.4719 276.365 43.7567 276.612L43.7437 276.675ZM81.7447 235.908L104.011 255.606L98.0456 284.588L69.8105 293.892L47.6498 274.215L53.6277 245.171L81.7447 235.908Z" fill="#88A750"/>
<path d="M282.365 340.794L307.025 377.744L312.597 374.005L288.014 337.116L282.365 340.794ZM98.2289 303.092L122.78 339.822L128.432 336.122L103.898 299.418L98.2289 303.092ZM5.12699 315.213L42.1917 291.143L38.4342 285.528L1.3695 309.598L5.12699 315.213ZM55.3946 225.183L30.8437 188.453L25.1954 192.132L49.7587 228.908L55.3946 225.183ZM188.81 353.413L225.972 329.297L222.219 323.661L185.078 347.781L188.81 353.413ZM229.054 314.75L253.164 336.142C253.446 336.393 253.789 336.564 254.158 336.64C254.528 336.716 254.911 336.694 255.268 336.575L285.867 326.443C286.24 326.329 286.575 326.116 286.836 325.826C287.096 325.536 287.273 325.181 287.347 324.798L293.835 293.274C293.918 292.893 293.896 292.497 293.771 292.128C293.646 291.759 293.423 291.431 293.126 291.178L269.015 269.786C268.733 269.536 268.39 269.364 268.021 269.288C267.652 269.212 267.269 269.234 266.911 269.353L236.312 279.485C235.939 279.599 235.604 279.813 235.344 280.102C235.083 280.392 234.906 280.748 234.833 281.13L228.344 312.654C228.261 313.035 228.283 313.431 228.408 313.8C228.533 314.17 228.756 314.498 229.054 314.75ZM267.034 273.979L289.194 293.655L283.229 322.636L255.091 332.004L232.951 312.332L238.925 283.309L267.034 273.979ZM43.7437 276.675L67.8543 298.067C68.1362 298.318 68.4791 298.49 68.8485 298.566C69.2178 298.642 69.6007 298.619 69.9585 298.501L100.557 288.369C100.93 288.254 101.265 288.041 101.526 287.751C101.786 287.461 101.963 287.106 102.037 286.723L108.525 255.199C108.608 254.819 108.586 254.422 108.461 254.053C108.337 253.684 108.113 253.356 107.816 253.104L83.7051 231.711C83.4232 231.461 83.0804 231.289 82.711 231.213C82.3416 231.137 81.9588 231.16 81.6009 231.278L51.002 241.41C50.6324 241.528 50.3017 241.743 50.045 242.034C49.7882 242.324 49.6151 242.679 49.5439 243.06L43.0556 274.584C42.984 274.954 43.0111 275.336 43.1342 275.692C43.2573 276.048 43.4719 276.365 43.7567 276.612L43.7437 276.675ZM81.7447 235.908L104.011 255.606L98.0456 284.588L69.8105 293.892L47.6498 274.215L53.6277 245.171L81.7447 235.908Z" fill="#88A750"/>
<path d="M253.269 39.8042L277.916 76.7072L272.247 80.3816L247.633 43.5294L253.269 39.8042ZM154.026 55.655L191.116 31.5683L187.379 25.9579L150.268 50.0403L154.026 55.655ZM43.6362 128.644L80.7009 104.574L76.9434 98.9592L39.8787 123.029L43.6362 128.644ZM93.9038 38.6147L69.3529 1.88476L63.7046 5.56355L88.2679 42.3398L93.9038 38.6147ZM338.183 94.2155L375.125 70.2079L371.389 64.5975L334.455 88.5631L338.183 94.2155ZM267.563 128.181L291.673 149.574C291.955 149.824 292.298 149.996 292.668 150.072C293.037 150.148 293.42 150.125 293.778 150.007L324.377 139.875C324.75 139.761 325.084 139.547 325.345 139.257C325.605 138.967 325.782 138.612 325.856 138.23L332.344 106.705C332.427 106.325 332.406 105.929 332.281 105.559C332.156 105.19 331.932 104.862 331.635 104.61L307.524 83.2174C307.242 82.9671 306.899 82.7953 306.53 82.7193C306.161 82.6432 305.778 82.6657 305.42 82.7843L274.821 92.9163C274.448 93.0304 274.113 93.2439 273.853 93.5337C273.592 93.8236 273.416 94.1789 273.342 94.5615L266.854 126.086C266.77 126.466 266.792 126.862 266.917 127.232C267.042 127.601 267.265 127.929 267.563 128.181ZM305.543 87.4099L327.703 107.086L321.739 136.068L293.6 145.435L271.46 125.763L277.434 96.7399L305.543 87.4099ZM82.2529 90.1065L106.364 111.499C106.645 111.749 106.988 111.921 107.358 111.997C107.727 112.073 108.11 112.05 108.468 111.932L139.067 101.8C139.44 101.686 139.774 101.472 140.035 101.182C140.296 100.893 140.472 100.537 140.546 100.155L147.034 68.6305C147.118 68.2499 147.096 67.8537 146.971 67.4845C146.846 67.1153 146.622 66.787 146.325 66.5348L122.214 45.1426C121.932 44.8923 121.59 44.7204 121.22 44.6444C120.851 44.5684 120.468 44.5908 120.11 44.7095L89.5112 54.8414C89.1416 54.9591 88.8109 55.1747 88.5542 55.4651C88.2974 55.7555 88.1243 56.1101 88.0531 56.491L81.5648 88.0151C81.4932 88.3849 81.5203 88.7669 81.6434 89.1229C81.7665 89.479 81.9812 89.7965 82.2659 90.0434L82.2529 90.1065ZM120.254 49.3394L142.52 69.0376L136.555 98.0189L108.32 107.323L86.159 87.6464L92.1369 58.602L120.254 49.3394Z" fill="#88A750"/>
<path d="M253.269 39.8042L277.916 76.7072L272.247 80.3816L247.633 43.5294L253.269 39.8042ZM154.026 55.655L191.116 31.5683L187.379 25.9579L150.268 50.0403L154.026 55.655ZM43.6362 128.644L80.7009 104.574L76.9434 98.9592L39.8787 123.029L43.6362 128.644ZM93.9038 38.6147L69.3529 1.88476L63.7046 5.56355L88.2679 42.3398L93.9038 38.6147ZM338.183 94.2155L375.125 70.2079L371.389 64.5975L334.455 88.5631L338.183 94.2155ZM267.563 128.181L291.673 149.574C291.955 149.824 292.298 149.996 292.668 150.072C293.037 150.148 293.42 150.125 293.778 150.007L324.377 139.875C324.75 139.761 325.084 139.547 325.345 139.257C325.605 138.967 325.782 138.612 325.856 138.23L332.344 106.705C332.427 106.325 332.406 105.929 332.281 105.559C332.156 105.19 331.932 104.862 331.635 104.61L307.524 83.2174C307.242 82.9671 306.899 82.7953 306.53 82.7193C306.161 82.6432 305.778 82.6657 305.42 82.7843L274.821 92.9163C274.448 93.0304 274.113 93.2439 273.853 93.5337C273.592 93.8236 273.416 94.1789 273.342 94.5615L266.854 126.086C266.77 126.466 266.792 126.862 266.917 127.232C267.042 127.601 267.265 127.929 267.563 128.181ZM305.543 87.4099L327.703 107.086L321.739 136.068L293.6 145.435L271.46 125.763L277.434 96.7399L305.543 87.4099ZM82.2529 90.1065L106.364 111.499C106.645 111.749 106.988 111.921 107.358 111.997C107.727 112.073 108.11 112.05 108.468 111.932L139.067 101.8C139.44 101.686 139.774 101.472 140.035 101.182C140.296 100.893 140.472 100.537 140.546 100.155L147.034 68.6305C147.118 68.2499 147.096 67.8537 146.971 67.4845C146.846 67.1153 146.622 66.787 146.325 66.5348L122.214 45.1426C121.932 44.8923 121.59 44.7204 121.22 44.6444C120.851 44.5684 120.468 44.5908 120.11 44.7095L89.5112 54.8414C89.1416 54.9591 88.8109 55.1747 88.5542 55.4651C88.2974 55.7555 88.1243 56.1101 88.0531 56.491L81.5648 88.0151C81.4932 88.3849 81.5203 88.7669 81.6434 89.1229C81.7665 89.479 81.9812 89.7965 82.2659 90.0434L82.2529 90.1065ZM120.254 49.3394L142.52 69.0376L136.555 98.0189L108.32 107.323L86.159 87.6464L92.1369 58.602L120.254 49.3394Z" fill="#88A750"/>
</svg>
