<svg width="437" height="285" viewBox="0 0 437 285" fill="none" xmlns="http://www.w3.org/2000/svg">
<g clip-path="url(#clip0_307_1410)">
<path d="M279.524 226.227L304.171 263.13L298.502 266.804L273.888 229.952L279.524 226.227ZM347.13 340.648L371.789 377.598L377.362 373.859L352.778 336.97L347.13 340.648ZM162.993 302.946L187.544 339.676L193.197 335.976L168.663 299.272L162.993 302.946ZM180.281 242.078L217.371 217.991L213.635 212.381L176.523 236.463L180.281 242.078ZM69.8914 315.067L106.956 290.997L103.199 285.382L66.1339 309.452L69.8914 315.067ZM120.159 225.037L95.6081 188.308L89.9597 191.986L114.523 228.763L120.159 225.037ZM364.438 280.638L401.38 256.631L397.644 251.02L360.71 274.986L364.438 280.638ZM253.574 353.267L290.736 329.151L286.983 323.515L249.842 347.635L253.574 353.267ZM293.818 314.604L317.929 335.996C318.21 336.247 318.553 336.418 318.923 336.495C319.292 336.571 319.675 336.548 320.033 336.429L350.632 326.298C351.005 326.183 351.339 325.97 351.6 325.68C351.861 325.39 352.037 325.035 352.111 324.652L358.599 293.128C358.683 292.747 358.661 292.351 358.536 291.982C358.411 291.613 358.188 291.285 357.89 291.032L333.779 269.64C333.497 269.39 333.155 269.218 332.785 269.142C332.416 269.066 332.033 269.088 331.675 269.207L301.076 279.339C300.703 279.453 300.369 279.667 300.108 279.956C299.847 280.246 299.671 280.602 299.597 280.984L293.109 312.508C293.025 312.889 293.047 313.285 293.172 313.654C293.297 314.024 293.52 314.352 293.818 314.604ZM331.798 273.833L353.959 293.509L347.994 322.491L319.855 331.858L297.715 312.186L303.689 283.163L331.798 273.833ZM108.508 276.529L132.619 297.922C132.901 298.172 133.243 298.344 133.613 298.42C133.982 298.496 134.365 298.473 134.723 298.355L165.322 288.223C165.695 288.109 166.029 287.895 166.29 287.605C166.551 287.315 166.727 286.96 166.801 286.577L173.289 255.053C173.373 254.673 173.351 254.276 173.226 253.907C173.101 253.538 172.878 253.21 172.58 252.958L148.469 231.565C148.188 231.315 147.845 231.143 147.475 231.067C147.106 230.991 146.723 231.014 146.365 231.132L115.766 241.264C115.397 241.382 115.066 241.597 114.809 241.888C114.553 242.178 114.379 242.533 114.308 242.914L107.82 274.438C107.748 274.808 107.775 275.19 107.899 275.546C108.022 275.902 108.236 276.219 108.521 276.466L108.508 276.529ZM146.509 235.762L168.775 255.46L162.81 284.442L134.575 293.746L112.414 274.069L118.392 245.025L146.509 235.762Z" fill="white" fill-opacity="0.15"/>
<path d="M279.524 226.227L304.171 263.13L298.502 266.804L273.888 229.952L279.524 226.227ZM347.13 340.648L371.789 377.598L377.362 373.859L352.778 336.97L347.13 340.648ZM162.993 302.946L187.544 339.676L193.197 335.976L168.663 299.272L162.993 302.946ZM180.281 242.078L217.371 217.991L213.635 212.381L176.523 236.463L180.281 242.078ZM69.8914 315.067L106.956 290.997L103.199 285.382L66.1339 309.452L69.8914 315.067ZM120.159 225.037L95.6081 188.308L89.9597 191.986L114.523 228.763L120.159 225.037ZM364.438 280.638L401.38 256.631L397.644 251.02L360.71 274.986L364.438 280.638ZM253.574 353.267L290.736 329.151L286.983 323.515L249.842 347.635L253.574 353.267ZM293.818 314.604L317.929 335.996C318.21 336.247 318.553 336.418 318.923 336.495C319.292 336.571 319.675 336.548 320.033 336.429L350.632 326.298C351.005 326.183 351.339 325.97 351.6 325.68C351.861 325.39 352.037 325.035 352.111 324.652L358.599 293.128C358.683 292.747 358.661 292.351 358.536 291.982C358.411 291.613 358.188 291.285 357.89 291.032L333.779 269.64C333.497 269.39 333.155 269.218 332.785 269.142C332.416 269.066 332.033 269.088 331.675 269.207L301.076 279.339C300.703 279.453 300.369 279.667 300.108 279.956C299.847 280.246 299.671 280.602 299.597 280.984L293.109 312.508C293.025 312.889 293.047 313.285 293.172 313.654C293.297 314.024 293.52 314.352 293.818 314.604ZM331.798 273.833L353.959 293.509L347.994 322.491L319.855 331.858L297.715 312.186L303.689 283.163L331.798 273.833ZM108.508 276.529L132.619 297.922C132.901 298.172 133.243 298.344 133.613 298.42C133.982 298.496 134.365 298.473 134.723 298.355L165.322 288.223C165.695 288.109 166.029 287.895 166.29 287.605C166.551 287.315 166.727 286.96 166.801 286.577L173.289 255.053C173.373 254.673 173.351 254.276 173.226 253.907C173.101 253.538 172.878 253.21 172.58 252.958L148.469 231.565C148.188 231.315 147.845 231.143 147.475 231.067C147.106 230.991 146.723 231.014 146.365 231.132L115.766 241.264C115.397 241.382 115.066 241.597 114.809 241.888C114.553 242.178 114.379 242.533 114.308 242.914L107.82 274.438C107.748 274.808 107.775 275.19 107.899 275.546C108.022 275.902 108.236 276.219 108.521 276.466L108.508 276.529ZM146.509 235.762L168.775 255.46L162.81 284.442L134.575 293.746L112.414 274.069L118.392 245.025L146.509 235.762Z" fill="white" fill-opacity="0.15"/>
<path d="M236.366 412.107L261.026 449.056L266.598 445.318L242.015 408.428L236.366 412.107ZM52.2299 374.405L76.7808 411.135L82.4334 407.435L57.8993 370.731L52.2299 374.405ZM-40.872 386.525L-3.80728 362.455L-7.56479 356.841L-44.6295 380.911L-40.872 386.525ZM9.39559 296.496L-15.1553 259.766L-20.8037 263.445L3.75966 300.221L9.39559 296.496ZM142.811 424.725L179.973 400.61L176.22 394.974L139.079 419.094L142.811 424.725ZM183.055 386.063L207.165 407.455C207.447 407.705 207.79 407.877 208.159 407.953C208.529 408.029 208.912 408.007 209.269 407.888L239.868 397.756C240.241 397.642 240.576 397.429 240.837 397.139C241.097 396.849 241.274 396.494 241.348 396.111L247.836 364.587C247.919 364.206 247.897 363.81 247.772 363.441C247.647 363.072 247.424 362.743 247.127 362.491L223.016 341.099C222.734 340.849 222.391 340.677 222.022 340.601C221.653 340.525 221.27 340.547 220.912 340.666L190.313 350.798C189.94 350.912 189.605 351.125 189.345 351.415C189.084 351.705 188.907 352.06 188.834 352.443L182.345 383.967C182.262 384.348 182.284 384.744 182.409 385.113C182.534 385.482 182.757 385.811 183.055 386.063ZM221.035 345.291L243.195 364.968L237.23 393.949L209.092 403.317L186.952 383.645L192.926 354.621L221.035 345.291ZM-2.25529 347.988L21.8553 369.38C22.1372 369.631 22.4801 369.802 22.8495 369.878C23.2188 369.954 23.6017 369.932 23.9595 369.813L54.5584 359.681C54.9314 359.567 55.2661 359.354 55.5267 359.064C55.7873 358.774 55.9639 358.419 56.0376 358.036L62.5259 326.512C62.6093 326.131 62.5874 325.735 62.4624 325.366C62.3375 324.997 62.1142 324.668 61.8167 324.416L37.7061 303.024C37.4242 302.774 37.0813 302.602 36.712 302.526C36.3426 302.45 35.9597 302.472 35.6019 302.591L5.00299 312.723C4.63338 312.841 4.30268 313.056 4.04596 313.347C3.7892 313.637 3.61607 313.992 3.54486 314.372L-2.94346 345.897C-3.015 346.266 -2.98792 346.648 -2.86485 347.004C-2.74177 347.36 -2.52708 347.678 -2.24231 347.925L-2.25529 347.988ZM35.7456 307.221L58.0115 326.919L52.0466 355.9L23.8115 365.204L1.65075 345.528L7.62867 316.484L35.7456 307.221Z" fill="white" fill-opacity="0.15"/>
<path d="M236.366 412.107L261.026 449.056L266.598 445.318L242.015 408.428L236.366 412.107ZM52.2299 374.405L76.7808 411.135L82.4334 407.435L57.8993 370.731L52.2299 374.405ZM-40.872 386.525L-3.80728 362.455L-7.56479 356.841L-44.6295 380.911L-40.872 386.525ZM9.39559 296.496L-15.1553 259.766L-20.8037 263.445L3.75966 300.221L9.39559 296.496ZM142.811 424.725L179.973 400.61L176.22 394.974L139.079 419.094L142.811 424.725ZM183.055 386.063L207.165 407.455C207.447 407.705 207.79 407.877 208.159 407.953C208.529 408.029 208.912 408.007 209.269 407.888L239.868 397.756C240.241 397.642 240.576 397.429 240.837 397.139C241.097 396.849 241.274 396.494 241.348 396.111L247.836 364.587C247.919 364.206 247.897 363.81 247.772 363.441C247.647 363.072 247.424 362.743 247.127 362.491L223.016 341.099C222.734 340.849 222.391 340.677 222.022 340.601C221.653 340.525 221.27 340.547 220.912 340.666L190.313 350.798C189.94 350.912 189.605 351.125 189.345 351.415C189.084 351.705 188.907 352.06 188.834 352.443L182.345 383.967C182.262 384.348 182.284 384.744 182.409 385.113C182.534 385.482 182.757 385.811 183.055 386.063ZM221.035 345.291L243.195 364.968L237.23 393.949L209.092 403.317L186.952 383.645L192.926 354.621L221.035 345.291ZM-2.25529 347.988L21.8553 369.38C22.1372 369.631 22.4801 369.802 22.8495 369.878C23.2188 369.954 23.6017 369.932 23.9595 369.813L54.5584 359.681C54.9314 359.567 55.2661 359.354 55.5267 359.064C55.7873 358.774 55.9639 358.419 56.0376 358.036L62.5259 326.512C62.6093 326.131 62.5874 325.735 62.4624 325.366C62.3375 324.997 62.1142 324.668 61.8167 324.416L37.7061 303.024C37.4242 302.774 37.0813 302.602 36.712 302.526C36.3426 302.45 35.9597 302.472 35.6019 302.591L5.00299 312.723C4.63338 312.841 4.30268 313.056 4.04596 313.347C3.7892 313.637 3.61607 313.992 3.54486 314.372L-2.94346 345.897C-3.015 346.266 -2.98792 346.648 -2.86485 347.004C-2.74177 347.36 -2.52708 347.678 -2.24231 347.925L-2.25529 347.988ZM35.7456 307.221L58.0115 326.919L52.0466 355.9L23.8115 365.204L1.65075 345.528L7.62867 316.484L35.7456 307.221Z" fill="white" fill-opacity="0.15"/>
<path d="M207.27 111.117L231.917 148.02L226.248 151.694L201.634 114.842L207.27 111.117ZM108.027 126.968L145.117 102.881L141.38 97.2707L104.269 121.353L108.027 126.968ZM-2.36283 199.957L34.7019 175.887L30.9444 170.272L-6.12031 194.342L-2.36283 199.957ZM47.9048 109.927L23.3539 73.1976L17.7056 76.8764L42.2689 113.653L47.9048 109.927ZM292.184 165.528L329.126 141.521L325.39 135.91L288.456 159.876L292.184 165.528ZM221.564 199.494L245.674 220.886C245.956 221.137 246.299 221.309 246.669 221.385C247.038 221.461 247.421 221.438 247.779 221.32L278.378 211.188C278.75 211.073 279.085 210.86 279.346 210.57C279.606 210.28 279.783 209.925 279.857 209.542L286.345 178.018C286.428 177.638 286.406 177.241 286.282 176.872C286.157 176.503 285.933 176.175 285.636 175.922L261.525 154.53C261.243 154.28 260.9 154.108 260.531 154.032C260.162 153.956 259.779 153.978 259.421 154.097L228.822 164.229C228.449 164.343 228.114 164.557 227.854 164.847C227.593 165.136 227.417 165.492 227.343 165.874L220.855 197.398C220.771 197.779 220.793 198.175 220.918 198.544C221.043 198.914 221.266 199.242 221.564 199.494ZM259.544 158.723L281.704 178.399L275.739 207.381L247.601 216.748L225.461 197.076L231.435 168.053L259.544 158.723ZM36.2539 161.419L60.3645 182.812C60.6464 183.062 60.9893 183.234 61.3587 183.31C61.728 183.386 62.1109 183.363 62.4687 183.245L93.0676 173.113C93.4406 172.999 93.7753 172.785 94.0359 172.495C94.2965 172.205 94.4731 171.85 94.5468 171.467L101.035 139.943C101.119 139.563 101.097 139.166 100.972 138.797C100.847 138.428 100.623 138.1 100.326 137.848L76.2153 116.455C75.9334 116.205 75.5905 116.033 75.2212 115.957C74.8518 115.881 74.4689 115.904 74.1111 116.022L43.5122 126.154C43.1426 126.272 42.8119 126.487 42.5551 126.778C42.2984 127.068 42.1253 127.423 42.0541 127.804L35.5658 159.328C35.4942 159.698 35.5213 160.08 35.6444 160.436C35.7674 160.792 35.9821 161.109 36.2669 161.356L36.2539 161.419ZM74.2549 120.652L96.5208 140.35L90.5558 169.332L62.3207 178.636L40.1599 158.959L46.1379 129.915L74.2549 120.652Z" fill="white" fill-opacity="0.15"/>
<path d="M207.27 111.117L231.917 148.02L226.248 151.694L201.634 114.842L207.27 111.117ZM108.027 126.968L145.117 102.881L141.38 97.2707L104.269 121.353L108.027 126.968ZM-2.36283 199.957L34.7019 175.887L30.9444 170.272L-6.12031 194.342L-2.36283 199.957ZM47.9048 109.927L23.3539 73.1976L17.7056 76.8764L42.2689 113.653L47.9048 109.927ZM292.184 165.528L329.126 141.521L325.39 135.91L288.456 159.876L292.184 165.528ZM221.564 199.494L245.674 220.886C245.956 221.137 246.299 221.309 246.669 221.385C247.038 221.461 247.421 221.438 247.779 221.32L278.378 211.188C278.75 211.073 279.085 210.86 279.346 210.57C279.606 210.28 279.783 209.925 279.857 209.542L286.345 178.018C286.428 177.638 286.406 177.241 286.282 176.872C286.157 176.503 285.933 176.175 285.636 175.922L261.525 154.53C261.243 154.28 260.9 154.108 260.531 154.032C260.162 153.956 259.779 153.978 259.421 154.097L228.822 164.229C228.449 164.343 228.114 164.557 227.854 164.847C227.593 165.136 227.417 165.492 227.343 165.874L220.855 197.398C220.771 197.779 220.793 198.175 220.918 198.544C221.043 198.914 221.266 199.242 221.564 199.494ZM259.544 158.723L281.704 178.399L275.739 207.381L247.601 216.748L225.461 197.076L231.435 168.053L259.544 158.723ZM36.2539 161.419L60.3645 182.812C60.6464 183.062 60.9893 183.234 61.3587 183.31C61.728 183.386 62.1109 183.363 62.4687 183.245L93.0676 173.113C93.4406 172.999 93.7753 172.785 94.0359 172.495C94.2965 172.205 94.4731 171.85 94.5468 171.467L101.035 139.943C101.119 139.563 101.097 139.166 100.972 138.797C100.847 138.428 100.623 138.1 100.326 137.848L76.2153 116.455C75.9334 116.205 75.5905 116.033 75.2212 115.957C74.8518 115.881 74.4689 115.904 74.1111 116.022L43.5122 126.154C43.1426 126.272 42.8119 126.487 42.5551 126.778C42.2984 127.068 42.1253 127.423 42.0541 127.804L35.5658 159.328C35.4942 159.698 35.5213 160.08 35.6444 160.436C35.7674 160.792 35.9821 161.109 36.2669 161.356L36.2539 161.419ZM74.2549 120.652L96.5208 140.35L90.5558 169.332L62.3207 178.636L40.1599 158.959L46.1379 129.915L74.2549 120.652Z" fill="white" fill-opacity="0.15"/>
</g>
<defs>
<clipPath id="clip0_307_1410">
<rect width="412" height="490" fill="white" transform="translate(436.997 98.7814) rotate(101.63)"/>
</clipPath>
</defs>
</svg>
