<svg width="525" height="269" viewBox="0 0 525 269" fill="none" xmlns="http://www.w3.org/2000/svg">
<g opacity="0.15" clip-path="url(#clip0_72_191)">
<path d="M297.201 181.377L335.655 203.526L332.203 209.333L293.801 187.215L297.201 181.377ZM408.531 253.96L447.017 276.145L450.355 270.324L411.963 248.159L408.531 253.96ZM226.768 301.812L265.059 323.849L268.486 318.026L230.22 296.005L226.768 301.812ZM215.274 239.589L237.839 201.554L232.003 198.182L209.417 236.222L215.274 239.589ZM148.692 353.957L171.242 315.948L165.385 312.582L142.835 350.59L148.692 353.957ZM153.83 250.973L115.539 228.937L112.107 234.739L150.43 256.811L153.83 250.973ZM397.437 192.497L419.904 154.599L414.068 151.227L391.589 189.084L397.437 192.497ZM330.27 306.752L352.886 268.66L347.023 265.272L324.428 303.36L330.27 306.752ZM349.199 254.254L380.295 262.738C380.658 262.838 381.042 262.84 381.407 262.744C381.772 262.648 382.105 262.458 382.373 262.194L405.307 239.545C405.591 239.277 405.796 238.937 405.901 238.562C406.006 238.186 406.007 237.79 405.903 237.414L397.741 206.281C397.647 205.903 397.452 205.558 397.176 205.282C396.901 205.007 396.555 204.811 396.176 204.717L365.08 196.233C364.717 196.134 364.333 196.132 363.968 196.228C363.604 196.323 363.27 196.513 363.002 196.778L340.068 219.427C339.784 219.695 339.579 220.035 339.474 220.41C339.369 220.785 339.368 221.182 339.472 221.558L347.634 252.69C347.728 253.069 347.923 253.414 348.199 253.689C348.474 253.965 348.82 254.16 349.199 254.254ZM365.163 200.87L393.751 208.68L401.254 237.302L380.187 258.175L351.62 250.359L344.105 221.696L365.163 200.87ZM166.218 302.292L197.314 310.776C197.678 310.876 198.062 310.878 198.426 310.782C198.791 310.686 199.124 310.497 199.393 310.232L222.327 287.583C222.61 287.315 222.816 286.975 222.921 286.6C223.026 286.224 223.027 285.828 222.923 285.452L214.761 254.319C214.667 253.941 214.472 253.596 214.196 253.32C213.92 253.045 213.575 252.849 213.196 252.755L182.1 244.271C181.736 244.172 181.353 244.17 180.988 244.266C180.623 244.361 180.29 244.551 180.022 244.816L157.088 267.465C156.809 267.735 156.608 268.074 156.506 268.449C156.405 268.823 156.407 269.217 156.512 269.59L164.674 300.723C164.774 301.086 164.968 301.417 165.236 301.681C165.504 301.946 165.837 302.135 166.202 302.23L166.218 302.292ZM182.204 248.902L210.895 256.686L218.399 285.307L197.216 306.166L168.629 298.355L161.109 269.672L182.204 248.902Z" fill="white"/>
<path d="M297.201 181.377L335.655 203.526L332.203 209.333L293.801 187.215L297.201 181.377ZM408.531 253.96L447.017 276.145L450.355 270.324L411.963 248.159L408.531 253.96ZM226.768 301.812L265.059 323.849L268.486 318.026L230.22 296.005L226.768 301.812ZM215.274 239.589L237.839 201.554L232.003 198.182L209.417 236.222L215.274 239.589ZM148.692 353.957L171.242 315.948L165.385 312.582L142.835 350.59L148.692 353.957ZM153.83 250.973L115.539 228.937L112.107 234.739L150.43 256.811L153.83 250.973ZM397.437 192.497L419.904 154.599L414.068 151.227L391.589 189.084L397.437 192.497ZM330.27 306.752L352.886 268.66L347.023 265.272L324.428 303.36L330.27 306.752ZM349.199 254.254L380.295 262.738C380.658 262.838 381.042 262.84 381.407 262.744C381.772 262.648 382.105 262.458 382.373 262.194L405.307 239.545C405.591 239.277 405.796 238.937 405.901 238.562C406.006 238.186 406.007 237.79 405.903 237.414L397.741 206.281C397.647 205.903 397.452 205.558 397.176 205.282C396.901 205.007 396.555 204.811 396.176 204.717L365.08 196.233C364.717 196.134 364.333 196.132 363.968 196.228C363.604 196.323 363.27 196.513 363.002 196.778L340.068 219.427C339.784 219.695 339.579 220.035 339.474 220.41C339.369 220.785 339.368 221.182 339.472 221.558L347.634 252.69C347.728 253.069 347.923 253.414 348.199 253.689C348.474 253.965 348.82 254.16 349.199 254.254ZM365.163 200.87L393.751 208.68L401.254 237.302L380.187 258.175L351.62 250.359L344.105 221.696L365.163 200.87ZM166.218 302.292L197.314 310.776C197.678 310.876 198.062 310.878 198.426 310.782C198.791 310.686 199.124 310.497 199.393 310.232L222.327 287.583C222.61 287.315 222.816 286.975 222.921 286.6C223.026 286.224 223.027 285.828 222.923 285.452L214.761 254.319C214.667 253.941 214.472 253.596 214.196 253.32C213.92 253.045 213.575 252.849 213.196 252.755L182.1 244.271C181.736 244.172 181.353 244.17 180.988 244.266C180.623 244.361 180.29 244.551 180.022 244.816L157.088 267.465C156.809 267.735 156.608 268.074 156.506 268.449C156.405 268.823 156.407 269.217 156.512 269.59L164.674 300.723C164.774 301.086 164.968 301.417 165.236 301.681C165.504 301.946 165.837 302.135 166.202 302.23L166.218 302.292ZM182.204 248.902L210.895 256.686L218.399 285.307L197.216 306.166L168.629 298.355L161.109 269.672L182.204 248.902Z" fill="white"/>
<path d="M340.936 367.123L379.422 389.307L382.759 383.486L344.367 361.321L340.936 367.123ZM159.173 414.975L197.464 437.011L200.89 431.188L162.625 409.167L159.173 414.975ZM81.097 467.119L103.647 429.11L97.7891 425.744L75.2395 463.753L81.097 467.119ZM86.2346 364.135L47.9432 342.099L44.5115 347.901L82.8347 369.973L86.2346 364.135ZM262.675 419.915L285.291 381.822L279.428 378.435L256.832 416.522L262.675 419.915ZM281.603 367.417L312.699 375.901C313.063 376 313.447 376.002 313.811 375.906C314.176 375.811 314.509 375.621 314.777 375.356L337.712 352.707C337.995 352.439 338.201 352.099 338.306 351.724C338.411 351.349 338.412 350.952 338.308 350.576L330.146 319.443C330.052 319.065 329.857 318.72 329.581 318.444C329.305 318.169 328.96 317.974 328.581 317.879L297.485 309.396C297.121 309.296 296.738 309.294 296.373 309.39C296.008 309.485 295.675 309.675 295.407 309.94L272.473 332.589C272.189 332.857 271.984 333.197 271.879 333.572C271.773 333.947 271.773 334.344 271.876 334.72L280.038 365.853C280.132 366.231 280.328 366.576 280.603 366.852C280.879 367.127 281.225 367.323 281.603 367.417ZM297.568 314.032L326.155 321.843L333.659 350.464L312.591 371.337L284.024 363.521L276.51 334.858L297.568 314.032ZM98.6229 415.455L129.719 423.939C130.083 424.038 130.466 424.04 130.831 423.944C131.196 423.849 131.529 423.659 131.797 423.394L154.731 400.745C155.015 400.477 155.22 400.137 155.325 399.762C155.43 399.387 155.431 398.99 155.328 398.614L147.166 367.481C147.072 367.103 146.876 366.758 146.601 366.482C146.325 366.207 145.979 366.012 145.601 365.918L114.505 357.434C114.141 357.334 113.757 357.332 113.393 357.428C113.028 357.524 112.695 357.713 112.426 357.978L89.4923 380.627C89.2132 380.897 89.0123 381.237 88.911 381.611C88.8097 381.985 88.8117 382.379 88.9167 382.752L97.0788 413.885C97.1786 414.248 97.3722 414.579 97.6404 414.843C97.9086 415.108 98.2418 415.297 98.6065 415.392L98.6229 415.455ZM114.608 362.065L143.3 369.848L150.803 398.47L129.621 419.328L101.033 411.518L93.5132 382.834L114.608 362.065Z" fill="white"/>
<path d="M340.936 367.123L379.422 389.307L382.759 383.486L344.367 361.321L340.936 367.123ZM159.173 414.975L197.464 437.011L200.89 431.188L162.625 409.167L159.173 414.975ZM81.097 467.119L103.647 429.11L97.7891 425.744L75.2395 463.753L81.097 467.119ZM86.2346 364.135L47.9432 342.099L44.5115 347.901L82.8347 369.973L86.2346 364.135ZM262.675 419.915L285.291 381.822L279.428 378.435L256.832 416.522L262.675 419.915ZM281.603 367.417L312.699 375.901C313.063 376 313.447 376.002 313.811 375.906C314.176 375.811 314.509 375.621 314.777 375.356L337.712 352.707C337.995 352.439 338.201 352.099 338.306 351.724C338.411 351.349 338.412 350.952 338.308 350.576L330.146 319.443C330.052 319.065 329.857 318.72 329.581 318.444C329.305 318.169 328.96 317.974 328.581 317.879L297.485 309.396C297.121 309.296 296.738 309.294 296.373 309.39C296.008 309.485 295.675 309.675 295.407 309.94L272.473 332.589C272.189 332.857 271.984 333.197 271.879 333.572C271.773 333.947 271.773 334.344 271.876 334.72L280.038 365.853C280.132 366.231 280.328 366.576 280.603 366.852C280.879 367.127 281.225 367.323 281.603 367.417ZM297.568 314.032L326.155 321.843L333.659 350.464L312.591 371.337L284.024 363.521L276.51 334.858L297.568 314.032ZM98.6229 415.455L129.719 423.939C130.083 424.038 130.466 424.04 130.831 423.944C131.196 423.849 131.529 423.659 131.797 423.394L154.731 400.745C155.015 400.477 155.22 400.137 155.325 399.762C155.43 399.387 155.431 398.99 155.328 398.614L147.166 367.481C147.072 367.103 146.876 366.758 146.601 366.482C146.325 366.207 145.979 366.012 145.601 365.918L114.505 357.434C114.141 357.334 113.757 357.332 113.393 357.428C113.028 357.524 112.695 357.713 112.426 357.978L89.4923 380.627C89.2132 380.897 89.0123 381.237 88.911 381.611C88.8097 381.985 88.8117 382.379 88.9167 382.752L97.0788 413.885C97.1786 414.248 97.3722 414.579 97.6404 414.843C97.9086 415.108 98.2418 415.297 98.6065 415.392L98.6229 415.455ZM114.608 362.065L143.3 369.848L150.803 398.47L129.621 419.328L101.033 411.518L93.5132 382.834L114.608 362.065Z" fill="white"/>
<path d="M181.398 110.238L219.853 132.387L216.4 138.194L177.999 116.076L181.398 110.238ZM99.4721 168.45L122.037 130.415L116.2 127.043L93.6146 165.083L99.4721 168.45ZM32.89 282.818L55.4396 244.809L49.5822 241.442L27.0326 279.451L32.89 282.818ZM38.0277 179.834L-0.263746 157.798L-3.69536 163.6L34.6278 185.672L38.0277 179.834ZM281.635 121.358L304.102 83.4597L298.265 80.0876L275.787 117.945L281.635 121.358ZM233.396 183.115L264.492 191.599C264.856 191.699 265.24 191.701 265.604 191.605C265.969 191.509 266.302 191.319 266.571 191.054L289.505 168.406C289.788 168.138 289.994 167.798 290.099 167.423C290.204 167.047 290.205 166.651 290.101 166.275L281.939 135.142C281.845 134.764 281.65 134.419 281.374 134.143C281.098 133.868 280.753 133.672 280.374 133.578L249.278 125.094C248.914 124.995 248.531 124.993 248.166 125.089C247.801 125.184 247.468 125.374 247.2 125.639L224.266 148.288C223.982 148.556 223.777 148.895 223.672 149.271C223.567 149.646 223.566 150.043 223.669 150.419L231.831 181.551C231.925 181.93 232.121 182.275 232.396 182.55C232.672 182.826 233.018 183.021 233.396 183.115ZM249.361 129.731L277.949 137.541L285.452 166.163L264.384 187.036L235.817 179.22L228.303 150.557L249.361 129.731ZM50.4159 231.153L81.5121 239.637C81.8758 239.737 82.2593 239.739 82.6241 239.643C82.9889 239.547 83.3221 239.358 83.5902 239.093L106.524 216.444C106.808 216.176 107.013 215.836 107.118 215.461C107.224 215.085 107.224 214.689 107.121 214.313L98.9587 183.18C98.8647 182.802 98.6693 182.457 98.3936 182.181C98.118 181.906 97.7723 181.71 97.3938 181.616L66.2976 173.132C65.9339 173.033 65.5504 173.031 65.1856 173.127C64.8209 173.222 64.4877 173.412 64.2195 173.677L41.2853 196.326C41.0063 196.595 40.8054 196.935 40.7041 197.309C40.6028 197.684 40.6048 198.078 40.7098 198.451L48.8719 229.584C48.9716 229.947 49.1653 230.278 49.4335 230.542C49.7017 230.807 50.0349 230.996 50.3996 231.091L50.4159 231.153ZM66.4012 177.763L95.0929 185.547L102.596 214.168L81.4139 235.027L52.8262 227.216L45.3063 198.533L66.4012 177.763Z" fill="white"/>
<path d="M181.398 110.238L219.853 132.387L216.4 138.194L177.999 116.076L181.398 110.238ZM99.4721 168.45L122.037 130.415L116.2 127.043L93.6146 165.083L99.4721 168.45ZM32.89 282.818L55.4396 244.809L49.5822 241.442L27.0326 279.451L32.89 282.818ZM38.0277 179.834L-0.263746 157.798L-3.69536 163.6L34.6278 185.672L38.0277 179.834ZM281.635 121.358L304.102 83.4597L298.265 80.0876L275.787 117.945L281.635 121.358ZM233.396 183.115L264.492 191.599C264.856 191.699 265.24 191.701 265.604 191.605C265.969 191.509 266.302 191.319 266.571 191.054L289.505 168.406C289.788 168.138 289.994 167.798 290.099 167.423C290.204 167.047 290.205 166.651 290.101 166.275L281.939 135.142C281.845 134.764 281.65 134.419 281.374 134.143C281.098 133.868 280.753 133.672 280.374 133.578L249.278 125.094C248.914 124.995 248.531 124.993 248.166 125.089C247.801 125.184 247.468 125.374 247.2 125.639L224.266 148.288C223.982 148.556 223.777 148.895 223.672 149.271C223.567 149.646 223.566 150.043 223.669 150.419L231.831 181.551C231.925 181.93 232.121 182.275 232.396 182.55C232.672 182.826 233.018 183.021 233.396 183.115ZM249.361 129.731L277.949 137.541L285.452 166.163L264.384 187.036L235.817 179.22L228.303 150.557L249.361 129.731ZM50.4159 231.153L81.5121 239.637C81.8758 239.737 82.2593 239.739 82.6241 239.643C82.9889 239.547 83.3221 239.358 83.5902 239.093L106.524 216.444C106.808 216.176 107.013 215.836 107.118 215.461C107.224 215.085 107.224 214.689 107.121 214.313L98.9587 183.18C98.8647 182.802 98.6693 182.457 98.3936 182.181C98.118 181.906 97.7723 181.71 97.3938 181.616L66.2976 173.132C65.9339 173.033 65.5504 173.031 65.1856 173.127C64.8209 173.222 64.4877 173.412 64.2195 173.677L41.2853 196.326C41.0063 196.595 40.8054 196.935 40.7041 197.309C40.6028 197.684 40.6048 198.078 40.7098 198.451L48.8719 229.584C48.9716 229.947 49.1653 230.278 49.4335 230.542C49.7017 230.807 50.0349 230.996 50.3996 231.091L50.4159 231.153ZM66.4012 177.763L95.0929 185.547L102.596 214.168L81.4139 235.027L52.8262 227.216L45.3063 198.533L66.4012 177.763Z" fill="white"/>
</g>
<defs>
<clipPath id="clip0_72_191">
<rect width="412" height="490" fill="white" transform="translate(419.982) rotate(75.3095)"/>
</clipPath>
</defs>
</svg>
