<svg width="469" height="397" viewBox="0 0 469 397" fill="none" xmlns="http://www.w3.org/2000/svg">
<path d="M325.524 154.227L350.171 191.13L344.502 194.804L319.888 157.952L325.524 154.227ZM393.13 268.648L417.789 305.598L423.362 301.86L398.778 264.97L393.13 268.648ZM208.993 230.946L233.544 267.676L239.197 263.976L214.663 227.272L208.993 230.946ZM226.281 170.078L263.371 145.991L259.635 140.381L222.523 164.463L226.281 170.078ZM115.891 243.067L152.956 218.997L149.199 213.382L112.134 237.452L115.891 243.067ZM166.159 153.037L141.608 116.308L135.96 119.986L160.523 156.763L166.159 153.037ZM410.438 208.638L447.38 184.631L443.644 179.02L406.71 202.986L410.438 208.638ZM299.574 281.267L336.736 257.151L332.983 251.515L295.842 275.635L299.574 281.267ZM339.818 242.604L363.929 263.996C364.21 264.247 364.553 264.419 364.923 264.495C365.292 264.571 365.675 264.548 366.033 264.43L396.632 254.298C397.005 254.183 397.339 253.97 397.6 253.68C397.861 253.39 398.037 253.035 398.111 252.652L404.599 221.128C404.683 220.748 404.661 220.351 404.536 219.982C404.411 219.613 404.188 219.285 403.89 219.032L379.779 197.64C379.497 197.39 379.155 197.218 378.785 197.142C378.416 197.066 378.033 197.088 377.675 197.207L347.076 207.339C346.703 207.453 346.369 207.667 346.108 207.957C345.847 208.246 345.671 208.602 345.597 208.984L339.109 240.508C339.025 240.889 339.047 241.285 339.172 241.654C339.297 242.024 339.52 242.352 339.818 242.604ZM377.798 201.833L399.959 221.509L393.994 250.491L365.855 259.858L343.715 240.186L349.689 211.163L377.798 201.833ZM154.508 204.529L178.619 225.922C178.901 226.172 179.243 226.344 179.613 226.42C179.982 226.496 180.365 226.473 180.723 226.355L211.322 216.223C211.695 216.109 212.029 215.895 212.29 215.605C212.551 215.315 212.727 214.96 212.801 214.577L219.289 183.053C219.373 182.673 219.351 182.276 219.226 181.907C219.101 181.538 218.878 181.21 218.58 180.958L194.469 159.565C194.188 159.315 193.845 159.143 193.475 159.067C193.106 158.991 192.723 159.014 192.365 159.132L161.766 169.264C161.397 169.382 161.066 169.597 160.809 169.888C160.553 170.178 160.379 170.533 160.308 170.914L153.82 202.438C153.748 202.808 153.775 203.19 153.899 203.546C154.022 203.902 154.236 204.219 154.521 204.466L154.508 204.529ZM192.509 163.762L214.775 183.46L208.81 212.442L180.575 221.746L158.414 202.069L164.392 173.025L192.509 163.762Z" fill="white" fill-opacity="0.15"/>
<path d="M325.524 154.227L350.171 191.13L344.502 194.804L319.888 157.952L325.524 154.227ZM393.13 268.648L417.789 305.598L423.362 301.86L398.778 264.97L393.13 268.648ZM208.993 230.946L233.544 267.676L239.197 263.976L214.663 227.272L208.993 230.946ZM226.281 170.078L263.371 145.991L259.635 140.381L222.523 164.463L226.281 170.078ZM115.891 243.067L152.956 218.997L149.199 213.382L112.134 237.452L115.891 243.067ZM166.159 153.037L141.608 116.308L135.96 119.986L160.523 156.763L166.159 153.037ZM410.438 208.638L447.38 184.631L443.644 179.02L406.71 202.986L410.438 208.638ZM299.574 281.267L336.736 257.151L332.983 251.515L295.842 275.635L299.574 281.267ZM339.818 242.604L363.929 263.996C364.21 264.247 364.553 264.419 364.923 264.495C365.292 264.571 365.675 264.548 366.033 264.43L396.632 254.298C397.005 254.183 397.339 253.97 397.6 253.68C397.861 253.39 398.037 253.035 398.111 252.652L404.599 221.128C404.683 220.748 404.661 220.351 404.536 219.982C404.411 219.613 404.188 219.285 403.89 219.032L379.779 197.64C379.497 197.39 379.155 197.218 378.785 197.142C378.416 197.066 378.033 197.088 377.675 197.207L347.076 207.339C346.703 207.453 346.369 207.667 346.108 207.957C345.847 208.246 345.671 208.602 345.597 208.984L339.109 240.508C339.025 240.889 339.047 241.285 339.172 241.654C339.297 242.024 339.52 242.352 339.818 242.604ZM377.798 201.833L399.959 221.509L393.994 250.491L365.855 259.858L343.715 240.186L349.689 211.163L377.798 201.833ZM154.508 204.529L178.619 225.922C178.901 226.172 179.243 226.344 179.613 226.42C179.982 226.496 180.365 226.473 180.723 226.355L211.322 216.223C211.695 216.109 212.029 215.895 212.29 215.605C212.551 215.315 212.727 214.96 212.801 214.577L219.289 183.053C219.373 182.673 219.351 182.276 219.226 181.907C219.101 181.538 218.878 181.21 218.58 180.958L194.469 159.565C194.188 159.315 193.845 159.143 193.475 159.067C193.106 158.991 192.723 159.014 192.365 159.132L161.766 169.264C161.397 169.382 161.066 169.597 160.809 169.888C160.553 170.178 160.379 170.533 160.308 170.914L153.82 202.438C153.748 202.808 153.775 203.19 153.899 203.546C154.022 203.902 154.236 204.219 154.521 204.466L154.508 204.529ZM192.509 163.762L214.775 183.46L208.81 212.442L180.575 221.746L158.414 202.069L164.392 173.025L192.509 163.762Z" fill="white" fill-opacity="0.15"/>
<path d="M282.366 340.107L307.026 377.056L312.598 373.318L288.015 336.428L282.366 340.107ZM98.2299 302.405L122.781 339.135L128.433 335.435L103.899 298.731L98.2299 302.405ZM5.12797 314.525L42.1927 290.455L38.4352 284.841L1.37047 308.911L5.12797 314.525ZM55.3956 224.496L30.8447 187.766L25.1963 191.445L49.7597 228.221L55.3956 224.496ZM188.811 352.725L225.973 328.61L222.22 322.974L185.079 347.094L188.811 352.725ZM229.055 314.063L253.165 335.455C253.447 335.705 253.79 335.877 254.159 335.953C254.529 336.029 254.912 336.007 255.269 335.888L285.868 325.756C286.241 325.642 286.576 325.429 286.837 325.139C287.097 324.849 287.274 324.494 287.348 324.111L293.836 292.587C293.919 292.206 293.897 291.81 293.772 291.441C293.647 291.072 293.424 290.743 293.127 290.491L269.016 269.099C268.734 268.849 268.391 268.677 268.022 268.601C267.653 268.525 267.27 268.547 266.912 268.666L236.313 278.798C235.94 278.912 235.605 279.125 235.345 279.415C235.084 279.705 234.907 280.06 234.834 280.443L228.345 311.967C228.262 312.348 228.284 312.744 228.409 313.113C228.534 313.482 228.757 313.811 229.055 314.063ZM267.035 273.291L289.195 292.968L283.23 321.949L255.092 331.317L232.952 311.645L238.926 282.621L267.035 273.291ZM43.7447 275.988L67.8553 297.38C68.1372 297.631 68.4801 297.802 68.8494 297.878C69.2188 297.954 69.6017 297.932 69.9595 297.813L100.558 287.681C100.931 287.567 101.266 287.354 101.527 287.064C101.787 286.774 101.964 286.419 102.038 286.036L108.526 254.512C108.609 254.131 108.587 253.735 108.462 253.366C108.337 252.997 108.114 252.668 107.817 252.416L83.7061 231.024C83.4242 230.774 83.0813 230.602 82.712 230.526C82.3426 230.45 81.9597 230.472 81.6019 230.591L51.003 240.723C50.6334 240.841 50.3027 241.056 50.0459 241.347C49.7892 241.637 49.6161 241.992 49.5449 242.372L43.0565 273.897C42.985 274.266 43.0121 274.648 43.1352 275.004C43.2582 275.36 43.4729 275.678 43.7577 275.925L43.7447 275.988ZM81.7456 235.221L104.012 254.919L98.0466 283.9L69.8114 293.204L47.6507 273.528L53.6287 244.484L81.7456 235.221Z" fill="white" fill-opacity="0.15"/>
<path d="M282.366 340.107L307.026 377.056L312.598 373.318L288.015 336.428L282.366 340.107ZM98.2299 302.405L122.781 339.135L128.433 335.435L103.899 298.731L98.2299 302.405ZM5.12797 314.525L42.1927 290.455L38.4352 284.841L1.37047 308.911L5.12797 314.525ZM55.3956 224.496L30.8447 187.766L25.1963 191.445L49.7597 228.221L55.3956 224.496ZM188.811 352.725L225.973 328.61L222.22 322.974L185.079 347.094L188.811 352.725ZM229.055 314.063L253.165 335.455C253.447 335.705 253.79 335.877 254.159 335.953C254.529 336.029 254.912 336.007 255.269 335.888L285.868 325.756C286.241 325.642 286.576 325.429 286.837 325.139C287.097 324.849 287.274 324.494 287.348 324.111L293.836 292.587C293.919 292.206 293.897 291.81 293.772 291.441C293.647 291.072 293.424 290.743 293.127 290.491L269.016 269.099C268.734 268.849 268.391 268.677 268.022 268.601C267.653 268.525 267.27 268.547 266.912 268.666L236.313 278.798C235.94 278.912 235.605 279.125 235.345 279.415C235.084 279.705 234.907 280.06 234.834 280.443L228.345 311.967C228.262 312.348 228.284 312.744 228.409 313.113C228.534 313.482 228.757 313.811 229.055 314.063ZM267.035 273.291L289.195 292.968L283.23 321.949L255.092 331.317L232.952 311.645L238.926 282.621L267.035 273.291ZM43.7447 275.988L67.8553 297.38C68.1372 297.631 68.4801 297.802 68.8494 297.878C69.2188 297.954 69.6017 297.932 69.9595 297.813L100.558 287.681C100.931 287.567 101.266 287.354 101.527 287.064C101.787 286.774 101.964 286.419 102.038 286.036L108.526 254.512C108.609 254.131 108.587 253.735 108.462 253.366C108.337 252.997 108.114 252.668 107.817 252.416L83.7061 231.024C83.4242 230.774 83.0813 230.602 82.712 230.526C82.3426 230.45 81.9597 230.472 81.6019 230.591L51.003 240.723C50.6334 240.841 50.3027 241.056 50.0459 241.347C49.7892 241.637 49.6161 241.992 49.5449 242.372L43.0565 273.897C42.985 274.266 43.0121 274.648 43.1352 275.004C43.2582 275.36 43.4729 275.678 43.7577 275.925L43.7447 275.988ZM81.7456 235.221L104.012 254.919L98.0466 283.9L69.8114 293.204L47.6507 273.528L53.6287 244.484L81.7456 235.221Z" fill="white" fill-opacity="0.15"/>
<path d="M253.27 39.117L277.917 76.02L272.248 79.6944L247.634 42.8422L253.27 39.117ZM154.027 54.9678L191.117 30.8811L187.38 25.2707L150.269 49.3531L154.027 54.9678ZM43.6372 127.957L80.7019 103.887L76.9444 98.272L39.8797 122.342L43.6372 127.957ZM93.9048 37.9275L69.3539 1.19757L63.7056 4.87635L88.2689 41.6526L93.9048 37.9275ZM338.184 93.5283L375.126 69.5208L371.39 63.9103L334.456 87.8759L338.184 93.5283ZM267.564 127.494L291.674 148.886C291.956 149.137 292.299 149.309 292.669 149.385C293.038 149.461 293.421 149.438 293.779 149.32L324.378 139.188C324.75 139.073 325.085 138.86 325.346 138.57C325.606 138.28 325.783 137.925 325.857 137.542L332.345 106.018C332.428 105.638 332.406 105.241 332.282 104.872C332.157 104.503 331.933 104.175 331.636 103.922L307.525 82.5302C307.243 82.2799 306.9 82.1081 306.531 82.0321C306.162 81.956 305.779 81.9785 305.421 82.0971L274.822 92.2291C274.449 92.3432 274.114 92.5567 273.854 92.8465C273.593 93.1364 273.417 93.4917 273.343 93.8743L266.855 125.398C266.771 125.779 266.793 126.175 266.918 126.544C267.043 126.914 267.266 127.242 267.564 127.494ZM305.544 86.7227L327.704 106.399L321.739 135.381L293.601 144.748L271.461 125.076L277.435 96.0527L305.544 86.7227ZM82.2539 89.4193L106.364 110.812C106.646 111.062 106.989 111.234 107.359 111.31C107.728 111.386 108.111 111.363 108.469 111.245L139.068 101.113C139.441 100.999 139.775 100.785 140.036 100.495C140.297 100.205 140.473 99.8501 140.547 99.4675L147.035 67.9433C147.119 67.5627 147.097 67.1665 146.972 66.7973C146.847 66.4281 146.623 66.0998 146.326 65.8476L122.215 44.4554C121.933 44.2051 121.591 44.0332 121.221 43.9572C120.852 43.8812 120.469 43.9037 120.111 44.0223L89.5122 54.1542C89.1426 54.2719 88.8119 54.4875 88.5552 54.7779C88.2984 55.0683 88.1253 55.4229 88.0541 55.8038L81.5658 87.3279C81.4942 87.6977 81.5213 88.0797 81.6444 88.4358C81.7674 88.7918 81.9821 89.1093 82.2669 89.3562L82.2539 89.4193ZM120.255 48.6522L142.521 68.3504L136.556 97.3317L108.321 106.636L86.1599 86.9592L92.1379 57.9148L120.255 48.6522Z" fill="white" fill-opacity="0.15"/>
<path d="M253.27 39.117L277.917 76.02L272.248 79.6944L247.634 42.8422L253.27 39.117ZM154.027 54.9678L191.117 30.8811L187.38 25.2707L150.269 49.3531L154.027 54.9678ZM43.6372 127.957L80.7019 103.887L76.9444 98.272L39.8797 122.342L43.6372 127.957ZM93.9048 37.9275L69.3539 1.19757L63.7056 4.87635L88.2689 41.6526L93.9048 37.9275ZM338.184 93.5283L375.126 69.5208L371.39 63.9103L334.456 87.8759L338.184 93.5283ZM267.564 127.494L291.674 148.886C291.956 149.137 292.299 149.309 292.669 149.385C293.038 149.461 293.421 149.438 293.779 149.32L324.378 139.188C324.75 139.073 325.085 138.86 325.346 138.57C325.606 138.28 325.783 137.925 325.857 137.542L332.345 106.018C332.428 105.638 332.406 105.241 332.282 104.872C332.157 104.503 331.933 104.175 331.636 103.922L307.525 82.5302C307.243 82.2799 306.9 82.1081 306.531 82.0321C306.162 81.956 305.779 81.9785 305.421 82.0971L274.822 92.2291C274.449 92.3432 274.114 92.5567 273.854 92.8465C273.593 93.1364 273.417 93.4917 273.343 93.8743L266.855 125.398C266.771 125.779 266.793 126.175 266.918 126.544C267.043 126.914 267.266 127.242 267.564 127.494ZM305.544 86.7227L327.704 106.399L321.739 135.381L293.601 144.748L271.461 125.076L277.435 96.0527L305.544 86.7227ZM82.2539 89.4193L106.364 110.812C106.646 111.062 106.989 111.234 107.359 111.31C107.728 111.386 108.111 111.363 108.469 111.245L139.068 101.113C139.441 100.999 139.775 100.785 140.036 100.495C140.297 100.205 140.473 99.8501 140.547 99.4675L147.035 67.9433C147.119 67.5627 147.097 67.1665 146.972 66.7973C146.847 66.4281 146.623 66.0998 146.326 65.8476L122.215 44.4554C121.933 44.2051 121.591 44.0332 121.221 43.9572C120.852 43.8812 120.469 43.9037 120.111 44.0223L89.5122 54.1542C89.1426 54.2719 88.8119 54.4875 88.5552 54.7779C88.2984 55.0683 88.1253 55.4229 88.0541 55.8038L81.5658 87.3279C81.4942 87.6977 81.5213 88.0797 81.6444 88.4358C81.7674 88.7918 81.9821 89.1093 82.2669 89.3562L82.2539 89.4193ZM120.255 48.6522L142.521 68.3504L136.556 97.3317L108.321 106.636L86.1599 86.9592L92.1379 57.9148L120.255 48.6522Z" fill="white" fill-opacity="0.15"/>
</svg>
