<svg width="272" height="287" viewBox="0 0 272 287" fill="none" xmlns="http://www.w3.org/2000/svg">
<path d="M-62.4812 247.229L-84.9091 208.936L-79.0329 205.603L-56.6354 243.842L-62.4812 247.229ZM-123.222 129.02L-145.659 90.6807L-151.443 94.0837L-129.077 132.359L-123.222 129.02ZM58.3711 177.514L36.0288 139.401L30.1678 142.761L52.4949 180.848L58.3711 177.514ZM37.5243 237.258L-0.921703 259.115L2.47741 264.936L40.9441 243.084L37.5243 237.258ZM152.026 170.905L113.606 192.748L117.026 198.574L155.446 176.732L152.026 170.905ZM96.5366 257.814L118.879 295.927L124.734 292.588L102.382 254.427L96.5366 257.814ZM-144.039 187.905L-182.332 209.692L-178.933 215.513L-140.651 193.767L-144.039 187.905ZM-29.0851 121.94L-67.6044 143.823L-64.1901 149.67L-25.6915 127.782L-29.0851 121.94ZM-71.5386 158.162L-94.3458 135.386C-94.6124 135.119 -94.9446 134.927 -95.3088 134.83C-95.673 134.732 -96.0566 134.732 -96.4208 134.829L-127.564 143.139C-127.943 143.231 -128.29 143.424 -128.567 143.698C-128.844 143.972 -129.041 144.317 -129.138 144.694L-137.473 175.781C-137.579 176.156 -137.581 176.553 -137.478 176.929C-137.375 177.305 -137.171 177.646 -136.889 177.915L-114.082 200.692C-113.815 200.958 -113.483 201.15 -113.119 201.248C-112.755 201.345 -112.371 201.345 -112.007 201.248L-80.8638 192.938C-80.4847 192.846 -80.138 192.653 -79.8608 192.379C-79.5836 192.105 -79.3863 191.761 -79.2902 191.383L-70.9542 160.296C-70.8485 159.921 -70.8471 159.524 -70.95 159.149C-71.053 158.773 -71.2564 158.432 -71.5386 158.162ZM-111.857 196.623L-132.818 175.674L-125.155 147.095L-96.5129 139.403L-75.5718 160.346L-83.2465 188.967L-111.857 196.623ZM111.204 207.098L88.3965 184.322C88.1298 184.055 87.7977 183.863 87.4334 183.766C87.0692 183.668 86.6857 183.668 86.3215 183.765L55.1783 192.075C54.7993 192.167 54.4525 192.36 54.1753 192.634C53.8981 192.908 53.7008 193.253 53.6047 193.63L45.2688 224.717C45.1631 225.092 45.1616 225.489 45.2645 225.865C45.3675 226.241 45.571 226.582 45.8532 226.851L68.6603 249.628C68.927 249.894 69.2591 250.086 69.6234 250.184C69.9876 250.281 70.3711 250.281 70.7353 250.184L101.878 241.874C102.254 241.778 102.597 241.583 102.871 241.308C103.144 241.033 103.338 240.689 103.431 240.313L111.767 209.227C111.861 208.862 111.856 208.479 111.754 208.116C111.652 207.754 111.457 207.424 111.187 207.161L111.204 207.098ZM70.8649 245.554L49.7993 224.577L57.4628 195.998L86.1975 188.375L107.159 209.324L99.4791 237.965L70.8649 245.554Z" fill="#88A750"/>
<path d="M-62.4812 247.229L-84.9091 208.936L-79.0329 205.603L-56.6354 243.842L-62.4812 247.229ZM-123.222 129.02L-145.659 90.6807L-151.443 94.0837L-129.077 132.359L-123.222 129.02ZM58.3711 177.514L36.0288 139.401L30.1678 142.761L52.4949 180.848L58.3711 177.514ZM37.5243 237.258L-0.921703 259.115L2.47741 264.936L40.9441 243.084L37.5243 237.258ZM152.026 170.905L113.606 192.748L117.026 198.574L155.446 176.732L152.026 170.905ZM96.5366 257.814L118.879 295.927L124.734 292.588L102.382 254.427L96.5366 257.814ZM-144.039 187.905L-182.332 209.692L-178.933 215.513L-140.651 193.767L-144.039 187.905ZM-29.0851 121.94L-67.6044 143.823L-64.1901 149.67L-25.6915 127.782L-29.0851 121.94ZM-71.5386 158.162L-94.3458 135.386C-94.6124 135.119 -94.9446 134.927 -95.3088 134.83C-95.673 134.732 -96.0566 134.732 -96.4208 134.829L-127.564 143.139C-127.943 143.231 -128.29 143.424 -128.567 143.698C-128.844 143.972 -129.041 144.317 -129.138 144.694L-137.473 175.781C-137.579 176.156 -137.581 176.553 -137.478 176.929C-137.375 177.305 -137.171 177.646 -136.889 177.915L-114.082 200.692C-113.815 200.958 -113.483 201.15 -113.119 201.248C-112.755 201.345 -112.371 201.345 -112.007 201.248L-80.8638 192.938C-80.4847 192.846 -80.138 192.653 -79.8608 192.379C-79.5836 192.105 -79.3863 191.761 -79.2902 191.383L-70.9542 160.296C-70.8485 159.921 -70.8471 159.524 -70.95 159.149C-71.053 158.773 -71.2564 158.432 -71.5386 158.162ZM-111.857 196.623L-132.818 175.674L-125.155 147.095L-96.5129 139.403L-75.5718 160.346L-83.2465 188.967L-111.857 196.623ZM111.204 207.098L88.3965 184.322C88.1298 184.055 87.7977 183.863 87.4334 183.766C87.0692 183.668 86.6857 183.668 86.3215 183.765L55.1783 192.075C54.7993 192.167 54.4525 192.36 54.1753 192.634C53.8981 192.908 53.7008 193.253 53.6047 193.63L45.2688 224.717C45.1631 225.092 45.1616 225.489 45.2645 225.865C45.3675 226.241 45.571 226.582 45.8532 226.851L68.6603 249.628C68.927 249.894 69.2591 250.086 69.6234 250.184C69.9876 250.281 70.3711 250.281 70.7353 250.184L101.878 241.874C102.254 241.778 102.597 241.583 102.871 241.308C103.144 241.033 103.338 240.689 103.431 240.313L111.767 209.227C111.861 208.862 111.856 208.479 111.754 208.116C111.652 207.754 111.457 207.424 111.187 207.161L111.204 207.098ZM70.8649 245.554L49.7993 224.577L57.4628 195.998L86.1975 188.375L107.159 209.324L99.4791 237.965L70.8649 245.554Z" fill="#88A750"/>
<path d="M-8.43743 64.2169L-30.875 25.8778L-36.6585 29.2809L-14.2929 67.5562L-8.43743 64.2169ZM173.155 112.711L150.813 74.5978L144.952 77.9579L167.279 116.045L173.155 112.711ZM266.81 106.102L228.39 127.945L231.81 133.771L270.23 111.929L266.81 106.102ZM211.321 193.011L233.663 231.124L239.519 227.785L217.167 189.624L211.321 193.011ZM85.6992 57.1374L47.1799 79.0198L50.5942 84.8669L89.0927 62.9791L85.6992 57.1374ZM43.2457 93.3596L20.4385 70.5827C20.1719 70.3163 19.8397 70.1245 19.4755 70.0269C19.1112 69.9292 18.7277 69.929 18.3635 70.0263L-12.7796 78.3363C-13.1586 78.4282 -13.5054 78.6216 -13.7826 78.8956C-14.0598 79.1696 -14.2571 79.5138 -14.3532 79.8914L-22.6892 110.978C-22.7949 111.353 -22.7963 111.75 -22.6934 112.126C-22.5904 112.502 -22.3869 112.843 -22.1048 113.112L0.70237 135.889C0.969034 136.155 1.30118 136.347 1.66542 136.445C2.02966 136.542 2.41317 136.543 2.77739 136.445L33.9205 128.135C34.2995 128.043 34.6463 127.85 34.9235 127.576C35.2007 127.302 35.398 126.958 35.4941 126.58L43.8301 95.4934C43.9358 95.1184 43.9372 94.7216 43.8343 94.3457C43.7313 93.9697 43.5279 93.6288 43.2457 93.3596ZM2.92768 131.82L-18.0342 110.871L-10.3706 82.2922L18.2714 74.6001L39.2125 95.5436L31.5378 124.164L2.92768 131.82ZM225.988 142.296L203.181 119.519C202.914 119.252 202.582 119.061 202.218 118.963C201.853 118.865 201.47 118.865 201.106 118.962L169.963 127.272C169.584 127.364 169.237 127.558 168.96 127.832C168.682 128.106 168.485 128.45 168.389 128.827L160.053 159.914C159.947 160.289 159.946 160.686 160.049 161.062C160.152 161.438 160.355 161.779 160.637 162.048L183.445 184.825C183.711 185.091 184.043 185.283 184.408 185.381C184.772 185.478 185.155 185.479 185.52 185.381L216.663 177.071C217.039 176.976 217.381 176.78 217.655 176.505C217.928 176.23 218.122 175.887 218.216 175.511L226.552 144.424C226.645 144.059 226.64 143.676 226.538 143.313C226.437 142.951 226.241 142.621 225.971 142.358L225.988 142.296ZM185.649 180.751L164.584 159.774L172.247 131.195L200.982 123.572L221.944 144.521L214.263 173.162L185.649 180.751Z" fill="#88A750"/>
<path d="M-8.43743 64.2169L-30.875 25.8778L-36.6585 29.2809L-14.2929 67.5562L-8.43743 64.2169ZM173.155 112.711L150.813 74.5978L144.952 77.9579L167.279 116.045L173.155 112.711ZM266.81 106.102L228.39 127.945L231.81 133.771L270.23 111.929L266.81 106.102ZM211.321 193.011L233.663 231.124L239.519 227.785L217.167 189.624L211.321 193.011ZM85.6992 57.1374L47.1799 79.0198L50.5942 84.8669L89.0927 62.9791L85.6992 57.1374ZM43.2457 93.3596L20.4385 70.5827C20.1719 70.3163 19.8397 70.1245 19.4755 70.0269C19.1112 69.9292 18.7277 69.929 18.3635 70.0263L-12.7796 78.3363C-13.1586 78.4282 -13.5054 78.6216 -13.7826 78.8956C-14.0598 79.1696 -14.2571 79.5138 -14.3532 79.8914L-22.6892 110.978C-22.7949 111.353 -22.7963 111.75 -22.6934 112.126C-22.5904 112.502 -22.3869 112.843 -22.1048 113.112L0.70237 135.889C0.969034 136.155 1.30118 136.347 1.66542 136.445C2.02966 136.542 2.41317 136.543 2.77739 136.445L33.9205 128.135C34.2995 128.043 34.6463 127.85 34.9235 127.576C35.2007 127.302 35.398 126.958 35.4941 126.58L43.8301 95.4934C43.9358 95.1184 43.9372 94.7216 43.8343 94.3457C43.7313 93.9697 43.5279 93.6288 43.2457 93.3596ZM2.92768 131.82L-18.0342 110.871L-10.3706 82.2922L18.2714 74.6001L39.2125 95.5436L31.5378 124.164L2.92768 131.82ZM225.988 142.296L203.181 119.519C202.914 119.252 202.582 119.061 202.218 118.963C201.853 118.865 201.47 118.865 201.106 118.962L169.963 127.272C169.584 127.364 169.237 127.558 168.96 127.832C168.682 128.106 168.485 128.45 168.389 128.827L160.053 159.914C159.947 160.289 159.946 160.686 160.049 161.062C160.152 161.438 160.355 161.779 160.637 162.048L183.445 184.825C183.711 185.091 184.043 185.283 184.408 185.381C184.772 185.478 185.155 185.479 185.52 185.381L216.663 177.071C217.039 176.976 217.381 176.78 217.655 176.505C217.928 176.23 218.122 175.887 218.216 175.511L226.552 144.424C226.645 144.059 226.64 143.676 226.538 143.313C226.437 142.951 226.241 142.621 225.971 142.358L225.988 142.296ZM185.649 180.751L164.584 159.774L172.247 131.195L200.982 123.572L221.944 144.521L214.263 173.162L185.649 180.751Z" fill="#88A750"/>
<path d="M2.8591 366.399L-19.5688 328.107L-13.6926 324.773L8.70491 363.013L2.8591 366.399ZM102.865 356.428L64.4186 378.286L67.8177 384.107L106.284 362.254L102.865 356.428ZM217.366 290.076L178.946 311.918L182.366 317.745L220.786 295.902L217.366 290.076ZM161.877 376.984L184.219 415.098L190.075 411.758L167.723 373.598L161.877 376.984ZM-78.6983 307.075L-116.992 328.863L-113.593 334.683L-75.3103 312.937L-78.6983 307.075ZM-6.19828 277.333L-29.0054 254.556C-29.2721 254.289 -29.6043 254.098 -29.9685 254C-30.3327 253.902 -30.7162 253.902 -31.0805 254L-62.2236 262.309C-62.6026 262.401 -62.9494 262.595 -63.2266 262.869C-63.5038 263.143 -63.7011 263.487 -63.7972 263.865L-72.1332 294.951C-72.2389 295.326 -72.2403 295.723 -72.1374 296.099C-72.0344 296.475 -71.8309 296.816 -71.5488 297.085L-48.7416 319.862C-48.4749 320.128 -48.1428 320.32 -47.7786 320.418C-47.4143 320.516 -47.0308 320.516 -46.6666 320.418L-15.5235 312.108C-15.1444 312.016 -14.7977 311.823 -14.5205 311.549C-14.2432 311.275 -14.046 310.931 -13.9498 310.553L-5.61388 279.467C-5.50819 279.092 -5.50674 278.695 -5.6097 278.319C-5.71266 277.943 -5.91612 277.602 -6.19828 277.333ZM-46.5163 315.794L-67.4782 294.845L-59.8146 266.265L-31.1726 258.573L-10.2315 279.517L-17.9061 308.137L-46.5163 315.794ZM176.544 326.269L153.737 303.492C153.47 303.226 153.138 303.034 152.774 302.936C152.41 302.838 152.026 302.838 151.662 302.936L120.519 311.245C120.14 311.337 119.793 311.531 119.516 311.805C119.238 312.079 119.041 312.423 118.945 312.801L110.609 343.887C110.503 344.262 110.502 344.659 110.605 345.035C110.708 345.411 110.911 345.752 111.193 346.021L134.001 368.798C134.267 369.065 134.599 369.256 134.964 369.354C135.328 369.452 135.711 369.452 136.076 369.354L167.219 361.045C167.595 360.949 167.938 360.753 168.211 360.478C168.484 360.204 168.678 359.86 168.772 359.484L177.108 328.397C177.201 328.032 177.196 327.649 177.094 327.287C176.993 326.924 176.797 326.594 176.527 326.331L176.544 326.269ZM136.205 364.724L115.14 343.747L122.803 315.168L151.538 307.545L172.5 328.494L164.819 357.136L136.205 364.724Z" fill="#88A750"/>
<path d="M2.8591 366.399L-19.5688 328.107L-13.6926 324.773L8.70491 363.013L2.8591 366.399ZM102.865 356.428L64.4186 378.286L67.8177 384.107L106.284 362.254L102.865 356.428ZM217.366 290.076L178.946 311.918L182.366 317.745L220.786 295.902L217.366 290.076ZM161.877 376.984L184.219 415.098L190.075 411.758L167.723 373.598L161.877 376.984ZM-78.6983 307.075L-116.992 328.863L-113.593 334.683L-75.3103 312.937L-78.6983 307.075ZM-6.19828 277.333L-29.0054 254.556C-29.2721 254.289 -29.6043 254.098 -29.9685 254C-30.3327 253.902 -30.7162 253.902 -31.0805 254L-62.2236 262.309C-62.6026 262.401 -62.9494 262.595 -63.2266 262.869C-63.5038 263.143 -63.7011 263.487 -63.7972 263.865L-72.1332 294.951C-72.2389 295.326 -72.2403 295.723 -72.1374 296.099C-72.0344 296.475 -71.8309 296.816 -71.5488 297.085L-48.7416 319.862C-48.4749 320.128 -48.1428 320.32 -47.7786 320.418C-47.4143 320.516 -47.0308 320.516 -46.6666 320.418L-15.5235 312.108C-15.1444 312.016 -14.7977 311.823 -14.5205 311.549C-14.2432 311.275 -14.046 310.931 -13.9498 310.553L-5.61388 279.467C-5.50819 279.092 -5.50674 278.695 -5.6097 278.319C-5.71266 277.943 -5.91612 277.602 -6.19828 277.333ZM-46.5163 315.794L-67.4782 294.845L-59.8146 266.265L-31.1726 258.573L-10.2315 279.517L-17.9061 308.137L-46.5163 315.794ZM176.544 326.269L153.737 303.492C153.47 303.226 153.138 303.034 152.774 302.936C152.41 302.838 152.026 302.838 151.662 302.936L120.519 311.245C120.14 311.337 119.793 311.531 119.516 311.805C119.238 312.079 119.041 312.423 118.945 312.801L110.609 343.887C110.503 344.262 110.502 344.659 110.605 345.035C110.708 345.411 110.911 345.752 111.193 346.021L134.001 368.798C134.267 369.065 134.599 369.256 134.964 369.354C135.328 369.452 135.711 369.452 136.076 369.354L167.219 361.045C167.595 360.949 167.938 360.753 168.211 360.478C168.484 360.204 168.678 359.86 168.772 359.484L177.108 328.397C177.201 328.032 177.196 327.649 177.094 327.287C176.993 326.924 176.797 326.594 176.527 326.331L176.544 326.269ZM136.205 364.724L115.14 343.747L122.803 315.168L151.538 307.545L172.5 328.494L164.819 357.136L136.205 364.724Z" fill="#88A750"/>
</svg>
