<svg width="482" height="417" viewBox="0 0 482 417" fill="none" xmlns="http://www.w3.org/2000/svg">
<path d="M147.519 247.229L125.091 208.936L130.967 205.603L153.365 243.842L147.519 247.229ZM86.7782 129.02L64.3407 90.6807L58.5571 94.0837L80.9228 132.359L86.7782 129.02ZM268.371 177.514L246.029 139.401L240.168 142.761L262.495 180.848L268.371 177.514ZM247.524 237.258L209.078 259.115L212.477 264.936L250.944 243.084L247.524 237.258ZM362.026 170.905L323.606 192.748L327.026 198.574L365.446 176.732L362.026 170.905ZM306.537 257.814L328.879 295.927L334.734 292.588L312.382 254.427L306.537 257.814ZM65.9614 187.905L27.6677 209.692L31.0668 215.513L69.3494 193.767L65.9614 187.905ZM180.915 121.94L142.396 143.823L145.81 149.67L184.308 127.782L180.915 121.94ZM138.461 158.162L115.654 135.386C115.388 135.119 115.055 134.927 114.691 134.83C114.327 134.732 113.943 134.732 113.579 134.829L82.4361 143.139C82.057 143.231 81.7103 143.424 81.4331 143.698C81.1558 143.972 80.9586 144.317 80.8624 144.694L72.5265 175.781C72.4208 176.156 72.4193 176.553 72.5223 176.929C72.6253 177.305 72.8287 177.646 73.1109 177.915L95.918 200.692C96.1847 200.958 96.5169 201.15 96.8811 201.248C97.2453 201.345 97.6288 201.345 97.9931 201.248L129.136 192.938C129.515 192.846 129.862 192.653 130.139 192.379C130.416 192.105 130.614 191.761 130.71 191.383L139.046 160.296C139.151 159.921 139.153 159.524 139.05 159.149C138.947 158.773 138.744 158.432 138.461 158.162ZM98.1433 196.623L77.1815 175.674L84.845 147.095L113.487 139.403L134.428 160.346L126.754 188.967L98.1433 196.623ZM321.204 207.098L298.396 184.322C298.13 184.055 297.798 183.863 297.433 183.766C297.069 183.668 296.686 183.668 296.321 183.765L265.178 192.075C264.799 192.167 264.453 192.36 264.175 192.634C263.898 192.908 263.701 193.253 263.605 193.63L255.269 224.717C255.163 225.092 255.162 225.489 255.265 225.865C255.367 226.241 255.571 226.582 255.853 226.851L278.66 249.628C278.927 249.894 279.259 250.086 279.623 250.184C279.988 250.281 280.371 250.281 280.735 250.184L311.878 241.874C312.254 241.778 312.597 241.583 312.871 241.308C313.144 241.033 313.338 240.689 313.431 240.313L321.767 209.227C321.86 208.862 321.856 208.479 321.754 208.116C321.652 207.754 321.457 207.424 321.187 207.161L321.204 207.098ZM280.865 245.554L259.799 224.577L267.463 195.998L296.197 188.375L317.159 209.324L309.479 237.965L280.865 245.554Z" fill="#88A750"/>
<path d="M147.519 247.229L125.091 208.936L130.967 205.603L153.365 243.842L147.519 247.229ZM86.7782 129.02L64.3407 90.6807L58.5571 94.0837L80.9228 132.359L86.7782 129.02ZM268.371 177.514L246.029 139.401L240.168 142.761L262.495 180.848L268.371 177.514ZM247.524 237.258L209.078 259.115L212.477 264.936L250.944 243.084L247.524 237.258ZM362.026 170.905L323.606 192.748L327.026 198.574L365.446 176.732L362.026 170.905ZM306.537 257.814L328.879 295.927L334.734 292.588L312.382 254.427L306.537 257.814ZM65.9614 187.905L27.6677 209.692L31.0668 215.513L69.3494 193.767L65.9614 187.905ZM180.915 121.94L142.396 143.823L145.81 149.67L184.308 127.782L180.915 121.94ZM138.461 158.162L115.654 135.386C115.388 135.119 115.055 134.927 114.691 134.83C114.327 134.732 113.943 134.732 113.579 134.829L82.4361 143.139C82.057 143.231 81.7103 143.424 81.4331 143.698C81.1558 143.972 80.9586 144.317 80.8624 144.694L72.5265 175.781C72.4208 176.156 72.4193 176.553 72.5223 176.929C72.6253 177.305 72.8287 177.646 73.1109 177.915L95.918 200.692C96.1847 200.958 96.5169 201.15 96.8811 201.248C97.2453 201.345 97.6288 201.345 97.9931 201.248L129.136 192.938C129.515 192.846 129.862 192.653 130.139 192.379C130.416 192.105 130.614 191.761 130.71 191.383L139.046 160.296C139.151 159.921 139.153 159.524 139.05 159.149C138.947 158.773 138.744 158.432 138.461 158.162ZM98.1433 196.623L77.1815 175.674L84.845 147.095L113.487 139.403L134.428 160.346L126.754 188.967L98.1433 196.623ZM321.204 207.098L298.396 184.322C298.13 184.055 297.798 183.863 297.433 183.766C297.069 183.668 296.686 183.668 296.321 183.765L265.178 192.075C264.799 192.167 264.453 192.36 264.175 192.634C263.898 192.908 263.701 193.253 263.605 193.63L255.269 224.717C255.163 225.092 255.162 225.489 255.265 225.865C255.367 226.241 255.571 226.582 255.853 226.851L278.66 249.628C278.927 249.894 279.259 250.086 279.623 250.184C279.988 250.281 280.371 250.281 280.735 250.184L311.878 241.874C312.254 241.778 312.597 241.583 312.871 241.308C313.144 241.033 313.338 240.689 313.431 240.313L321.767 209.227C321.86 208.862 321.856 208.479 321.754 208.116C321.652 207.754 321.457 207.424 321.187 207.161L321.204 207.098ZM280.865 245.554L259.799 224.577L267.463 195.998L296.197 188.375L317.159 209.324L309.479 237.965L280.865 245.554Z" fill="#88A750"/>
<path d="M201.563 64.2169L179.125 25.8778L173.341 29.2808L195.707 67.5562L201.563 64.2169ZM383.155 112.711L360.813 74.5978L354.952 77.9579L377.279 116.045L383.155 112.711ZM476.81 106.102L438.39 127.945L441.81 133.771L480.23 111.929L476.81 106.102ZM421.321 193.011L443.663 231.124L449.519 227.785L427.167 189.624L421.321 193.011ZM295.699 57.1374L257.18 79.0197L260.594 84.8669L299.093 62.9791L295.699 57.1374ZM253.246 93.3595L230.438 70.5827C230.172 70.3163 229.84 70.1245 229.475 70.0269C229.111 69.9292 228.728 69.929 228.363 70.0263L197.22 78.3362C196.841 78.4282 196.495 78.6216 196.217 78.8956C195.94 79.1695 195.743 79.5138 195.647 79.8914L187.311 110.978C187.205 111.353 187.204 111.75 187.307 112.126C187.41 112.502 187.613 112.843 187.895 113.112L210.702 135.889C210.969 136.155 211.301 136.347 211.665 136.445C212.03 136.542 212.413 136.543 212.777 136.445L243.92 128.135C244.299 128.043 244.646 127.85 244.923 127.576C245.201 127.302 245.398 126.958 245.494 126.58L253.83 95.4934C253.936 95.1183 253.937 94.7216 253.834 94.3457C253.731 93.9697 253.528 93.6288 253.246 93.3595ZM212.928 131.82L191.966 110.871L199.629 82.2922L228.271 74.6L249.212 95.5436L241.538 124.164L212.928 131.82ZM435.988 142.296L413.181 119.519C412.914 119.252 412.582 119.061 412.218 118.963C411.853 118.865 411.47 118.865 411.106 118.962L379.963 127.272C379.584 127.364 379.237 127.558 378.96 127.832C378.682 128.106 378.485 128.45 378.389 128.827L370.053 159.914C369.947 160.289 369.946 160.686 370.049 161.062C370.152 161.438 370.355 161.779 370.637 162.048L393.445 184.825C393.711 185.091 394.043 185.283 394.408 185.381C394.772 185.478 395.155 185.479 395.52 185.381L426.663 177.071C427.039 176.976 427.381 176.78 427.655 176.505C427.928 176.23 428.122 175.887 428.216 175.511L436.552 144.424C436.645 144.059 436.64 143.676 436.538 143.313C436.436 142.951 436.241 142.621 435.971 142.358L435.988 142.296ZM395.649 180.751L374.584 159.774L382.247 131.195L410.982 123.572L431.944 144.521L424.263 173.162L395.649 180.751Z" fill="#88A750"/>
<path d="M201.563 64.2169L179.125 25.8778L173.341 29.2808L195.707 67.5562L201.563 64.2169ZM383.155 112.711L360.813 74.5978L354.952 77.9579L377.279 116.045L383.155 112.711ZM476.81 106.102L438.39 127.945L441.81 133.771L480.23 111.929L476.81 106.102ZM421.321 193.011L443.663 231.124L449.519 227.785L427.167 189.624L421.321 193.011ZM295.699 57.1374L257.18 79.0197L260.594 84.8669L299.093 62.9791L295.699 57.1374ZM253.246 93.3595L230.438 70.5827C230.172 70.3163 229.84 70.1245 229.475 70.0269C229.111 69.9292 228.728 69.929 228.363 70.0263L197.22 78.3362C196.841 78.4282 196.495 78.6216 196.217 78.8956C195.94 79.1695 195.743 79.5138 195.647 79.8914L187.311 110.978C187.205 111.353 187.204 111.75 187.307 112.126C187.41 112.502 187.613 112.843 187.895 113.112L210.702 135.889C210.969 136.155 211.301 136.347 211.665 136.445C212.03 136.542 212.413 136.543 212.777 136.445L243.92 128.135C244.299 128.043 244.646 127.85 244.923 127.576C245.201 127.302 245.398 126.958 245.494 126.58L253.83 95.4934C253.936 95.1183 253.937 94.7216 253.834 94.3457C253.731 93.9697 253.528 93.6288 253.246 93.3595ZM212.928 131.82L191.966 110.871L199.629 82.2922L228.271 74.6L249.212 95.5436L241.538 124.164L212.928 131.82ZM435.988 142.296L413.181 119.519C412.914 119.252 412.582 119.061 412.218 118.963C411.853 118.865 411.47 118.865 411.106 118.962L379.963 127.272C379.584 127.364 379.237 127.558 378.96 127.832C378.682 128.106 378.485 128.45 378.389 128.827L370.053 159.914C369.947 160.289 369.946 160.686 370.049 161.062C370.152 161.438 370.355 161.779 370.637 162.048L393.445 184.825C393.711 185.091 394.043 185.283 394.408 185.381C394.772 185.478 395.155 185.479 395.52 185.381L426.663 177.071C427.039 176.976 427.381 176.78 427.655 176.505C427.928 176.23 428.122 175.887 428.216 175.511L436.552 144.424C436.645 144.059 436.64 143.676 436.538 143.313C436.436 142.951 436.241 142.621 435.971 142.358L435.988 142.296ZM395.649 180.751L374.584 159.774L382.247 131.195L410.982 123.572L431.944 144.521L424.263 173.162L395.649 180.751Z" fill="#88A750"/>
<path d="M212.859 366.399L190.431 328.107L196.307 324.773L218.705 363.013L212.859 366.399ZM312.865 356.428L274.419 378.286L277.818 384.107L316.284 362.254L312.865 356.428ZM427.366 290.076L388.946 311.918L392.366 317.745L430.786 295.902L427.366 290.076ZM371.877 376.984L394.219 415.098L400.075 411.758L377.723 373.598L371.877 376.984ZM131.302 307.075L93.008 328.863L96.4071 334.683L134.69 312.937L131.302 307.075ZM203.802 277.333L180.994 254.556C180.728 254.289 180.396 254.098 180.031 254C179.667 253.902 179.284 253.902 178.919 254L147.776 262.309C147.397 262.401 147.051 262.595 146.773 262.869C146.496 263.143 146.299 263.487 146.203 263.865L137.867 294.951C137.761 295.326 137.76 295.723 137.863 296.099C137.966 296.475 138.169 296.816 138.451 297.085L161.258 319.862C161.525 320.128 161.857 320.32 162.221 320.418C162.586 320.516 162.969 320.516 163.333 320.418L194.476 312.108C194.856 312.016 195.202 311.823 195.479 311.549C195.757 311.275 195.954 310.931 196.05 310.553L204.386 279.467C204.492 279.092 204.493 278.695 204.39 278.319C204.287 277.943 204.084 277.602 203.802 277.333ZM163.484 315.794L142.522 294.845L150.185 266.265L178.827 258.573L199.768 279.517L192.094 308.137L163.484 315.794ZM386.544 326.269L363.737 303.492C363.47 303.226 363.138 303.034 362.774 302.936C362.409 302.838 362.026 302.838 361.662 302.936L330.519 311.245C330.14 311.337 329.793 311.531 329.516 311.805C329.238 312.079 329.041 312.423 328.945 312.801L320.609 343.887C320.503 344.262 320.502 344.659 320.605 345.035C320.708 345.411 320.911 345.752 321.193 346.021L344.001 368.798C344.267 369.065 344.599 369.256 344.964 369.354C345.328 369.452 345.711 369.452 346.076 369.354L377.219 361.045C377.595 360.949 377.937 360.753 378.211 360.478C378.484 360.204 378.678 359.86 378.772 359.484L387.108 328.397C387.201 328.032 387.196 327.649 387.094 327.287C386.993 326.924 386.797 326.594 386.527 326.331L386.544 326.269ZM346.205 364.724L325.14 343.747L332.803 315.168L361.538 307.545L382.5 328.494L374.819 357.136L346.205 364.724Z" fill="#88A750"/>
<path d="M212.859 366.399L190.431 328.107L196.307 324.773L218.705 363.013L212.859 366.399ZM312.865 356.428L274.419 378.286L277.818 384.107L316.284 362.254L312.865 356.428ZM427.366 290.076L388.946 311.918L392.366 317.745L430.786 295.902L427.366 290.076ZM371.877 376.984L394.219 415.098L400.075 411.758L377.723 373.598L371.877 376.984ZM131.302 307.075L93.008 328.863L96.4071 334.683L134.69 312.937L131.302 307.075ZM203.802 277.333L180.994 254.556C180.728 254.289 180.396 254.098 180.031 254C179.667 253.902 179.284 253.902 178.919 254L147.776 262.309C147.397 262.401 147.051 262.595 146.773 262.869C146.496 263.143 146.299 263.487 146.203 263.865L137.867 294.951C137.761 295.326 137.76 295.723 137.863 296.099C137.966 296.475 138.169 296.816 138.451 297.085L161.258 319.862C161.525 320.128 161.857 320.32 162.221 320.418C162.586 320.516 162.969 320.516 163.333 320.418L194.476 312.108C194.856 312.016 195.202 311.823 195.479 311.549C195.757 311.275 195.954 310.931 196.05 310.553L204.386 279.467C204.492 279.092 204.493 278.695 204.39 278.319C204.287 277.943 204.084 277.602 203.802 277.333ZM163.484 315.794L142.522 294.845L150.185 266.265L178.827 258.573L199.768 279.517L192.094 308.137L163.484 315.794ZM386.544 326.269L363.737 303.492C363.47 303.226 363.138 303.034 362.774 302.936C362.409 302.838 362.026 302.838 361.662 302.936L330.519 311.245C330.14 311.337 329.793 311.531 329.516 311.805C329.238 312.079 329.041 312.423 328.945 312.801L320.609 343.887C320.503 344.262 320.502 344.659 320.605 345.035C320.708 345.411 320.911 345.752 321.193 346.021L344.001 368.798C344.267 369.065 344.599 369.256 344.964 369.354C345.328 369.452 345.711 369.452 346.076 369.354L377.219 361.045C377.595 360.949 377.937 360.753 378.211 360.478C378.484 360.204 378.678 359.86 378.772 359.484L387.108 328.397C387.201 328.032 387.196 327.649 387.094 327.287C386.993 326.924 386.797 326.594 386.527 326.331L386.544 326.269ZM346.205 364.724L325.14 343.747L332.803 315.168L361.538 307.545L382.5 328.494L374.819 357.136L346.205 364.724Z" fill="#88A750"/>
</svg>
