<svg width="522" height="501" viewBox="0 0 522 501" fill="none" xmlns="http://www.w3.org/2000/svg">
<path d="M159.791 254.742L151.897 211.073L158.562 209.963L166.445 253.573L159.791 254.742ZM143.4 122.856L135.514 79.1391L128.913 80.3459L136.754 123.978L143.4 122.856ZM297.245 230.834L289.371 187.362L282.712 188.502L290.581 231.944L297.245 230.834ZM257.127 279.766L213.509 287.072L214.7 293.706L258.335 286.414L257.127 279.766ZM387.462 256.832L343.874 264.132L345.082 270.779L388.67 263.479L387.462 256.832ZM305.473 319.361L313.347 362.833L319.994 361.71L312.126 318.191L305.473 319.361ZM103.605 170.992L60.1549 178.284L61.3451 184.918L104.771 177.662L103.605 170.992ZM234.231 148.577L190.536 155.88L191.732 162.545L235.409 155.229L234.231 148.577ZM181.911 167.993L168.327 138.762C168.168 138.42 167.922 138.126 167.614 137.909C167.305 137.692 166.945 137.56 166.57 137.526L134.468 134.621C134.081 134.577 133.688 134.639 133.334 134.801C132.979 134.963 132.676 135.219 132.456 135.54L113.939 161.865C113.711 162.181 113.573 162.553 113.54 162.941C113.508 163.33 113.581 163.72 113.754 164.07L127.338 193.3C127.497 193.642 127.743 193.936 128.052 194.153C128.36 194.37 128.72 194.502 129.096 194.536L161.197 197.441C161.585 197.485 161.977 197.423 162.331 197.261C162.686 197.099 162.989 196.844 163.209 196.522L181.726 170.197C181.955 169.881 182.092 169.509 182.125 169.121C182.158 168.733 182.084 168.342 181.911 167.993ZM130.827 190.245L118.347 163.365L135.37 139.164L164.91 141.79L177.373 168.657L160.325 192.893L130.827 190.245ZM336.684 276.781L323.099 247.551C322.94 247.209 322.694 246.915 322.386 246.698C322.078 246.481 321.718 246.349 321.342 246.315L289.241 243.409C288.853 243.365 288.461 243.428 288.106 243.59C287.752 243.752 287.448 244.007 287.228 244.329L268.711 270.653C268.483 270.969 268.345 271.341 268.313 271.73C268.28 272.118 268.354 272.508 268.526 272.858L282.111 302.088C282.27 302.43 282.516 302.725 282.824 302.942C283.132 303.159 283.493 303.291 283.868 303.324L315.97 306.23C316.355 306.269 316.745 306.203 317.096 306.039C317.447 305.875 317.747 305.619 317.964 305.298L336.481 278.973C336.694 278.663 336.822 278.302 336.851 277.926C336.88 277.551 336.809 277.174 336.647 276.834L336.684 276.781ZM285.582 299.021L273.014 272.08L290.037 247.878L319.641 250.601L332.121 277.48L315.061 301.734L285.582 299.021Z" fill="#88A750"/>
<path d="M159.791 254.742L151.897 211.073L158.562 209.963L166.445 253.573L159.791 254.742ZM143.4 122.856L135.514 79.1391L128.913 80.3459L136.754 123.978L143.4 122.856ZM297.245 230.834L289.371 187.362L282.712 188.502L290.581 231.944L297.245 230.834ZM257.127 279.766L213.509 287.072L214.7 293.706L258.335 286.414L257.127 279.766ZM387.462 256.832L343.874 264.132L345.082 270.779L388.67 263.479L387.462 256.832ZM305.473 319.361L313.347 362.833L319.994 361.71L312.126 318.191L305.473 319.361ZM103.605 170.992L60.1549 178.284L61.3451 184.918L104.771 177.662L103.605 170.992ZM234.231 148.577L190.536 155.88L191.732 162.545L235.409 155.229L234.231 148.577ZM181.911 167.993L168.327 138.762C168.168 138.42 167.922 138.126 167.614 137.909C167.305 137.692 166.945 137.56 166.57 137.526L134.468 134.621C134.081 134.577 133.688 134.639 133.334 134.801C132.979 134.963 132.676 135.219 132.456 135.54L113.939 161.865C113.711 162.181 113.573 162.553 113.54 162.941C113.508 163.33 113.581 163.72 113.754 164.07L127.338 193.3C127.497 193.642 127.743 193.936 128.052 194.153C128.36 194.37 128.72 194.502 129.096 194.536L161.197 197.441C161.585 197.485 161.977 197.423 162.331 197.261C162.686 197.099 162.989 196.844 163.209 196.522L181.726 170.197C181.955 169.881 182.092 169.509 182.125 169.121C182.158 168.733 182.084 168.342 181.911 167.993ZM130.827 190.245L118.347 163.365L135.37 139.164L164.91 141.79L177.373 168.657L160.325 192.893L130.827 190.245ZM336.684 276.781L323.099 247.551C322.94 247.209 322.694 246.915 322.386 246.698C322.078 246.481 321.718 246.349 321.342 246.315L289.241 243.409C288.853 243.365 288.461 243.428 288.106 243.59C287.752 243.752 287.448 244.007 287.228 244.329L268.711 270.653C268.483 270.969 268.345 271.341 268.313 271.73C268.28 272.118 268.354 272.508 268.526 272.858L282.111 302.088C282.27 302.43 282.516 302.725 282.824 302.942C283.132 303.159 283.493 303.291 283.868 303.324L315.97 306.23C316.355 306.269 316.745 306.203 317.096 306.039C317.447 305.875 317.747 305.619 317.964 305.298L336.481 278.973C336.694 278.663 336.822 278.302 336.851 277.926C336.88 277.551 336.809 277.174 336.647 276.834L336.684 276.781ZM285.582 299.021L273.014 272.08L290.037 247.878L319.641 250.601L332.121 277.48L315.061 301.734L285.582 299.021Z" fill="#88A750"/>
<path d="M273.468 101.473L265.582 57.7565L258.98 58.9634L266.821 102.595L273.468 101.473ZM427.313 209.452L419.438 165.98L412.779 167.12L420.649 210.562L427.313 209.452ZM517.529 235.449L473.942 242.749L475.15 249.396L518.737 242.096L517.529 235.449ZM435.54 297.978L443.414 341.45L450.061 340.328L442.194 296.808L435.54 297.978ZM364.299 127.194L320.604 134.497L321.799 141.162L365.477 133.847L364.299 127.194ZM311.979 146.61L298.394 117.38C298.235 117.038 297.989 116.744 297.681 116.527C297.373 116.31 297.013 116.178 296.637 116.144L264.536 113.238C264.148 113.194 263.756 113.257 263.401 113.419C263.047 113.581 262.743 113.836 262.523 114.158L244.006 140.482C243.778 140.798 243.64 141.17 243.608 141.559C243.575 141.947 243.649 142.337 243.821 142.687L257.406 171.917C257.565 172.259 257.811 172.554 258.119 172.771C258.427 172.987 258.787 173.12 259.163 173.153L291.265 176.059C291.652 176.103 292.044 176.04 292.399 175.878C292.753 175.717 293.057 175.461 293.277 175.14L311.794 148.815C312.022 148.499 312.16 148.127 312.192 147.738C312.225 147.35 312.151 146.96 311.979 146.61ZM260.894 168.862L248.414 141.983L265.437 117.781L294.978 120.407L307.441 147.274L290.393 171.511L260.894 168.862ZM466.751 255.399L453.167 226.168C453.008 225.826 452.762 225.532 452.453 225.315C452.145 225.098 451.785 224.966 451.41 224.932L419.308 222.027C418.92 221.983 418.528 222.045 418.174 222.207C417.819 222.369 417.516 222.625 417.296 222.946L398.779 249.271C398.55 249.587 398.413 249.959 398.38 250.347C398.347 250.736 398.421 251.126 398.594 251.476L412.178 280.706C412.337 281.048 412.583 281.342 412.891 281.559C413.2 281.776 413.56 281.908 413.935 281.942L446.037 284.847C446.423 284.887 446.812 284.821 447.163 284.657C447.515 284.493 447.815 284.237 448.032 283.916L466.549 257.591C466.762 257.28 466.889 256.919 466.918 256.544C466.947 256.168 466.877 255.791 466.714 255.451L466.751 255.399ZM415.649 277.638L403.081 250.697L420.104 226.496L449.708 229.218L462.188 256.098L445.128 280.352L415.649 277.638Z" fill="#88A750"/>
<path d="M273.468 101.473L265.582 57.7565L258.98 58.9634L266.821 102.595L273.468 101.473ZM427.313 209.452L419.438 165.98L412.779 167.12L420.649 210.562L427.313 209.452ZM517.529 235.449L473.942 242.749L475.15 249.396L518.737 242.096L517.529 235.449ZM435.54 297.978L443.414 341.45L450.061 340.328L442.194 296.808L435.54 297.978ZM364.299 127.194L320.604 134.497L321.799 141.162L365.477 133.847L364.299 127.194ZM311.979 146.61L298.394 117.38C298.235 117.038 297.989 116.744 297.681 116.527C297.373 116.31 297.013 116.178 296.637 116.144L264.536 113.238C264.148 113.194 263.756 113.257 263.401 113.419C263.047 113.581 262.743 113.836 262.523 114.158L244.006 140.482C243.778 140.798 243.64 141.17 243.608 141.559C243.575 141.947 243.649 142.337 243.821 142.687L257.406 171.917C257.565 172.259 257.811 172.554 258.119 172.771C258.427 172.987 258.787 173.12 259.163 173.153L291.265 176.059C291.652 176.103 292.044 176.04 292.399 175.878C292.753 175.717 293.057 175.461 293.277 175.14L311.794 148.815C312.022 148.499 312.16 148.127 312.192 147.738C312.225 147.35 312.151 146.96 311.979 146.61ZM260.894 168.862L248.414 141.983L265.437 117.781L294.978 120.407L307.441 147.274L290.393 171.511L260.894 168.862ZM466.751 255.399L453.167 226.168C453.008 225.826 452.762 225.532 452.453 225.315C452.145 225.098 451.785 224.966 451.41 224.932L419.308 222.027C418.92 221.983 418.528 222.045 418.174 222.207C417.819 222.369 417.516 222.625 417.296 222.946L398.779 249.271C398.55 249.587 398.413 249.959 398.38 250.347C398.347 250.736 398.421 251.126 398.594 251.476L412.178 280.706C412.337 281.048 412.583 281.342 412.891 281.559C413.2 281.776 413.56 281.908 413.935 281.942L446.037 284.847C446.423 284.887 446.812 284.821 447.163 284.657C447.515 284.493 447.815 284.237 448.032 283.916L466.549 257.591C466.762 257.28 466.889 256.919 466.918 256.544C466.947 256.168 466.877 255.791 466.714 255.451L466.751 255.399ZM415.649 277.638L403.081 250.697L420.104 226.496L449.708 229.218L462.188 256.098L445.128 280.352L415.649 277.638Z" fill="#88A750"/>
<path d="M180.17 389.113L172.276 345.444L178.94 344.334L186.823 387.944L180.17 389.113ZM277.506 414.138L233.888 421.443L235.079 428.078L278.714 420.785L277.506 414.138ZM407.841 391.203L364.253 398.503L365.461 405.15L409.049 397.85L407.841 391.203ZM325.852 453.732L333.726 497.204L340.373 496.082L332.505 452.562L325.852 453.732ZM123.984 305.363L80.5338 312.655L81.7241 319.29L125.15 312.033L123.984 305.363ZM202.29 302.364L188.706 273.134C188.547 272.792 188.301 272.497 187.993 272.28C187.684 272.063 187.324 271.931 186.949 271.898L154.847 268.992C154.459 268.948 154.067 269.01 153.713 269.172C153.358 269.334 153.055 269.59 152.835 269.911L134.318 296.236C134.089 296.552 133.952 296.924 133.919 297.312C133.886 297.701 133.96 298.091 134.133 298.441L147.717 327.671C147.876 328.013 148.122 328.307 148.43 328.524C148.739 328.741 149.099 328.873 149.474 328.907L181.576 331.812C181.964 331.856 182.356 331.794 182.71 331.632C183.065 331.47 183.368 331.215 183.588 330.893L202.105 304.568C202.334 304.253 202.471 303.881 202.504 303.492C202.536 303.104 202.463 302.714 202.29 302.364ZM151.206 324.616L138.726 297.736L155.749 273.535L185.289 276.161L197.752 303.028L180.704 327.264L151.206 324.616ZM357.063 411.152L343.478 381.922C343.319 381.58 343.073 381.286 342.765 381.069C342.457 380.852 342.096 380.72 341.721 380.686L309.619 377.781C309.232 377.737 308.84 377.799 308.485 377.961C308.131 378.123 307.827 378.378 307.607 378.7L289.09 405.025C288.862 405.34 288.724 405.713 288.692 406.101C288.659 406.489 288.733 406.879 288.905 407.229L302.49 436.46C302.649 436.802 302.894 437.096 303.203 437.313C303.511 437.53 303.871 437.662 304.247 437.696L336.348 440.601C336.734 440.64 337.124 440.575 337.475 440.411C337.826 440.247 338.126 439.99 338.343 439.669L356.86 413.345C357.073 413.034 357.201 412.673 357.23 412.297C357.259 411.922 357.188 411.545 357.026 411.205L357.063 411.152ZM305.961 433.392L293.393 406.451L310.416 382.25L340.02 384.972L352.5 411.851L335.44 436.105L305.961 433.392Z" fill="#88A750"/>
<path d="M180.17 389.113L172.276 345.444L178.94 344.334L186.823 387.944L180.17 389.113ZM277.506 414.138L233.888 421.443L235.079 428.078L278.714 420.785L277.506 414.138ZM407.841 391.203L364.253 398.503L365.461 405.15L409.049 397.85L407.841 391.203ZM325.852 453.732L333.726 497.204L340.373 496.082L332.505 452.562L325.852 453.732ZM123.984 305.363L80.5338 312.655L81.7241 319.29L125.15 312.033L123.984 305.363ZM202.29 302.364L188.706 273.134C188.547 272.792 188.301 272.497 187.993 272.28C187.684 272.063 187.324 271.931 186.949 271.898L154.847 268.992C154.459 268.948 154.067 269.01 153.713 269.172C153.358 269.334 153.055 269.59 152.835 269.911L134.318 296.236C134.089 296.552 133.952 296.924 133.919 297.312C133.886 297.701 133.96 298.091 134.133 298.441L147.717 327.671C147.876 328.013 148.122 328.307 148.43 328.524C148.739 328.741 149.099 328.873 149.474 328.907L181.576 331.812C181.964 331.856 182.356 331.794 182.71 331.632C183.065 331.47 183.368 331.215 183.588 330.893L202.105 304.568C202.334 304.253 202.471 303.881 202.504 303.492C202.536 303.104 202.463 302.714 202.29 302.364ZM151.206 324.616L138.726 297.736L155.749 273.535L185.289 276.161L197.752 303.028L180.704 327.264L151.206 324.616ZM357.063 411.152L343.478 381.922C343.319 381.58 343.073 381.286 342.765 381.069C342.457 380.852 342.096 380.72 341.721 380.686L309.619 377.781C309.232 377.737 308.84 377.799 308.485 377.961C308.131 378.123 307.827 378.378 307.607 378.7L289.09 405.025C288.862 405.34 288.724 405.713 288.692 406.101C288.659 406.489 288.733 406.879 288.905 407.229L302.49 436.46C302.649 436.802 302.894 437.096 303.203 437.313C303.511 437.53 303.871 437.662 304.247 437.696L336.348 440.601C336.734 440.64 337.124 440.575 337.475 440.411C337.826 440.247 338.126 439.99 338.343 439.669L356.86 413.345C357.073 413.034 357.201 412.673 357.23 412.297C357.259 411.922 357.188 411.545 357.026 411.205L357.063 411.152ZM305.961 433.392L293.393 406.451L310.416 382.25L340.02 384.972L352.5 411.851L335.44 436.105L305.961 433.392Z" fill="#88A750"/>
</svg>
