<svg width="481" height="415" viewBox="0 0 481 415" fill="none" xmlns="http://www.w3.org/2000/svg">
<path d="M303.201 127.377L341.655 149.526L338.203 155.333L299.801 133.215L303.201 127.377ZM414.531 199.96L453.017 222.145L456.355 216.324L417.963 194.159L414.531 199.96ZM232.768 247.812L271.059 269.849L274.486 264.026L236.22 242.005L232.768 247.812ZM221.274 185.589L243.839 147.554L238.003 144.182L215.417 182.222L221.274 185.589ZM154.692 299.957L177.242 261.948L171.384 258.582L148.835 296.59L154.692 299.957ZM159.83 196.973L121.539 174.937L118.107 180.739L156.43 202.811L159.83 196.973ZM403.437 138.497L425.904 100.599L420.068 97.2267L397.589 135.084L403.437 138.497ZM336.27 252.752L358.886 214.66L353.023 211.272L330.428 249.36L336.27 252.752ZM355.199 200.254L386.295 208.738C386.658 208.838 387.042 208.84 387.407 208.744C387.772 208.648 388.105 208.458 388.373 208.193L411.307 185.545C411.591 185.277 411.796 184.937 411.901 184.562C412.006 184.186 412.007 183.79 411.903 183.414L403.741 152.281C403.647 151.903 403.452 151.558 403.176 151.282C402.901 151.007 402.555 150.811 402.176 150.717L371.08 142.233C370.717 142.134 370.333 142.132 369.968 142.228C369.604 142.323 369.27 142.513 369.002 142.778L346.068 165.427C345.784 165.695 345.579 166.034 345.474 166.41C345.369 166.785 345.368 167.182 345.472 167.558L353.634 198.69C353.728 199.069 353.923 199.414 354.199 199.689C354.474 199.965 354.82 200.16 355.199 200.254ZM371.163 146.87L399.751 154.68L407.254 183.302L386.187 204.175L357.62 196.359L350.105 167.696L371.163 146.87ZM172.218 248.292L203.314 256.776C203.678 256.876 204.062 256.878 204.426 256.782C204.791 256.686 205.124 256.497 205.393 256.232L228.327 233.583C228.61 233.315 228.816 232.975 228.921 232.6C229.026 232.224 229.027 231.828 228.923 231.452L220.761 200.319C220.667 199.941 220.472 199.596 220.196 199.32C219.92 199.045 219.575 198.849 219.196 198.755L188.1 190.271C187.736 190.172 187.353 190.17 186.988 190.266C186.623 190.361 186.29 190.551 186.022 190.816L163.088 213.465C162.809 213.734 162.608 214.074 162.506 214.448C162.405 214.823 162.407 215.217 162.512 215.59L170.674 246.723C170.774 247.086 170.968 247.417 171.236 247.681C171.504 247.946 171.837 248.135 172.202 248.23L172.218 248.292ZM188.204 194.902L216.895 202.686L224.399 231.307L203.216 252.166L174.629 244.355L167.109 215.672L188.204 194.902Z" fill="white"/>
<path d="M303.201 127.377L341.655 149.526L338.203 155.333L299.801 133.215L303.201 127.377ZM414.531 199.96L453.017 222.145L456.355 216.324L417.963 194.159L414.531 199.96ZM232.768 247.812L271.059 269.849L274.486 264.026L236.22 242.005L232.768 247.812ZM221.274 185.589L243.839 147.554L238.003 144.182L215.417 182.222L221.274 185.589ZM154.692 299.957L177.242 261.948L171.384 258.582L148.835 296.59L154.692 299.957ZM159.83 196.973L121.539 174.937L118.107 180.739L156.43 202.811L159.83 196.973ZM403.437 138.497L425.904 100.599L420.068 97.2267L397.589 135.084L403.437 138.497ZM336.27 252.752L358.886 214.66L353.023 211.272L330.428 249.36L336.27 252.752ZM355.199 200.254L386.295 208.738C386.658 208.838 387.042 208.84 387.407 208.744C387.772 208.648 388.105 208.458 388.373 208.193L411.307 185.545C411.591 185.277 411.796 184.937 411.901 184.562C412.006 184.186 412.007 183.79 411.903 183.414L403.741 152.281C403.647 151.903 403.452 151.558 403.176 151.282C402.901 151.007 402.555 150.811 402.176 150.717L371.08 142.233C370.717 142.134 370.333 142.132 369.968 142.228C369.604 142.323 369.27 142.513 369.002 142.778L346.068 165.427C345.784 165.695 345.579 166.034 345.474 166.41C345.369 166.785 345.368 167.182 345.472 167.558L353.634 198.69C353.728 199.069 353.923 199.414 354.199 199.689C354.474 199.965 354.82 200.16 355.199 200.254ZM371.163 146.87L399.751 154.68L407.254 183.302L386.187 204.175L357.62 196.359L350.105 167.696L371.163 146.87ZM172.218 248.292L203.314 256.776C203.678 256.876 204.062 256.878 204.426 256.782C204.791 256.686 205.124 256.497 205.393 256.232L228.327 233.583C228.61 233.315 228.816 232.975 228.921 232.6C229.026 232.224 229.027 231.828 228.923 231.452L220.761 200.319C220.667 199.941 220.472 199.596 220.196 199.32C219.92 199.045 219.575 198.849 219.196 198.755L188.1 190.271C187.736 190.172 187.353 190.17 186.988 190.266C186.623 190.361 186.29 190.551 186.022 190.816L163.088 213.465C162.809 213.734 162.608 214.074 162.506 214.448C162.405 214.823 162.407 215.217 162.512 215.59L170.674 246.723C170.774 247.086 170.968 247.417 171.236 247.681C171.504 247.946 171.837 248.135 172.202 248.23L172.218 248.292ZM188.204 194.902L216.895 202.686L224.399 231.307L203.216 252.166L174.629 244.355L167.109 215.672L188.204 194.902Z" fill="white"/>
<path d="M346.936 313.123L385.422 335.307L388.759 329.486L350.367 307.321L346.936 313.123ZM165.173 360.975L203.464 383.011L206.89 377.188L168.625 355.167L165.173 360.975ZM87.097 413.119L109.647 375.11L103.789 371.744L81.2395 409.753L87.097 413.119ZM92.2346 310.135L53.9432 288.099L50.5115 293.901L88.8347 315.973L92.2346 310.135ZM268.675 365.915L291.291 327.822L285.428 324.434L262.832 362.522L268.675 365.915ZM287.603 313.417L318.699 321.901C319.063 322 319.447 322.002 319.811 321.906C320.176 321.811 320.509 321.621 320.777 321.356L343.712 298.707C343.995 298.439 344.201 298.099 344.306 297.724C344.411 297.349 344.412 296.952 344.308 296.576L336.146 265.443C336.052 265.065 335.857 264.72 335.581 264.444C335.305 264.169 334.96 263.974 334.581 263.879L303.485 255.396C303.121 255.296 302.738 255.294 302.373 255.39C302.008 255.485 301.675 255.675 301.407 255.94L278.473 278.589C278.189 278.857 277.984 279.197 277.879 279.572C277.773 279.947 277.773 280.344 277.876 280.72L286.038 311.853C286.132 312.231 286.328 312.576 286.603 312.852C286.879 313.127 287.225 313.322 287.603 313.417ZM303.568 260.032L332.155 267.843L339.659 296.464L318.591 317.337L290.024 309.521L282.51 280.858L303.568 260.032ZM104.623 361.455L135.719 369.939C136.083 370.038 136.466 370.04 136.831 369.944C137.196 369.849 137.529 369.659 137.797 369.394L160.731 346.745C161.015 346.477 161.22 346.137 161.325 345.762C161.43 345.387 161.431 344.99 161.328 344.614L153.166 313.481C153.072 313.103 152.876 312.758 152.601 312.482C152.325 312.207 151.979 312.012 151.601 311.918L120.505 303.434C120.141 303.334 119.757 303.332 119.393 303.428C119.028 303.524 118.695 303.713 118.426 303.978L95.4923 326.627C95.2132 326.897 95.0123 327.237 94.911 327.611C94.8097 327.985 94.8117 328.379 94.9167 328.752L103.079 359.885C103.179 360.248 103.372 360.579 103.64 360.843C103.909 361.108 104.242 361.297 104.607 361.392L104.623 361.455ZM120.608 308.065L149.3 315.848L156.803 344.469L135.621 365.328L107.033 357.518L99.5132 328.834L120.608 308.065Z" fill="white"/>
<path d="M346.936 313.123L385.422 335.307L388.759 329.486L350.367 307.321L346.936 313.123ZM165.173 360.975L203.464 383.011L206.89 377.188L168.625 355.167L165.173 360.975ZM87.097 413.119L109.647 375.11L103.789 371.744L81.2395 409.753L87.097 413.119ZM92.2346 310.135L53.9432 288.099L50.5115 293.901L88.8347 315.973L92.2346 310.135ZM268.675 365.915L291.291 327.822L285.428 324.434L262.832 362.522L268.675 365.915ZM287.603 313.417L318.699 321.901C319.063 322 319.447 322.002 319.811 321.906C320.176 321.811 320.509 321.621 320.777 321.356L343.712 298.707C343.995 298.439 344.201 298.099 344.306 297.724C344.411 297.349 344.412 296.952 344.308 296.576L336.146 265.443C336.052 265.065 335.857 264.72 335.581 264.444C335.305 264.169 334.96 263.974 334.581 263.879L303.485 255.396C303.121 255.296 302.738 255.294 302.373 255.39C302.008 255.485 301.675 255.675 301.407 255.94L278.473 278.589C278.189 278.857 277.984 279.197 277.879 279.572C277.773 279.947 277.773 280.344 277.876 280.72L286.038 311.853C286.132 312.231 286.328 312.576 286.603 312.852C286.879 313.127 287.225 313.322 287.603 313.417ZM303.568 260.032L332.155 267.843L339.659 296.464L318.591 317.337L290.024 309.521L282.51 280.858L303.568 260.032ZM104.623 361.455L135.719 369.939C136.083 370.038 136.466 370.04 136.831 369.944C137.196 369.849 137.529 369.659 137.797 369.394L160.731 346.745C161.015 346.477 161.22 346.137 161.325 345.762C161.43 345.387 161.431 344.99 161.328 344.614L153.166 313.481C153.072 313.103 152.876 312.758 152.601 312.482C152.325 312.207 151.979 312.012 151.601 311.918L120.505 303.434C120.141 303.334 119.757 303.332 119.393 303.428C119.028 303.524 118.695 303.713 118.426 303.978L95.4923 326.627C95.2132 326.897 95.0123 327.237 94.911 327.611C94.8097 327.985 94.8117 328.379 94.9167 328.752L103.079 359.885C103.179 360.248 103.372 360.579 103.64 360.843C103.909 361.108 104.242 361.297 104.607 361.392L104.623 361.455ZM120.608 308.065L149.3 315.848L156.803 344.469L135.621 365.328L107.033 357.518L99.5132 328.834L120.608 308.065Z" fill="white"/>
<path d="M187.398 56.2384L225.853 78.3872L222.4 84.1944L183.999 62.0763L187.398 56.2384ZM105.472 114.45L128.037 76.4148L122.2 73.0428L99.6146 111.083L105.472 114.45ZM38.89 228.818L61.4396 190.809L55.5821 187.443L33.0326 225.451L38.89 228.818ZM44.0277 125.834L5.73624 103.798L2.30463 109.6L40.6278 131.672L44.0277 125.834ZM287.635 67.3583L310.102 29.4597L304.265 26.0877L281.787 63.9448L287.635 67.3583ZM239.396 129.115L270.492 137.599C270.856 137.699 271.24 137.701 271.604 137.605C271.969 137.509 272.302 137.319 272.571 137.054L295.505 114.406C295.788 114.138 295.994 113.798 296.099 113.423C296.204 113.047 296.205 112.651 296.101 112.275L287.939 81.1421C287.845 80.764 287.65 80.4187 287.374 80.1431C287.098 79.8676 286.753 79.6723 286.374 79.5782L255.278 71.0943C254.914 70.9949 254.531 70.993 254.166 71.0886C253.801 71.1842 253.468 71.3741 253.2 71.6391L230.266 94.2881C229.982 94.5557 229.777 94.8955 229.672 95.2708C229.567 95.6462 229.566 96.0429 229.669 96.4186L237.831 127.551C237.925 127.93 238.121 128.275 238.396 128.55C238.672 128.826 239.018 129.021 239.396 129.115ZM255.361 75.7308L283.949 83.5414L291.452 112.163L270.384 133.036L241.817 125.22L234.303 96.5569L255.361 75.7308ZM56.4159 177.153L87.5121 185.637C87.8758 185.737 88.2593 185.739 88.6241 185.643C88.9889 185.547 89.3221 185.358 89.5902 185.093L112.524 162.444C112.808 162.176 113.013 161.836 113.118 161.461C113.224 161.085 113.224 160.689 113.121 160.313L104.959 129.18C104.865 128.802 104.669 128.457 104.394 128.181C104.118 127.906 103.772 127.71 103.394 127.616L72.2976 119.132C71.9339 119.033 71.5504 119.031 71.1856 119.127C70.8209 119.222 70.4877 119.412 70.2195 119.677L47.2854 142.326C47.0063 142.596 46.8054 142.935 46.7041 143.309C46.6028 143.684 46.6047 144.078 46.7098 144.451L54.8718 175.584C54.9716 175.947 55.1653 176.278 55.4335 176.542C55.7017 176.807 56.0349 176.996 56.3996 177.091L56.4159 177.153ZM72.4012 123.763L101.093 131.547L108.596 160.168L87.4139 181.027L58.8262 173.216L51.3063 144.533L72.4012 123.763Z" fill="white"/>
<path d="M187.398 56.2384L225.853 78.3872L222.4 84.1944L183.999 62.0763L187.398 56.2384ZM105.472 114.45L128.037 76.4148L122.2 73.0428L99.6146 111.083L105.472 114.45ZM38.89 228.818L61.4396 190.809L55.5821 187.443L33.0326 225.451L38.89 228.818ZM44.0277 125.834L5.73624 103.798L2.30463 109.6L40.6278 131.672L44.0277 125.834ZM287.635 67.3583L310.102 29.4597L304.265 26.0877L281.787 63.9448L287.635 67.3583ZM239.396 129.115L270.492 137.599C270.856 137.699 271.24 137.701 271.604 137.605C271.969 137.509 272.302 137.319 272.571 137.054L295.505 114.406C295.788 114.138 295.994 113.798 296.099 113.423C296.204 113.047 296.205 112.651 296.101 112.275L287.939 81.1421C287.845 80.764 287.65 80.4187 287.374 80.1431C287.098 79.8676 286.753 79.6723 286.374 79.5782L255.278 71.0943C254.914 70.9949 254.531 70.993 254.166 71.0886C253.801 71.1842 253.468 71.3741 253.2 71.6391L230.266 94.2881C229.982 94.5557 229.777 94.8955 229.672 95.2708C229.567 95.6462 229.566 96.0429 229.669 96.4186L237.831 127.551C237.925 127.93 238.121 128.275 238.396 128.55C238.672 128.826 239.018 129.021 239.396 129.115ZM255.361 75.7308L283.949 83.5414L291.452 112.163L270.384 133.036L241.817 125.22L234.303 96.5569L255.361 75.7308ZM56.4159 177.153L87.5121 185.637C87.8758 185.737 88.2593 185.739 88.6241 185.643C88.9889 185.547 89.3221 185.358 89.5902 185.093L112.524 162.444C112.808 162.176 113.013 161.836 113.118 161.461C113.224 161.085 113.224 160.689 113.121 160.313L104.959 129.18C104.865 128.802 104.669 128.457 104.394 128.181C104.118 127.906 103.772 127.71 103.394 127.616L72.2976 119.132C71.9339 119.033 71.5504 119.031 71.1856 119.127C70.8209 119.222 70.4877 119.412 70.2195 119.677L47.2854 142.326C47.0063 142.596 46.8054 142.935 46.7041 143.309C46.6028 143.684 46.6047 144.078 46.7098 144.451L54.8718 175.584C54.9716 175.947 55.1653 176.278 55.4335 176.542C55.7017 176.807 56.0349 176.996 56.3996 177.091L56.4159 177.153ZM72.4012 123.763L101.093 131.547L108.596 160.168L87.4139 181.027L58.8262 173.216L51.3063 144.533L72.4012 123.763Z" fill="white"/>
</svg>
