<svg width="466" height="282" viewBox="0 0 466 282" fill="none" xmlns="http://www.w3.org/2000/svg">
<g opacity="0.15" clip-path="url(#clip0_307_1372)">
<rect width="412" height="490" transform="translate(465.137 99.5651) rotate(101.63)" fill="white"/>
<path d="M274.663 207.698L299.31 244.601L293.64 248.275L269.027 211.423L274.663 207.698ZM342.268 322.119L366.928 359.069L372.5 355.33L347.917 318.44L342.268 322.119ZM158.132 284.417L182.683 321.147L188.335 317.447L163.801 280.743L158.132 284.417ZM175.419 223.549L212.51 199.462L208.773 193.852L171.662 217.934L175.419 223.549ZM65.03 296.537L102.095 272.468L98.3373 266.853L61.2725 290.923L65.03 296.537ZM115.298 206.508L90.7468 169.778L85.0984 173.457L109.662 210.233L115.298 206.508ZM359.577 262.109L396.519 238.102L392.782 232.491L355.849 256.457L359.577 262.109ZM248.713 334.738L285.875 310.622L282.122 304.986L244.981 329.106L248.713 334.738ZM288.957 296.075L313.067 317.467C313.349 317.718 313.692 317.889 314.061 317.965C314.431 318.041 314.814 318.019 315.171 317.9L345.77 307.768C346.143 307.654 346.478 307.441 346.739 307.151C346.999 306.861 347.176 306.506 347.25 306.123L353.738 274.599C353.821 274.218 353.799 273.822 353.674 273.453C353.549 273.084 353.326 272.756 353.029 272.503L328.918 251.111C328.636 250.861 328.293 250.689 327.924 250.613C327.555 250.537 327.172 250.559 326.814 250.678L296.215 260.81C295.842 260.924 295.507 261.138 295.247 261.427C294.986 261.717 294.809 262.073 294.736 262.455L288.247 293.979C288.164 294.36 288.186 294.756 288.311 295.125C288.436 295.495 288.659 295.823 288.957 296.075ZM326.937 255.304L349.097 274.98L343.132 303.961L314.994 313.329L292.854 293.657L298.828 264.634L326.937 255.304ZM103.647 258L127.757 279.392C128.039 279.643 128.382 279.815 128.752 279.891C129.121 279.967 129.504 279.944 129.862 279.825L160.46 269.694C160.833 269.579 161.168 269.366 161.429 269.076C161.689 268.786 161.866 268.431 161.94 268.048L168.428 236.524C168.511 236.144 168.489 235.747 168.364 235.378C168.24 235.009 168.016 234.681 167.719 234.428L143.608 213.036C143.326 212.786 142.983 212.614 142.614 212.538C142.245 212.462 141.862 212.485 141.504 212.603L110.905 222.735C110.535 222.853 110.205 223.068 109.948 223.359C109.691 223.649 109.518 224.004 109.447 224.385L102.959 255.909C102.887 256.279 102.914 256.661 103.037 257.017C103.16 257.373 103.375 257.69 103.66 257.937L103.647 258ZM141.648 217.233L163.914 236.931L157.949 265.913L129.714 275.217L107.553 255.54L113.531 226.496L141.648 217.233Z" fill="#88A750"/>
<path d="M274.663 207.698L299.31 244.601L293.64 248.275L269.027 211.423L274.663 207.698ZM342.268 322.119L366.928 359.069L372.5 355.33L347.917 318.44L342.268 322.119ZM158.132 284.417L182.683 321.147L188.335 317.447L163.801 280.743L158.132 284.417ZM175.419 223.549L212.51 199.462L208.773 193.852L171.662 217.934L175.419 223.549ZM65.03 296.537L102.095 272.468L98.3373 266.853L61.2725 290.923L65.03 296.537ZM115.298 206.508L90.7468 169.778L85.0984 173.457L109.662 210.233L115.298 206.508ZM359.577 262.109L396.519 238.102L392.782 232.491L355.849 256.457L359.577 262.109ZM248.713 334.738L285.875 310.622L282.122 304.986L244.981 329.106L248.713 334.738ZM288.957 296.075L313.067 317.467C313.349 317.718 313.692 317.889 314.061 317.965C314.431 318.041 314.814 318.019 315.171 317.9L345.77 307.768C346.143 307.654 346.478 307.441 346.739 307.151C346.999 306.861 347.176 306.506 347.25 306.123L353.738 274.599C353.821 274.218 353.799 273.822 353.674 273.453C353.549 273.084 353.326 272.756 353.029 272.503L328.918 251.111C328.636 250.861 328.293 250.689 327.924 250.613C327.555 250.537 327.172 250.559 326.814 250.678L296.215 260.81C295.842 260.924 295.507 261.138 295.247 261.427C294.986 261.717 294.809 262.073 294.736 262.455L288.247 293.979C288.164 294.36 288.186 294.756 288.311 295.125C288.436 295.495 288.659 295.823 288.957 296.075ZM326.937 255.304L349.097 274.98L343.132 303.961L314.994 313.329L292.854 293.657L298.828 264.634L326.937 255.304ZM103.647 258L127.757 279.392C128.039 279.643 128.382 279.815 128.752 279.891C129.121 279.967 129.504 279.944 129.862 279.825L160.46 269.694C160.833 269.579 161.168 269.366 161.429 269.076C161.689 268.786 161.866 268.431 161.94 268.048L168.428 236.524C168.511 236.144 168.489 235.747 168.364 235.378C168.24 235.009 168.016 234.681 167.719 234.428L143.608 213.036C143.326 212.786 142.983 212.614 142.614 212.538C142.245 212.462 141.862 212.485 141.504 212.603L110.905 222.735C110.535 222.853 110.205 223.068 109.948 223.359C109.691 223.649 109.518 224.004 109.447 224.385L102.959 255.909C102.887 256.279 102.914 256.661 103.037 257.017C103.16 257.373 103.375 257.69 103.66 257.937L103.647 258ZM141.648 217.233L163.914 236.931L157.949 265.913L129.714 275.217L107.553 255.54L113.531 226.496L141.648 217.233Z" fill="#88A750"/>
<path d="M231.505 393.578L256.165 430.527L261.737 426.789L237.154 389.899L231.505 393.578ZM47.3688 355.876L71.9197 392.606L77.5723 388.906L53.0382 352.202L47.3688 355.876ZM-45.7331 367.996L-8.66837 343.926L-12.4259 338.312L-49.4906 362.382L-45.7331 367.996ZM4.5345 277.967L-20.0164 241.237L-25.6647 244.916L-1.10143 281.692L4.5345 277.967ZM137.95 406.196L175.112 382.081L171.359 376.445L134.218 400.565L137.95 406.196ZM178.194 367.534L202.304 388.926C202.586 389.176 202.929 389.348 203.298 389.424C203.668 389.5 204.05 389.478 204.408 389.359L235.007 379.227C235.38 379.113 235.715 378.9 235.976 378.61C236.236 378.32 236.413 377.965 236.486 377.582L242.975 346.058C243.058 345.677 243.036 345.281 242.911 344.912C242.786 344.543 242.563 344.214 242.266 343.962L218.155 322.57C217.873 322.319 217.53 322.148 217.161 322.072C216.791 321.996 216.409 322.018 216.051 322.137L185.452 332.269C185.079 332.383 184.744 332.596 184.484 332.886C184.223 333.176 184.046 333.531 183.973 333.914L177.484 365.438C177.401 365.819 177.423 366.215 177.548 366.584C177.673 366.953 177.896 367.282 178.194 367.534ZM216.173 326.762L238.334 346.439L232.369 375.42L204.231 384.788L182.091 365.116L188.065 336.092L216.173 326.762ZM-7.11637 329.459L16.9942 350.851C17.2761 351.101 17.619 351.273 17.9884 351.349C18.3577 351.425 18.7406 351.403 19.0984 351.284L49.6973 341.152C50.0703 341.038 50.405 340.825 50.6656 340.535C50.9262 340.245 51.1028 339.89 51.1765 339.507L57.6648 307.983C57.7482 307.602 57.7263 307.206 57.6013 306.837C57.4764 306.468 57.2532 306.139 56.9556 305.887L32.845 284.495C32.5631 284.245 32.2203 284.073 31.8509 283.997C31.4815 283.921 31.0986 283.943 30.7408 284.062L0.141905 294.194C-0.227704 294.312 -0.558402 294.527 -0.815126 294.817C-1.07188 295.108 -1.24502 295.462 -1.31622 295.843L-7.80454 327.368C-7.87609 327.737 -7.84901 328.119 -7.72593 328.475C-7.60286 328.831 -7.38816 329.149 -7.1034 329.396L-7.11637 329.459ZM30.8846 288.692L53.1505 308.39L47.1855 337.371L18.9504 346.675L-3.21034 326.999L2.76758 297.954L30.8846 288.692Z" fill="#88A750"/>
<path d="M231.505 393.578L256.165 430.527L261.737 426.789L237.154 389.899L231.505 393.578ZM47.3688 355.876L71.9197 392.606L77.5723 388.906L53.0382 352.202L47.3688 355.876ZM-45.7331 367.996L-8.66837 343.926L-12.4259 338.312L-49.4906 362.382L-45.7331 367.996ZM4.5345 277.967L-20.0164 241.237L-25.6647 244.916L-1.10143 281.692L4.5345 277.967ZM137.95 406.196L175.112 382.081L171.359 376.445L134.218 400.565L137.95 406.196ZM178.194 367.534L202.304 388.926C202.586 389.176 202.929 389.348 203.298 389.424C203.668 389.5 204.05 389.478 204.408 389.359L235.007 379.227C235.38 379.113 235.715 378.9 235.976 378.61C236.236 378.32 236.413 377.965 236.486 377.582L242.975 346.058C243.058 345.677 243.036 345.281 242.911 344.912C242.786 344.543 242.563 344.214 242.266 343.962L218.155 322.57C217.873 322.319 217.53 322.148 217.161 322.072C216.791 321.996 216.409 322.018 216.051 322.137L185.452 332.269C185.079 332.383 184.744 332.596 184.484 332.886C184.223 333.176 184.046 333.531 183.973 333.914L177.484 365.438C177.401 365.819 177.423 366.215 177.548 366.584C177.673 366.953 177.896 367.282 178.194 367.534ZM216.173 326.762L238.334 346.439L232.369 375.42L204.231 384.788L182.091 365.116L188.065 336.092L216.173 326.762ZM-7.11637 329.459L16.9942 350.851C17.2761 351.101 17.619 351.273 17.9884 351.349C18.3577 351.425 18.7406 351.403 19.0984 351.284L49.6973 341.152C50.0703 341.038 50.405 340.825 50.6656 340.535C50.9262 340.245 51.1028 339.89 51.1765 339.507L57.6648 307.983C57.7482 307.602 57.7263 307.206 57.6013 306.837C57.4764 306.468 57.2532 306.139 56.9556 305.887L32.845 284.495C32.5631 284.245 32.2203 284.073 31.8509 283.997C31.4815 283.921 31.0986 283.943 30.7408 284.062L0.141905 294.194C-0.227704 294.312 -0.558402 294.527 -0.815126 294.817C-1.07188 295.108 -1.24502 295.462 -1.31622 295.843L-7.80454 327.368C-7.87609 327.737 -7.84901 328.119 -7.72593 328.475C-7.60286 328.831 -7.38816 329.149 -7.1034 329.396L-7.11637 329.459ZM30.8846 288.692L53.1505 308.39L47.1855 337.371L18.9504 346.675L-3.21034 326.999L2.76758 297.954L30.8846 288.692Z" fill="#88A750"/>
<path d="M202.409 92.5879L227.056 129.491L221.387 133.165L196.773 96.313L202.409 92.5879ZM103.166 108.439L140.256 84.352L136.519 78.7416L99.4081 102.824L103.166 108.439ZM-7.22392 181.428L29.8408 157.358L26.0833 151.743L-10.9814 175.813L-7.22392 181.428ZM43.0437 91.3983L18.4928 54.6684L12.8445 58.3472L37.4078 95.1234L43.0437 91.3983ZM287.323 146.999L324.265 122.992L320.529 117.381L283.595 141.347L287.323 146.999ZM216.703 180.965L240.813 202.357C241.095 202.608 241.438 202.779 241.807 202.855C242.177 202.931 242.56 202.909 242.918 202.79L273.516 192.658C273.889 192.544 274.224 192.331 274.485 192.041C274.745 191.751 274.922 191.396 274.996 191.013L281.484 159.489C281.567 159.108 281.545 158.712 281.42 158.343C281.296 157.974 281.072 157.646 280.775 157.393L256.664 136.001C256.382 135.751 256.039 135.579 255.67 135.503C255.301 135.427 254.918 135.449 254.56 135.568L223.961 145.7C223.588 145.814 223.253 146.028 222.993 146.317C222.732 146.607 222.556 146.963 222.482 147.345L215.994 178.869C215.91 179.25 215.932 179.646 216.057 180.015C216.182 180.385 216.405 180.713 216.703 180.965ZM254.683 140.194L276.843 159.87L270.878 188.851L242.74 198.219L220.6 178.547L226.574 149.524L254.683 140.194ZM31.3928 142.89L55.5034 164.282C55.7853 164.533 56.1282 164.705 56.4976 164.781C56.8669 164.857 57.2498 164.834 57.6076 164.716L88.2065 154.584C88.5795 154.469 88.9142 154.256 89.1748 153.966C89.4354 153.676 89.612 153.321 89.6857 152.938L96.174 121.414C96.2574 121.034 96.2355 120.637 96.1106 120.268C95.9856 119.899 95.7624 119.571 95.4648 119.319L71.3542 97.9262C71.0723 97.6759 70.7295 97.5041 70.3601 97.4281C69.9907 97.352 69.6079 97.3745 69.25 97.4931L38.6511 107.625C38.2815 107.743 37.9508 107.958 37.6941 108.249C37.4373 108.539 37.2642 108.894 37.193 109.275L30.7047 140.799C30.6331 141.169 30.6602 141.551 30.7833 141.907C30.9064 142.263 31.1211 142.58 31.4058 142.827L31.3928 142.89ZM69.3938 102.123L91.6597 121.821L85.6947 150.803L57.4596 160.107L35.2989 140.43L41.2768 111.386L69.3938 102.123Z" fill="#88A750"/>
<path d="M202.409 92.5879L227.056 129.491L221.387 133.165L196.773 96.313L202.409 92.5879ZM103.166 108.439L140.256 84.352L136.519 78.7416L99.4081 102.824L103.166 108.439ZM-7.22392 181.428L29.8408 157.358L26.0833 151.743L-10.9814 175.813L-7.22392 181.428ZM43.0437 91.3983L18.4928 54.6684L12.8445 58.3472L37.4078 95.1234L43.0437 91.3983ZM287.323 146.999L324.265 122.992L320.529 117.381L283.595 141.347L287.323 146.999ZM216.703 180.965L240.813 202.357C241.095 202.608 241.438 202.779 241.807 202.855C242.177 202.931 242.56 202.909 242.918 202.79L273.516 192.658C273.889 192.544 274.224 192.331 274.485 192.041C274.745 191.751 274.922 191.396 274.996 191.013L281.484 159.489C281.567 159.108 281.545 158.712 281.42 158.343C281.296 157.974 281.072 157.646 280.775 157.393L256.664 136.001C256.382 135.751 256.039 135.579 255.67 135.503C255.301 135.427 254.918 135.449 254.56 135.568L223.961 145.7C223.588 145.814 223.253 146.028 222.993 146.317C222.732 146.607 222.556 146.963 222.482 147.345L215.994 178.869C215.91 179.25 215.932 179.646 216.057 180.015C216.182 180.385 216.405 180.713 216.703 180.965ZM254.683 140.194L276.843 159.87L270.878 188.851L242.74 198.219L220.6 178.547L226.574 149.524L254.683 140.194ZM31.3928 142.89L55.5034 164.282C55.7853 164.533 56.1282 164.705 56.4976 164.781C56.8669 164.857 57.2498 164.834 57.6076 164.716L88.2065 154.584C88.5795 154.469 88.9142 154.256 89.1748 153.966C89.4354 153.676 89.612 153.321 89.6857 152.938L96.174 121.414C96.2574 121.034 96.2355 120.637 96.1106 120.268C95.9856 119.899 95.7624 119.571 95.4648 119.319L71.3542 97.9262C71.0723 97.6759 70.7295 97.5041 70.3601 97.4281C69.9907 97.352 69.6079 97.3745 69.25 97.4931L38.6511 107.625C38.2815 107.743 37.9508 107.958 37.6941 108.249C37.4373 108.539 37.2642 108.894 37.193 109.275L30.7047 140.799C30.6331 141.169 30.6602 141.551 30.7833 141.907C30.9064 142.263 31.1211 142.58 31.4058 142.827L31.3928 142.89ZM69.3938 102.123L91.6597 121.821L85.6947 150.803L57.4596 160.107L35.2989 140.43L41.2768 111.386L69.3938 102.123Z" fill="#88A750"/>
</g>
<defs>
<clipPath id="clip0_307_1372">
<rect width="412" height="490" fill="white" transform="translate(465.137 99.5651) rotate(101.63)"/>
</clipPath>
</defs>
</svg>
