<svg width="364" height="405" viewBox="0 0 364 405" fill="none" xmlns="http://www.w3.org/2000/svg">
<g opacity="0.15" clip-path="url(#clip0_72_186)">
<path d="M-56.1179 314.295L-64.0114 270.626L-57.3472 269.516L-49.4642 313.125L-56.1179 314.295ZM-72.5083 182.408L-80.3946 138.691L-86.9956 139.898L-79.1549 183.53L-72.5083 182.408ZM81.3367 290.387L73.4622 246.915L66.8033 248.055L74.6725 291.497L81.3367 290.387ZM41.2181 339.319L-2.39936 346.624L-1.20907 353.259L42.426 345.966L41.2181 339.319ZM171.553 316.384L127.966 323.684L129.173 330.331L172.761 323.031L171.553 316.384ZM89.5639 378.913L97.4383 422.385L104.085 421.263L96.2176 377.743L89.5639 378.913ZM-112.304 230.544L-155.754 237.836L-154.564 244.471L-111.138 237.214L-112.304 230.544ZM18.3226 208.129L-25.3722 215.432L-24.1767 222.097L19.5005 214.782L18.3226 208.129ZM-33.9973 227.545L-47.5819 198.315C-47.7407 197.973 -47.9867 197.679 -48.2951 197.462C-48.6036 197.245 -48.9636 197.113 -49.3391 197.079L-81.4406 194.173C-81.8282 194.129 -82.2203 194.192 -82.5748 194.354C-82.9293 194.516 -83.2329 194.771 -83.453 195.093L-101.97 221.417C-102.198 221.733 -102.336 222.105 -102.369 222.494C-102.401 222.882 -102.327 223.272 -102.155 223.622L-88.5703 252.852C-88.4116 253.194 -88.1656 253.489 -87.8572 253.705C-87.5487 253.922 -87.1886 254.054 -86.8132 254.088L-54.7116 256.994C-54.3241 257.038 -53.932 256.975 -53.5775 256.813C-53.223 256.651 -52.9194 256.396 -52.6992 256.075L-34.1823 229.75C-33.9541 229.434 -33.8163 229.062 -33.7837 228.673C-33.7511 228.285 -33.825 227.895 -33.9973 227.545ZM-85.0818 249.797L-97.5621 222.918L-80.5388 198.716L-50.9983 201.342L-38.5356 228.209L-55.5836 252.445L-85.0818 249.797ZM120.775 336.334L107.191 307.103C107.032 306.761 106.786 306.467 106.477 306.25C106.169 306.033 105.809 305.901 105.433 305.867L73.3318 302.962C72.9443 302.918 72.5522 302.98 72.1977 303.142C71.8431 303.304 71.5395 303.56 71.3194 303.881L52.8025 330.206C52.5743 330.522 52.4365 330.894 52.4039 331.282C52.3713 331.671 52.4452 332.061 52.6175 332.411L66.2022 361.641C66.3609 361.983 66.6069 362.277 66.9153 362.494C67.2237 362.711 67.5838 362.843 67.9593 362.877L100.061 365.782C100.447 365.822 100.836 365.756 101.187 365.592C101.538 365.428 101.839 365.172 102.056 364.851L120.573 338.526C120.786 338.215 120.913 337.854 120.942 337.479C120.971 337.103 120.901 336.726 120.738 336.386L120.775 336.334ZM69.6731 358.573L57.105 331.632L74.1282 307.431L103.732 310.153L116.212 337.033L99.1519 361.287L69.6731 358.573Z" fill="#88A750"/>
<path d="M-56.1179 314.295L-64.0114 270.626L-57.3472 269.516L-49.4642 313.125L-56.1179 314.295ZM-72.5083 182.408L-80.3946 138.691L-86.9956 139.898L-79.1549 183.53L-72.5083 182.408ZM81.3367 290.387L73.4622 246.915L66.8033 248.055L74.6725 291.497L81.3367 290.387ZM41.2181 339.319L-2.39936 346.624L-1.20907 353.259L42.426 345.966L41.2181 339.319ZM171.553 316.384L127.966 323.684L129.173 330.331L172.761 323.031L171.553 316.384ZM89.5639 378.913L97.4383 422.385L104.085 421.263L96.2176 377.743L89.5639 378.913ZM-112.304 230.544L-155.754 237.836L-154.564 244.471L-111.138 237.214L-112.304 230.544ZM18.3226 208.129L-25.3722 215.432L-24.1767 222.097L19.5005 214.782L18.3226 208.129ZM-33.9973 227.545L-47.5819 198.315C-47.7407 197.973 -47.9867 197.679 -48.2951 197.462C-48.6036 197.245 -48.9636 197.113 -49.3391 197.079L-81.4406 194.173C-81.8282 194.129 -82.2203 194.192 -82.5748 194.354C-82.9293 194.516 -83.2329 194.771 -83.453 195.093L-101.97 221.417C-102.198 221.733 -102.336 222.105 -102.369 222.494C-102.401 222.882 -102.327 223.272 -102.155 223.622L-88.5703 252.852C-88.4116 253.194 -88.1656 253.489 -87.8572 253.705C-87.5487 253.922 -87.1886 254.054 -86.8132 254.088L-54.7116 256.994C-54.3241 257.038 -53.932 256.975 -53.5775 256.813C-53.223 256.651 -52.9194 256.396 -52.6992 256.075L-34.1823 229.75C-33.9541 229.434 -33.8163 229.062 -33.7837 228.673C-33.7511 228.285 -33.825 227.895 -33.9973 227.545ZM-85.0818 249.797L-97.5621 222.918L-80.5388 198.716L-50.9983 201.342L-38.5356 228.209L-55.5836 252.445L-85.0818 249.797ZM120.775 336.334L107.191 307.103C107.032 306.761 106.786 306.467 106.477 306.25C106.169 306.033 105.809 305.901 105.433 305.867L73.3318 302.962C72.9443 302.918 72.5522 302.98 72.1977 303.142C71.8431 303.304 71.5395 303.56 71.3194 303.881L52.8025 330.206C52.5743 330.522 52.4365 330.894 52.4039 331.282C52.3713 331.671 52.4452 332.061 52.6175 332.411L66.2022 361.641C66.3609 361.983 66.6069 362.277 66.9153 362.494C67.2237 362.711 67.5838 362.843 67.9593 362.877L100.061 365.782C100.447 365.822 100.836 365.756 101.187 365.592C101.538 365.428 101.839 365.172 102.056 364.851L120.573 338.526C120.786 338.215 120.913 337.854 120.942 337.479C120.971 337.103 120.901 336.726 120.738 336.386L120.775 336.334ZM69.6731 358.573L57.105 331.632L74.1282 307.431L103.732 310.153L116.212 337.033L99.1519 361.287L69.6731 358.573Z" fill="#88A750"/>
<path d="M57.5592 161.026L49.6728 117.309L43.0718 118.516L50.9126 162.148L57.5592 161.026ZM211.404 269.004L203.53 225.532L196.871 226.672L204.74 270.114L211.404 269.004ZM301.621 295.002L258.033 302.301L259.241 308.949L302.828 301.649L301.621 295.002ZM219.631 357.531L227.506 401.003L234.152 399.88L226.285 356.361L219.631 357.531ZM148.39 186.747L104.695 194.05L105.891 200.715L149.568 193.399L148.39 186.747ZM96.0701 206.163L82.4855 176.932C82.3267 176.59 82.0808 176.296 81.7723 176.079C81.4639 175.862 81.1038 175.73 80.7284 175.696L48.6268 172.791C48.2393 172.747 47.8472 172.809 47.4927 172.971C47.1381 173.133 46.8345 173.389 46.6144 173.71L28.0975 200.035C27.8693 200.351 27.7315 200.723 27.6989 201.111C27.6663 201.5 27.7402 201.89 27.9125 202.24L41.4971 231.47C41.6559 231.812 41.9019 232.106 42.2103 232.323C42.5187 232.54 42.8788 232.672 43.2543 232.706L75.3558 235.611C75.7434 235.655 76.1354 235.593 76.49 235.431C76.8445 235.269 77.1481 235.014 77.3682 234.692L95.8851 208.367C96.1134 208.051 96.2511 207.679 96.2837 207.291C96.3163 206.902 96.2425 206.512 96.0701 206.163ZM44.9857 228.415L32.5054 201.535L49.5286 177.334L79.0692 179.959L91.5318 206.827L74.4839 231.063L44.9857 228.415ZM250.843 314.951L237.258 285.721C237.099 285.379 236.853 285.085 236.545 284.868C236.236 284.651 235.876 284.519 235.501 284.485L203.399 281.579C203.012 281.535 202.62 281.598 202.265 281.76C201.911 281.922 201.607 282.177 201.387 282.499L182.87 308.823C182.642 309.139 182.504 309.511 182.471 309.9C182.439 310.288 182.513 310.678 182.685 311.028L196.27 340.258C196.428 340.6 196.674 340.895 196.983 341.112C197.291 341.328 197.651 341.46 198.027 341.494L230.128 344.4C230.514 344.439 230.903 344.373 231.255 344.209C231.606 344.045 231.906 343.789 232.123 343.468L250.64 317.143C250.853 316.833 250.98 316.472 251.01 316.096C251.039 315.72 250.968 315.344 250.806 315.004L250.843 314.951ZM199.741 337.191L187.172 310.25L204.196 286.048L233.799 288.771L246.28 315.65L229.219 339.904L199.741 337.191Z" fill="#88A750"/>
<path d="M57.5592 161.026L49.6728 117.309L43.0718 118.516L50.9126 162.148L57.5592 161.026ZM211.404 269.004L203.53 225.532L196.871 226.672L204.74 270.114L211.404 269.004ZM301.621 295.002L258.033 302.301L259.241 308.949L302.828 301.649L301.621 295.002ZM219.631 357.531L227.506 401.003L234.152 399.88L226.285 356.361L219.631 357.531ZM148.39 186.747L104.695 194.05L105.891 200.715L149.568 193.399L148.39 186.747ZM96.0701 206.163L82.4855 176.932C82.3267 176.59 82.0808 176.296 81.7723 176.079C81.4639 175.862 81.1038 175.73 80.7284 175.696L48.6268 172.791C48.2393 172.747 47.8472 172.809 47.4927 172.971C47.1381 173.133 46.8345 173.389 46.6144 173.71L28.0975 200.035C27.8693 200.351 27.7315 200.723 27.6989 201.111C27.6663 201.5 27.7402 201.89 27.9125 202.24L41.4971 231.47C41.6559 231.812 41.9019 232.106 42.2103 232.323C42.5187 232.54 42.8788 232.672 43.2543 232.706L75.3558 235.611C75.7434 235.655 76.1354 235.593 76.49 235.431C76.8445 235.269 77.1481 235.014 77.3682 234.692L95.8851 208.367C96.1134 208.051 96.2511 207.679 96.2837 207.291C96.3163 206.902 96.2425 206.512 96.0701 206.163ZM44.9857 228.415L32.5054 201.535L49.5286 177.334L79.0692 179.959L91.5318 206.827L74.4839 231.063L44.9857 228.415ZM250.843 314.951L237.258 285.721C237.099 285.379 236.853 285.085 236.545 284.868C236.236 284.651 235.876 284.519 235.501 284.485L203.399 281.579C203.012 281.535 202.62 281.598 202.265 281.76C201.911 281.922 201.607 282.177 201.387 282.499L182.87 308.823C182.642 309.139 182.504 309.511 182.471 309.9C182.439 310.288 182.513 310.678 182.685 311.028L196.27 340.258C196.428 340.6 196.674 340.895 196.983 341.112C197.291 341.328 197.651 341.46 198.027 341.494L230.128 344.4C230.514 344.439 230.903 344.373 231.255 344.209C231.606 344.045 231.906 343.789 232.123 343.468L250.64 317.143C250.853 316.833 250.98 316.472 251.01 316.096C251.039 315.72 250.968 315.344 250.806 315.004L250.843 314.951ZM199.741 337.191L187.172 310.25L204.196 286.048L233.799 288.771L246.28 315.65L229.219 339.904L199.741 337.191Z" fill="#88A750"/>
<path d="M-35.739 448.666L-43.6324 404.997L-36.9682 403.887L-29.0852 447.496L-35.739 448.666ZM61.597 473.69L17.9796 480.995L19.1699 487.63L62.8049 480.337L61.597 473.69ZM191.932 450.755L148.345 458.055L149.552 464.702L193.14 457.403L191.932 450.755ZM109.943 513.284L117.817 556.756L124.464 555.634L116.597 512.115L109.943 513.284ZM-91.9246 364.916L-135.375 372.207L-134.185 378.842L-90.759 371.586L-91.9246 364.916ZM-13.6184 361.916L-27.203 332.686C-27.3618 332.344 -27.6077 332.05 -27.9162 331.833C-28.2246 331.616 -28.5847 331.484 -28.9602 331.45L-61.0617 328.545C-61.4492 328.501 -61.8413 328.563 -62.1959 328.725C-62.5504 328.887 -62.854 329.142 -63.0741 329.464L-81.591 355.789C-81.8192 356.104 -81.957 356.477 -81.9896 356.865C-82.0222 357.253 -81.9483 357.643 -81.776 357.993L-68.1914 387.224C-68.0326 387.566 -67.7867 387.86 -67.4782 388.077C-67.1698 388.294 -66.8097 388.426 -66.4342 388.46L-34.3327 391.365C-33.9452 391.409 -33.5531 391.347 -33.1985 391.185C-32.844 391.023 -32.5404 390.767 -32.3203 390.446L-13.8034 364.121C-13.5752 363.805 -13.4374 363.433 -13.4048 363.045C-13.3722 362.656 -13.446 362.266 -13.6184 361.916ZM-64.7029 384.168L-77.1831 357.289L-60.1599 333.088L-30.6193 335.713L-18.1567 362.58L-35.2046 386.817L-64.7029 384.168ZM141.154 470.705L127.569 441.475C127.411 441.133 127.165 440.838 126.856 440.621C126.548 440.404 126.188 440.272 125.812 440.239L93.7108 437.333C93.3232 437.289 92.9311 437.351 92.5766 437.513C92.2221 437.675 91.9185 437.931 91.6984 438.252L73.1815 464.577C72.9532 464.893 72.8154 465.265 72.7828 465.653C72.7503 466.042 72.8241 466.432 72.9965 466.782L86.5811 496.012C86.7399 496.354 86.9858 496.648 87.2942 496.865C87.6027 497.082 87.9628 497.214 88.3383 497.248L120.44 500.154C120.826 500.193 121.215 500.127 121.566 499.963C121.917 499.799 122.217 499.543 122.435 499.222L140.952 472.897C141.165 472.587 141.292 472.225 141.321 471.85C141.35 471.474 141.28 471.097 141.117 470.757L141.154 470.705ZM90.052 492.945L77.4839 466.003L94.5072 441.802L124.111 444.524L136.591 471.404L119.531 495.658L90.052 492.945Z" fill="#88A750"/>
<path d="M-35.739 448.666L-43.6324 404.997L-36.9682 403.887L-29.0852 447.496L-35.739 448.666ZM61.597 473.69L17.9796 480.995L19.1699 487.63L62.8049 480.337L61.597 473.69ZM191.932 450.755L148.345 458.055L149.552 464.702L193.14 457.403L191.932 450.755ZM109.943 513.284L117.817 556.756L124.464 555.634L116.597 512.115L109.943 513.284ZM-91.9246 364.916L-135.375 372.207L-134.185 378.842L-90.759 371.586L-91.9246 364.916ZM-13.6184 361.916L-27.203 332.686C-27.3618 332.344 -27.6077 332.05 -27.9162 331.833C-28.2246 331.616 -28.5847 331.484 -28.9602 331.45L-61.0617 328.545C-61.4492 328.501 -61.8413 328.563 -62.1959 328.725C-62.5504 328.887 -62.854 329.142 -63.0741 329.464L-81.591 355.789C-81.8192 356.104 -81.957 356.477 -81.9896 356.865C-82.0222 357.253 -81.9483 357.643 -81.776 357.993L-68.1914 387.224C-68.0326 387.566 -67.7867 387.86 -67.4782 388.077C-67.1698 388.294 -66.8097 388.426 -66.4342 388.46L-34.3327 391.365C-33.9452 391.409 -33.5531 391.347 -33.1985 391.185C-32.844 391.023 -32.5404 390.767 -32.3203 390.446L-13.8034 364.121C-13.5752 363.805 -13.4374 363.433 -13.4048 363.045C-13.3722 362.656 -13.446 362.266 -13.6184 361.916ZM-64.7029 384.168L-77.1831 357.289L-60.1599 333.088L-30.6193 335.713L-18.1567 362.58L-35.2046 386.817L-64.7029 384.168ZM141.154 470.705L127.569 441.475C127.411 441.133 127.165 440.838 126.856 440.621C126.548 440.404 126.188 440.272 125.812 440.239L93.7108 437.333C93.3232 437.289 92.9311 437.351 92.5766 437.513C92.2221 437.675 91.9185 437.931 91.6984 438.252L73.1815 464.577C72.9532 464.893 72.8154 465.265 72.7828 465.653C72.7503 466.042 72.8241 466.432 72.9965 466.782L86.5811 496.012C86.7399 496.354 86.9858 496.648 87.2942 496.865C87.6027 497.082 87.9628 497.214 88.3383 497.248L120.44 500.154C120.826 500.193 121.215 500.127 121.566 499.963C121.917 499.799 122.217 499.543 122.435 499.222L140.952 472.897C141.165 472.587 141.292 472.225 141.321 471.85C141.35 471.474 141.28 471.097 141.117 470.757L141.154 470.705ZM90.052 492.945L77.4839 466.003L94.5072 441.802L124.111 444.524L136.591 471.404L119.531 495.658L90.052 492.945Z" fill="#88A750"/>
</g>
<defs>
<clipPath id="clip0_72_186">
<rect width="412" height="490" fill="white" transform="translate(-273.909 337.537) rotate(-54.8774)"/>
</clipPath>
</defs>
</svg>
