<svg width="66" height="73" viewBox="0 0 66 73" fill="none" xmlns="http://www.w3.org/2000/svg">
<path d="M0.714361 69.034L1.30236 67.704C1.72236 67.9933 2.17969 68.2173 2.67436 68.376C3.17836 68.5253 3.67769 68.6047 4.17236 68.614C4.66703 68.6233 5.11503 68.5673 5.51636 68.446C5.92703 68.3247 6.25369 68.1427 6.49636 67.9C6.73903 67.6573 6.86036 67.354 6.86036 66.99C6.86036 66.5513 6.67836 66.2247 6.31436 66.01C5.95969 65.786 5.47436 65.674 4.85836 65.674H2.57636V64.246H4.71836C5.26903 64.246 5.69369 64.134 5.99236 63.91C6.30036 63.686 6.45436 63.3827 6.45436 63C6.45436 62.6827 6.35169 62.4213 6.14636 62.216C5.95036 62.0107 5.67969 61.8567 5.33436 61.754C4.99836 61.6513 4.61569 61.6047 4.18636 61.614C3.76636 61.614 3.32769 61.6793 2.87036 61.81C2.41303 61.9313 1.97903 62.1133 1.56836 62.356L0.994361 60.886C1.61036 60.5593 2.25436 60.3307 2.92636 60.2C3.60769 60.0693 4.26569 60.032 4.90036 60.088C5.53503 60.144 6.10436 60.2887 6.60836 60.522C7.12169 60.7553 7.53236 61.0633 7.84036 61.446C8.14836 61.8193 8.30236 62.2627 8.30236 62.776C8.30236 63.2427 8.17636 63.658 7.92436 64.022C7.68169 64.3767 7.34569 64.652 6.91636 64.848C6.48703 65.044 5.98769 65.142 5.41836 65.142L5.48836 64.694C6.13236 64.694 6.69236 64.806 7.16836 65.03C7.65369 65.2447 8.02703 65.5433 8.28836 65.926C8.55903 66.3087 8.69436 66.752 8.69436 67.256C8.69436 67.732 8.57303 68.1567 8.33036 68.53C8.08769 68.894 7.75636 69.202 7.33636 69.454C6.91636 69.6967 6.43569 69.8787 5.89436 70C5.35303 70.112 4.78369 70.154 4.18636 70.126C3.58903 70.098 2.99169 69.9953 2.39436 69.818C1.80636 69.6407 1.24636 69.3793 0.714361 69.034ZM15.5322 70V68.488L15.4342 68.166V65.52C15.4342 65.0067 15.2802 64.61 14.9722 64.33C14.6642 64.0407 14.1975 63.896 13.5722 63.896C13.1522 63.896 12.7368 63.9613 12.3262 64.092C11.9248 64.2227 11.5842 64.4047 11.3042 64.638L10.6182 63.364C11.0195 63.056 11.4955 62.8273 12.0462 62.678C12.6062 62.5193 13.1848 62.44 13.7822 62.44C14.8648 62.44 15.7002 62.7013 16.2882 63.224C16.8855 63.7373 17.1842 64.5353 17.1842 65.618V70H15.5322ZM13.1802 70.098C12.6202 70.098 12.1302 70.0047 11.7102 69.818C11.2902 69.622 10.9635 69.356 10.7302 69.02C10.5062 68.6747 10.3942 68.2873 10.3942 67.858C10.3942 67.438 10.4922 67.06 10.6882 66.724C10.8935 66.388 11.2248 66.122 11.6822 65.926C12.1395 65.73 12.7462 65.632 13.5022 65.632H15.6722V66.794H13.6282C13.0308 66.794 12.6295 66.892 12.4242 67.088C12.2188 67.2747 12.1162 67.508 12.1162 67.788C12.1162 68.1053 12.2422 68.3573 12.4942 68.544C12.7462 68.7307 13.0962 68.824 13.5442 68.824C13.9735 68.824 14.3562 68.726 14.6922 68.53C15.0375 68.334 15.2848 68.0447 15.4342 67.662L15.7282 68.712C15.5602 69.1507 15.2568 69.4913 14.8182 69.734C14.3888 69.9767 13.8428 70.098 13.1802 70.098ZM25.1317 70L22.4297 66.416L23.8577 65.534L27.1897 70H25.1317ZM19.7697 70V62.524H21.5197V70H19.7697ZM21.0017 67.004V65.548H23.5357V67.004H21.0017ZM24.0257 66.472L22.3877 66.276L25.1317 62.524H27.0077L24.0257 66.472ZM32.988 70.098C32.3813 70.098 31.826 69.958 31.322 69.678C30.8273 69.398 30.4306 68.978 30.132 68.418C29.8426 67.8487 29.698 67.13 29.698 66.262C29.698 65.3847 29.838 64.666 30.118 64.106C30.4073 63.546 30.7993 63.1307 31.294 62.86C31.7886 62.58 32.3533 62.44 32.988 62.44C33.7253 62.44 34.374 62.5987 34.934 62.916C35.5033 63.2333 35.9513 63.6767 36.278 64.246C36.614 64.8153 36.782 65.4873 36.782 66.262C36.782 67.0367 36.614 67.7133 36.278 68.292C35.9513 68.8613 35.5033 69.3047 34.934 69.622C34.374 69.9393 33.7253 70.098 32.988 70.098ZM28.844 72.716V62.524H30.51V64.288L30.454 66.276L30.594 68.264V72.716H28.844ZM32.792 68.6C33.212 68.6 33.5853 68.5067 33.912 68.32C34.248 68.1333 34.514 67.8627 34.71 67.508C34.906 67.1533 35.004 66.738 35.004 66.262C35.004 65.7767 34.906 65.3613 34.71 65.016C34.514 64.6613 34.248 64.3907 33.912 64.204C33.5853 64.0173 33.212 63.924 32.792 63.924C32.372 63.924 31.994 64.0173 31.658 64.204C31.322 64.3907 31.056 64.6613 30.86 65.016C30.664 65.3613 30.566 65.7767 30.566 66.262C30.566 66.738 30.664 67.1533 30.86 67.508C31.056 67.8627 31.322 68.1333 31.658 68.32C31.994 68.5067 32.372 68.6 32.792 68.6ZM46.4897 70V62.524H48.2397V70H46.4897ZM42.5837 64.988C43.545 64.988 44.273 65.2027 44.7677 65.632C45.2717 66.0613 45.5237 66.668 45.5237 67.452C45.5237 68.264 45.2437 68.8987 44.6837 69.356C44.133 69.804 43.349 70.0233 42.3317 70.014L38.9437 70V62.524H40.6937V64.974L42.5837 64.988ZM42.1777 68.726C42.691 68.7353 43.083 68.628 43.3537 68.404C43.6243 68.18 43.7597 67.8533 43.7597 67.424C43.7597 66.9947 43.6243 66.6867 43.3537 66.5C43.0923 66.304 42.7003 66.2013 42.1777 66.192L40.6937 66.178V68.712L42.1777 68.726ZM52.5661 70V63.588L52.9721 64.008H49.9341V62.524H56.9341V64.008H53.9101L54.3161 63.588V70H52.5661ZM62.3755 64.988C63.3368 64.988 64.0695 65.2027 64.5735 65.632C65.0775 66.0613 65.3295 66.668 65.3295 67.452C65.3295 68.264 65.0495 68.8987 64.4895 69.356C63.9295 69.804 63.1408 70.0233 62.1235 70.014L58.6235 70V62.524H60.3735V64.974L62.3755 64.988ZM61.9695 68.726C62.4828 68.7353 62.8748 68.628 63.1455 68.404C63.4162 68.18 63.5515 67.8533 63.5515 67.424C63.5515 66.9947 63.4162 66.6867 63.1455 66.5C62.8842 66.304 62.4922 66.2013 61.9695 66.192L60.3735 66.178V68.712L61.9695 68.726Z" fill="#3D5A08"/>
<g clip-path="url(#clip0_535_2919)">
<path d="M42.0161 20.96C43.8293 22.7996 46.6416 19.9482 44.8281 18.1075C41.3541 14.5857 37.8847 11.0658 34.4118 7.54367C33.6476 6.7686 32.3645 6.7686 31.6002 7.54367C28.1284 11.0695 24.6555 14.5942 21.1821 18.1197C19.3631 19.9579 22.1772 22.807 23.9926 20.9678C26.9987 17.9203 30.0022 14.8712 33.0079 11.8221C36.0068 14.8675 39.0129 17.9121 42.0157 20.9597L42.0161 20.96ZM36.7282 21.7941C36.7282 23.8822 35.0586 25.5724 33.0008 25.5724C30.9439 25.5724 29.2802 23.8818 29.2802 21.7941C29.2802 19.7071 30.9436 18.0194 33.0008 18.0194C35.0586 18.0194 36.7282 19.7067 36.7282 21.7941ZM36.7282 33.5095C36.7282 35.5964 35.0586 37.2878 33.0008 37.2878C30.9439 37.2878 29.2802 35.5961 29.2802 33.5095C29.2802 31.4213 30.9436 29.7336 33.0008 29.7336C35.0586 29.734 36.7282 31.4213 36.7282 33.5095ZM36.7282 45.222C36.7282 47.3101 35.0586 49 33.0008 49C30.9439 49 29.2802 47.3101 29.2802 45.222C29.2802 43.1364 30.9436 41.4466 33.0008 41.4466C35.0586 41.4473 36.7282 43.1364 36.7282 45.222Z" fill="url(#paint0_linear_535_2919)"/>
</g>
<defs>
<linearGradient id="paint0_linear_535_2919" x1="31.3975" y1="5.4123" x2="29.9086" y2="48.4462" gradientUnits="userSpaceOnUse">
<stop stop-color="#DC5001"/>
<stop offset="1" stop-color="#DC5001" stop-opacity="0.3"/>
</linearGradient>
<clipPath id="clip0_535_2919">
<rect width="56" height="40" fill="white" transform="matrix(0 -1 -1 0 53 56)"/>
</clipPath>
</defs>
</svg>
