<svg width="159" height="64" viewBox="0 0 159 64" fill="none" xmlns="http://www.w3.org/2000/svg">
<path d="M19.136 38.4139C19.7119 38.1094 20.1535 37.6826 20.4609 37.1335C20.7684 36.5843 20.9221 35.9339 20.9221 35.1821C20.9221 34.3643 20.6923 33.66 20.2327 33.0691C19.8829 32.6205 19.4257 32.2785 18.861 32.0433C19.223 31.839 19.5333 31.5544 19.768 31.2114C20.1262 30.6894 20.3053 30.0761 20.3053 29.3715C20.3081 28.7872 20.1584 28.2123 19.871 27.7036C19.5808 27.1865 19.1627 26.7692 18.6169 26.4519C18.0711 26.1345 17.413 25.9764 16.6427 25.9775H11.6204V38.8692H17.0904C17.8781 38.87 18.56 38.7182 19.136 38.4139ZM13.2318 27.4827H16.626C17.2288 27.4827 17.7197 27.6583 18.0987 28.0094C18.4777 28.3605 18.6672 28.8141 18.6672 29.37C18.6672 29.7762 18.5762 30.1273 18.3942 30.4234C18.2151 30.7159 17.9597 30.9541 17.6554 31.1125C17.3379 31.2784 16.9842 31.363 16.626 31.3586H13.2318V27.4827ZM13.2318 37.3485V32.8632H16.9663C17.4199 32.8632 17.8213 32.9661 18.1707 33.1719C18.5125 33.3704 18.7953 33.6563 18.99 34.0002C19.187 34.3463 19.2855 34.7371 19.2855 35.1727C19.2855 35.6268 19.1766 36.0148 18.9587 36.3367C18.7364 36.6632 18.4281 36.9219 18.068 37.0843C17.6921 37.2599 17.2654 37.3476 16.7878 37.3476L13.2318 37.3485Z" fill="white"/>
<path d="M50.5637 35.688C50.1845 35.9621 49.6666 36.0992 49.0102 36.0994C48.3121 36.0994 47.7269 35.9457 47.2546 35.6382C46.7823 35.3308 46.4809 34.9145 46.3504 34.3894L44.7212 34.6489C44.8884 35.5566 45.3406 36.2625 46.0777 36.7665C46.8149 37.2706 47.7592 37.5227 48.9107 37.5229C50.1167 37.5229 51.0628 37.2559 51.749 36.7218C52.4353 36.1877 52.7785 35.4551 52.7787 34.524C52.7787 34.0229 52.6741 33.6005 52.465 33.257C52.2559 32.9135 51.9048 32.615 51.4116 32.3616C50.9193 32.108 50.2463 31.874 49.3927 31.6594C48.6348 31.4686 48.0574 31.2986 47.6604 31.1494C47.2635 31.0001 46.9919 30.8435 46.8458 30.6794C46.6991 30.5152 46.626 30.3138 46.6264 30.0752C46.6264 29.6632 46.8214 29.3348 47.2116 29.09C47.6017 28.8452 48.1123 28.7318 48.7434 28.7497C49.3998 28.7673 49.9398 28.9268 50.3635 29.2284C50.7872 29.53 51.038 29.9374 51.1158 30.4506L52.745 30.1551C52.6872 29.6066 52.4675 29.0878 52.1139 28.6646C51.7587 28.2375 51.2916 27.9078 50.7126 27.6753C50.1336 27.4427 49.4772 27.3264 48.7434 27.3262C48.0021 27.3262 47.353 27.444 46.7961 27.6796C46.2391 27.9153 45.8049 28.245 45.4934 28.6686C45.1832 29.0929 45.028 29.5884 45.0279 30.1551C45.0279 30.6203 45.1323 31.0142 45.3412 31.3366C45.5502 31.6591 45.8993 31.9412 46.3888 32.1828C46.878 32.4245 47.5494 32.6586 48.4031 32.8851C49.1908 33.0997 49.7801 33.2816 50.171 33.4308C50.5619 33.58 50.8201 33.7398 50.9455 33.9101C51.0708 34.0798 51.1334 34.2991 51.1334 34.5679C51.1324 35.04 50.9425 35.4133 50.5637 35.688Z" fill="white"/>
<path d="M35.2267 43.3976C34.544 42.9489 33.7159 42.7246 32.7425 42.7246C31.8061 42.7246 30.99 42.935 30.294 43.3558C29.5979 43.7765 29.0562 44.3743 28.6688 45.1491C28.2808 45.9218 28.0869 46.8364 28.0871 47.8929C28.0871 48.9014 28.284 49.7832 28.6779 50.5384C29.0717 51.2935 29.6223 51.8814 30.3297 52.3022C31.0378 52.7224 31.8658 52.9325 32.8139 52.9325C33.7502 52.9325 34.5962 52.6984 35.3519 52.2302C36.1077 51.762 36.6734 51.1011 37.0491 50.2475L35.5182 49.7208C35.2495 50.2699 34.8795 50.6906 34.408 50.9828C33.9365 51.275 33.3815 51.4214 32.7431 51.4217C31.7939 51.4217 31.0623 51.1085 30.5485 50.4819C30.1061 49.942 29.8665 49.2 29.8053 48.2792H37.2082C37.256 47.1333 37.1084 46.1456 36.7652 45.3159C36.4221 44.4863 35.9093 43.8469 35.2267 43.3976ZM30.5491 45.1076C31.0623 44.475 31.8113 44.1587 32.796 44.1587C33.7152 44.1587 34.4077 44.4526 34.8735 45.0406C35.2411 45.5044 35.4667 46.1586 35.555 46.9964H29.827C29.9229 46.2122 30.1637 45.5826 30.5491 45.1076Z" fill="white"/>
<path d="M29.9873 20.8765C30.473 21.1399 31.0787 21.2718 31.8015 21.2718C32.7294 21.2718 33.5228 21.0742 34.1815 20.679C34.6651 20.3803 35.0751 19.9764 35.3812 19.4975V21.0056H36.7948V15.025C36.7948 14.6428 36.7776 14.2777 36.7433 13.9295C36.711 13.5939 36.6239 13.266 36.4855 12.9586C36.2105 12.3228 35.754 11.8502 35.1278 11.5365C34.5016 11.2229 33.7444 11.0684 32.868 11.0684C31.7725 11.0684 30.8961 11.3089 30.2258 11.7943C29.5554 12.2797 29.1045 12.9413 28.8725 13.7878L30.3847 14.2475C30.5653 13.6547 30.8747 13.2251 31.3128 12.9586C31.7517 12.6879 32.2623 12.5548 32.8464 12.5548C33.7316 12.5548 34.3532 12.7625 34.7111 13.1778C35.033 13.547 35.1966 14.1056 35.2179 14.8275C34.8785 14.8746 34.5262 14.922 34.1569 14.9691C33.5717 15.0471 32.9963 15.133 32.4306 15.2269C31.9111 15.3085 31.3962 15.4175 30.8882 15.5534C30.3984 15.6953 29.9774 15.8928 29.621 16.1421C29.2778 16.3827 28.9977 16.7025 28.8046 17.0744C28.6112 17.444 28.5167 17.882 28.5167 18.3891C28.5133 18.891 28.6406 19.3851 28.8862 19.8228C29.132 20.2579 29.4972 20.6102 29.9873 20.8765ZM30.3092 17.6245C30.4525 17.414 30.6421 17.2391 30.8634 17.113C31.0975 16.9784 31.3451 16.869 31.6022 16.7865C31.9984 16.6796 32.3999 16.5936 32.8051 16.5287C33.2519 16.4558 33.7245 16.3871 34.2272 16.3239C34.549 16.2808 34.8803 16.2334 35.2068 16.1863V16.2206C35.2068 16.2378 35.2024 16.2498 35.2024 16.268C35.2024 16.4012 35.1981 16.5515 35.1896 16.7189C35.185 17.0544 35.1374 17.388 35.0479 17.7114C34.9694 18.1136 34.7971 18.4916 34.5452 18.8148C34.2918 19.1542 33.9524 19.4249 33.5314 19.6309C33.1103 19.8369 32.612 19.9402 32.0405 19.9402C31.5808 19.9402 31.2069 19.8673 30.9286 19.7169C30.8727 19.6877 30.8168 19.6525 30.7653 19.618C30.7653 19.618 30.761 19.618 30.761 19.6139C30.7244 19.5949 30.6912 19.5702 30.6624 19.5408C30.6398 19.5264 30.6182 19.5106 30.5977 19.4934L30.4806 19.3763C30.4084 19.3043 30.3475 19.2217 30.3001 19.1314C30.1666 18.9035 30.0969 18.6438 30.0982 18.3797C30.0985 18.0833 30.1673 17.8305 30.3092 17.6245Z" fill="white"/>
<path d="M38.0787 20.8163L37.1675 21.7275L43.7295 28.2895L44.6407 27.3783L38.0787 20.8163Z" fill="white"/>
<path d="M43.7295 36.6578L37.1676 43.2197L38.0788 44.1309L44.6408 37.569L43.7295 36.6578Z" fill="white"/>
<path d="M27.8876 20.816L21.3256 27.3779L22.2368 28.2891L28.7988 21.7272L27.8876 20.816Z" fill="white"/>
<path d="M68.68 38V26.8H73.704C74.9947 26.8 75.9867 27.0613 76.68 27.584C77.3733 28.096 77.72 28.8 77.72 29.696C77.72 30.304 77.5813 30.816 77.304 31.232C77.0373 31.648 76.6747 31.968 76.216 32.192C75.7573 32.416 75.2613 32.528 74.728 32.528L75.016 32.048C75.656 32.048 76.2213 32.16 76.712 32.384C77.2027 32.608 77.592 32.9387 77.88 33.376C78.168 33.8027 78.312 34.336 78.312 34.976C78.312 35.936 77.9493 36.6827 77.224 37.216C76.5093 37.7387 75.4427 38 74.024 38H68.68ZM70.28 36.704H73.96C74.8453 36.704 75.5227 36.5547 75.992 36.256C76.4613 35.9573 76.696 35.488 76.696 34.848C76.696 34.1973 76.4613 33.7227 75.992 33.424C75.5227 33.1253 74.8453 32.976 73.96 32.976H70.136V31.68H73.56C74.3707 31.68 75 31.5307 75.448 31.232C75.896 30.9333 76.12 30.4853 76.12 29.888C76.12 29.2907 75.896 28.8427 75.448 28.544C75 28.2453 74.3707 28.096 73.56 28.096H70.28V36.704ZM85.8294 38V36.208L85.7494 35.872V32.816C85.7494 32.1653 85.5574 31.664 85.1734 31.312C84.8 30.9493 84.2347 30.768 83.4774 30.768C82.976 30.768 82.4854 30.8533 82.0054 31.024C81.5254 31.184 81.12 31.4027 80.7894 31.68L80.1494 30.528C80.5867 30.176 81.1094 29.9093 81.7174 29.728C82.336 29.536 82.9814 29.44 83.6534 29.44C84.816 29.44 85.712 29.7227 86.3414 30.288C86.9707 30.8533 87.2854 31.7173 87.2854 32.88V38H85.8294ZM83.0454 38.096C82.416 38.096 81.8614 37.9893 81.3814 37.776C80.912 37.5627 80.5494 37.2693 80.2934 36.896C80.0374 36.512 79.9094 36.08 79.9094 35.6C79.9094 35.1413 80.016 34.7253 80.2294 34.352C80.4534 33.9787 80.8107 33.68 81.3014 33.456C81.8027 33.232 82.4747 33.12 83.3174 33.12H86.0054V34.224H83.3814C82.6134 34.224 82.096 34.352 81.8294 34.608C81.5627 34.864 81.4294 35.1733 81.4294 35.536C81.4294 35.952 81.5947 36.288 81.9254 36.544C82.256 36.7893 82.7147 36.912 83.3014 36.912C83.8774 36.912 84.3787 36.784 84.8054 36.528C85.2427 36.272 85.5574 35.8987 85.7494 35.408L86.0534 36.464C85.8507 36.9653 85.4934 37.3653 84.9814 37.664C84.4694 37.952 83.824 38.096 83.0454 38.096ZM92.5599 38.096C91.8559 38.096 91.1839 38 90.5439 37.808C89.9145 37.616 89.4185 37.3813 89.0559 37.104L89.6959 35.888C90.0585 36.1333 90.5065 36.3413 91.0399 36.512C91.5732 36.6827 92.1172 36.768 92.6719 36.768C93.3865 36.768 93.8985 36.6667 94.2079 36.464C94.5279 36.2613 94.6879 35.9787 94.6879 35.616C94.6879 35.3493 94.5919 35.1413 94.3999 34.992C94.2079 34.8427 93.9519 34.7307 93.6319 34.656C93.3225 34.5813 92.9759 34.5173 92.5919 34.464C92.2079 34.4 91.8239 34.3253 91.4399 34.24C91.0559 34.144 90.7039 34.016 90.3839 33.856C90.0639 33.6853 89.8079 33.456 89.6159 33.168C89.4239 32.8693 89.3279 32.4747 89.3279 31.984C89.3279 31.472 89.4719 31.024 89.7599 30.64C90.0479 30.256 90.4532 29.9627 90.9759 29.76C91.5092 29.5467 92.1385 29.44 92.8639 29.44C93.4185 29.44 93.9785 29.5093 94.5439 29.648C95.1199 29.776 95.5892 29.9627 95.9519 30.208L95.2959 31.424C94.9119 31.168 94.5119 30.992 94.0959 30.896C93.6799 30.8 93.2639 30.752 92.8479 30.752C92.1759 30.752 91.6745 30.864 91.3439 31.088C91.0132 31.3013 90.8479 31.5787 90.8479 31.92C90.8479 32.208 90.9439 32.432 91.1359 32.592C91.3385 32.7413 91.5945 32.8587 91.9039 32.944C92.2239 33.0293 92.5759 33.104 92.9599 33.168C93.3439 33.2213 93.7279 33.296 94.1119 33.392C94.4959 33.4773 94.8425 33.6 95.1519 33.76C95.4719 33.92 95.7279 34.144 95.9199 34.432C96.1225 34.72 96.2239 35.104 96.2239 35.584C96.2239 36.096 96.0745 36.5387 95.7759 36.912C95.4772 37.2853 95.0559 37.5787 94.5119 37.792C93.9679 37.9947 93.3172 38.096 92.5599 38.096ZM101.92 38.096C101.013 38.096 100.213 37.9093 99.5195 37.536C98.8368 37.1627 98.3035 36.6507 97.9195 36C97.5462 35.3493 97.3595 34.6027 97.3595 33.76C97.3595 32.9173 97.5408 32.1707 97.9035 31.52C98.2768 30.8693 98.7835 30.3627 99.4235 30C100.074 29.6267 100.805 29.44 101.616 29.44C102.437 29.44 103.162 29.6213 103.792 29.984C104.421 30.3467 104.912 30.8587 105.264 31.52C105.626 32.1707 105.808 32.9333 105.808 33.808C105.808 33.872 105.802 33.9467 105.792 34.032C105.792 34.1173 105.786 34.1973 105.776 34.272H98.5595V33.168H104.976L104.352 33.552C104.362 33.008 104.25 32.5227 104.016 32.096C103.781 31.6693 103.456 31.3387 103.04 31.104C102.634 30.8587 102.16 30.736 101.616 30.736C101.082 30.736 100.608 30.8587 100.192 31.104C99.7755 31.3387 99.4502 31.6747 99.2155 32.112C98.9808 32.5387 98.8635 33.0293 98.8635 33.584V33.84C98.8635 34.4053 98.9915 34.912 99.2475 35.36C99.5142 35.7973 99.8822 36.1387 100.352 36.384C100.821 36.6293 101.36 36.752 101.968 36.752C102.469 36.752 102.922 36.6667 103.328 36.496C103.744 36.3253 104.106 36.0693 104.416 35.728L105.264 36.72C104.88 37.168 104.4 37.5093 103.824 37.744C103.258 37.9787 102.624 38.096 101.92 38.096ZM113.22 38.128C112.356 38.128 111.562 37.9893 110.836 37.712C110.111 37.424 109.482 37.024 108.948 36.512C108.415 35.9893 107.999 35.3813 107.7 34.688C107.402 33.9947 107.252 33.232 107.252 32.4C107.252 31.568 107.402 30.8053 107.7 30.112C107.999 29.4187 108.415 28.816 108.948 28.304C109.492 27.7813 110.127 27.3813 110.852 27.104C111.578 26.816 112.378 26.672 113.252 26.672C114.138 26.672 114.948 26.816 115.684 27.104C116.42 27.392 117.044 27.824 117.556 28.4L116.564 29.392C116.106 28.944 115.604 28.6187 115.06 28.416C114.527 28.2027 113.946 28.096 113.316 28.096C112.676 28.096 112.079 28.2027 111.524 28.416C110.98 28.6293 110.506 28.928 110.1 29.312C109.706 29.696 109.396 30.1547 109.172 30.688C108.959 31.2107 108.852 31.7813 108.852 32.4C108.852 33.008 108.959 33.5787 109.172 34.112C109.396 34.6347 109.706 35.0933 110.1 35.488C110.506 35.872 110.98 36.1707 111.524 36.384C112.068 36.5973 112.66 36.704 113.3 36.704C113.898 36.704 114.468 36.6133 115.012 36.432C115.567 36.24 116.079 35.9253 116.548 35.488L117.46 36.704C116.906 37.1733 116.255 37.5307 115.508 37.776C114.772 38.0107 114.01 38.128 113.22 38.128ZM115.924 36.496V32.336H117.46V36.704L115.924 36.496ZM120.3 38V26.128H121.836V38H120.3ZM128.401 38.096C127.547 38.096 126.79 37.9093 126.129 37.536C125.467 37.1627 124.945 36.6507 124.561 36C124.177 35.3387 123.985 34.592 123.985 33.76C123.985 32.9173 124.177 32.1707 124.561 31.52C124.945 30.8693 125.467 30.3627 126.129 30C126.79 29.6267 127.547 29.44 128.401 29.44C129.243 29.44 129.995 29.6267 130.657 30C131.329 30.3627 131.851 30.8693 132.225 31.52C132.609 32.16 132.801 32.9067 132.801 33.76C132.801 34.6027 132.609 35.3493 132.225 36C131.851 36.6507 131.329 37.1627 130.657 37.536C129.995 37.9093 129.243 38.096 128.401 38.096ZM128.401 36.752C128.945 36.752 129.43 36.6293 129.857 36.384C130.294 36.1387 130.635 35.792 130.881 35.344C131.126 34.8853 131.249 34.3573 131.249 33.76C131.249 33.152 131.126 32.6293 130.881 32.192C130.635 31.744 130.294 31.3973 129.857 31.152C129.43 30.9067 128.945 30.784 128.401 30.784C127.857 30.784 127.371 30.9067 126.945 31.152C126.518 31.3973 126.177 31.744 125.921 32.192C125.665 32.6293 125.537 33.152 125.537 33.76C125.537 34.3573 125.665 34.8853 125.921 35.344C126.177 35.792 126.518 36.1387 126.945 36.384C127.371 36.6293 127.857 36.752 128.401 36.752ZM139.421 38.096C138.695 38.096 138.039 37.936 137.453 37.616C136.877 37.2853 136.418 36.8 136.077 36.16C135.746 35.52 135.581 34.72 135.581 33.76C135.581 32.8 135.751 32 136.093 31.36C136.445 30.72 136.909 30.24 137.485 29.92C138.071 29.6 138.717 29.44 139.421 29.44C140.253 29.44 140.989 29.6213 141.629 29.984C142.269 30.3467 142.775 30.8533 143.149 31.504C143.522 32.144 143.709 32.896 143.709 33.76C143.709 34.624 143.522 35.3813 143.149 36.032C142.775 36.6827 142.269 37.1893 141.629 37.552C140.989 37.9147 140.253 38.096 139.421 38.096ZM134.925 38V26.128H136.461V31.776L136.301 33.744L136.397 35.712V38H134.925ZM139.293 36.752C139.837 36.752 140.322 36.6293 140.749 36.384C141.186 36.1387 141.527 35.792 141.773 35.344C142.029 34.8853 142.157 34.3573 142.157 33.76C142.157 33.152 142.029 32.6293 141.773 32.192C141.527 31.744 141.186 31.3973 140.749 31.152C140.322 30.9067 139.837 30.784 139.293 30.784C138.759 30.784 138.274 30.9067 137.837 31.152C137.41 31.3973 137.069 31.744 136.813 32.192C136.567 32.6293 136.445 33.152 136.445 33.76C136.445 34.3573 136.567 34.8853 136.813 35.344C137.069 35.792 137.41 36.1387 137.837 36.384C138.274 36.6293 138.759 36.752 139.293 36.752ZM151.017 38V36.208L150.937 35.872V32.816C150.937 32.1653 150.745 31.664 150.361 31.312C149.988 30.9493 149.422 30.768 148.665 30.768C148.164 30.768 147.673 30.8533 147.193 31.024C146.713 31.184 146.308 31.4027 145.977 31.68L145.337 30.528C145.774 30.176 146.297 29.9093 146.905 29.728C147.524 29.536 148.169 29.44 148.841 29.44C150.004 29.44 150.9 29.7227 151.529 30.288C152.158 30.8533 152.473 31.7173 152.473 32.88V38H151.017ZM148.233 38.096C147.604 38.096 147.049 37.9893 146.569 37.776C146.1 37.5627 145.737 37.2693 145.481 36.896C145.225 36.512 145.097 36.08 145.097 35.6C145.097 35.1413 145.204 34.7253 145.417 34.352C145.641 33.9787 145.998 33.68 146.489 33.456C146.99 33.232 147.662 33.12 148.505 33.12H151.193V34.224H148.569C147.801 34.224 147.284 34.352 147.017 34.608C146.75 34.864 146.617 35.1733 146.617 35.536C146.617 35.952 146.782 36.288 147.113 36.544C147.444 36.7893 147.902 36.912 148.489 36.912C149.065 36.912 149.566 36.784 149.993 36.528C150.43 36.272 150.745 35.8987 150.937 35.408L151.241 36.464C151.038 36.9653 150.681 37.3653 150.169 37.664C149.657 37.952 149.012 38.096 148.233 38.096ZM155.315 38V26.128H156.851V38H155.315Z" fill="white"/>
</svg>
