<svg width="40" height="40" viewBox="0 0 40 40" fill="none" xmlns="http://www.w3.org/2000/svg">
<g clip-path="url(#clip0_502_2925)">
<path d="M8.44668 25.3441C8.92655 25.0903 9.29458 24.7347 9.55078 24.2771C9.80697 23.8195 9.93507 23.2774 9.93507 22.6509C9.93507 21.9695 9.74357 21.3825 9.36058 20.8901C9.06912 20.5163 8.68808 20.2313 8.21747 20.0352C8.51915 19.865 8.77776 19.6279 8.97337 19.342C9.27183 18.907 9.42105 18.3959 9.42105 17.8088C9.42338 17.3219 9.29866 16.8428 9.0592 16.4189C8.81731 15.9879 8.46895 15.6402 8.01411 15.3757C7.55927 15.1113 7.01087 14.9795 6.36893 14.9805H2.18369V25.7235H6.742C7.39841 25.7242 7.96664 25.5977 8.44668 25.3441ZM3.5265 16.2348H6.35503C6.85734 16.2348 7.26642 16.3811 7.58227 16.6737C7.89812 16.9663 8.05605 17.3442 8.05605 17.8075C8.05605 18.146 7.98021 18.4386 7.82855 18.6854C7.67927 18.9291 7.46642 19.1276 7.21285 19.2596C6.94828 19.3979 6.65353 19.4683 6.35503 19.4647H3.5265V16.2348ZM3.5265 24.4563V20.7185H6.63861C7.01656 20.7185 7.35111 20.8042 7.64225 20.9757C7.92707 21.1412 8.16273 21.3794 8.325 21.666C8.48919 21.9544 8.57128 22.2801 8.57128 22.6431C8.57128 23.0215 8.48049 23.3449 8.29891 23.6131C8.11365 23.8852 7.85677 24.1008 7.55667 24.2361C7.24342 24.3824 6.88782 24.4556 6.48987 24.4556L3.5265 24.4563Z" fill="white"/>
<path d="M34.6364 23.0727C34.3204 23.3011 33.8889 23.4153 33.3419 23.4155C32.7601 23.4155 32.2724 23.2874 31.8788 23.0312C31.4853 22.775 31.2341 22.4281 31.1254 21.9905L29.7677 22.2068C29.907 22.9632 30.2838 23.5514 30.8981 23.9715C31.5124 24.3915 32.2994 24.6016 33.259 24.6018C34.2639 24.6018 35.0523 24.3792 35.6242 23.9341C36.1961 23.4891 36.4821 22.8786 36.4823 22.1027C36.4823 21.6851 36.3951 21.3331 36.2209 21.0469C36.0466 20.7606 35.754 20.5119 35.343 20.3007C34.9327 20.0894 34.3719 19.8943 33.6606 19.7155C33.029 19.5565 32.5478 19.4148 32.217 19.2905C31.8862 19.1661 31.6599 19.0356 31.5382 18.8989C31.4159 18.762 31.355 18.5942 31.3553 18.3954C31.3553 18.052 31.5179 17.7784 31.843 17.5743C32.1681 17.3703 32.5936 17.2758 33.1195 17.2908C33.6665 17.3054 34.1165 17.4384 34.4696 17.6897C34.8227 17.941 35.0317 18.2805 35.0965 18.7082L36.4542 18.4619C36.406 18.0049 36.2229 17.5725 35.9283 17.2198C35.6322 16.864 35.243 16.5892 34.7605 16.3954C34.278 16.2016 33.731 16.1047 33.1195 16.1045C32.5018 16.1045 31.9608 16.2027 31.4967 16.399C31.0326 16.5954 30.6708 16.8701 30.4112 17.2232C30.1527 17.5768 30.0234 17.9897 30.0232 18.4619C30.0232 18.8496 30.1103 19.1778 30.2844 19.4465C30.4585 19.7153 30.7495 19.9503 31.1573 20.1517C31.565 20.3531 32.1245 20.5482 32.8359 20.7369C33.4923 20.9158 33.9834 21.0673 34.3092 21.1917C34.6349 21.3161 34.8501 21.4492 34.9546 21.5911C35.059 21.7325 35.1112 21.9152 35.1112 22.1393C35.1103 22.5326 34.9521 22.8438 34.6364 23.0727Z" fill="white"/>
<path d="M21.8556 29.4974C21.2866 29.1235 20.5966 28.9365 19.7854 28.9365C19.0051 28.9365 18.325 29.1118 17.745 29.4625C17.165 29.8131 16.7135 30.3113 16.3907 30.957C16.0674 31.6009 15.9058 32.363 15.9059 33.2434C15.9059 34.0839 16.07 34.8187 16.3983 35.448C16.7265 36.0773 17.1853 36.5672 17.7747 36.9178C18.3648 37.268 19.0549 37.4431 19.8449 37.4431C20.6252 37.4431 21.3302 37.248 21.96 36.8579C22.5897 36.4677 23.0611 35.917 23.3742 35.2056L22.0985 34.7667C21.8746 35.2243 21.5662 35.5749 21.1733 35.8184C20.7804 36.0619 20.318 36.1838 19.7859 36.1841C18.9949 36.1841 18.3853 35.9231 17.9571 35.4009C17.5884 34.951 17.3887 34.3327 17.3378 33.5653H23.5069C23.5467 32.6104 23.4236 31.7873 23.1377 31.096C22.8518 30.4046 22.4244 29.8717 21.8556 29.4974ZM17.9576 30.9223C18.3853 30.3952 19.0094 30.1316 19.83 30.1316C20.596 30.1316 21.1731 30.3766 21.5613 30.8665C21.8676 31.253 22.0556 31.7982 22.1292 32.4963H17.3558C17.4358 31.8428 17.6364 31.3182 17.9576 30.9223Z" fill="white"/>
<path d="M17.4894 10.7301C17.8942 10.9496 18.3989 11.0595 19.0012 11.0595C19.7745 11.0595 20.4356 10.8949 20.9846 10.5655C21.3876 10.3166 21.7293 9.98003 21.9843 9.5809V10.8376H23.1623V5.85382C23.1623 5.53537 23.148 5.23106 23.1194 4.94089C23.0925 4.66129 23.0199 4.38798 22.9046 4.13184C22.6754 3.60198 22.295 3.20818 21.7732 2.94678C21.2514 2.68539 20.6203 2.55664 19.89 2.55664C18.9771 2.55664 18.2468 2.75708 17.6882 3.1616C17.1295 3.56613 16.7538 4.11745 16.5604 4.82288L17.8206 5.20595C17.9711 4.71193 18.2289 4.35389 18.594 4.13184C18.9598 3.90629 19.3853 3.79534 19.872 3.79534C20.6097 3.79534 21.1277 3.96838 21.426 4.31447C21.6942 4.6222 21.8305 5.08768 21.8483 5.68923C21.5654 5.72849 21.2718 5.76799 20.9641 5.80725C20.4764 5.87228 19.9969 5.94388 19.5255 6.02207C19.0926 6.09007 18.6635 6.1809 18.2402 6.2942C17.832 6.41246 17.4811 6.57705 17.1841 6.7848C16.8982 6.98524 16.6648 7.25175 16.5038 7.56167C16.3427 7.86964 16.2639 8.23466 16.2639 8.65724C16.2611 9.07549 16.3672 9.48727 16.5719 9.85204C16.7767 10.2146 17.081 10.5082 17.4894 10.7301ZM17.7576 8.02009C17.8771 7.84469 18.0351 7.6989 18.2195 7.59386C18.4145 7.4817 18.6209 7.39049 18.8352 7.32173C19.1653 7.23267 19.4999 7.16097 19.8376 7.10691C20.2099 7.04619 20.6037 6.98889 21.0226 6.93622C21.2909 6.90038 21.5669 6.86088 21.839 6.82162V6.85015C21.839 6.86454 21.8354 6.87453 21.8354 6.88965C21.8354 7.00068 21.8318 7.12593 21.8246 7.26541C21.8208 7.54502 21.7812 7.82299 21.7066 8.0925C21.6411 8.42766 21.4976 8.74267 21.2877 9.01202C21.0765 9.29487 20.7937 9.52042 20.4428 9.69209C20.0919 9.86375 19.6767 9.94982 19.2004 9.94982C18.8174 9.94982 18.5057 9.88911 18.2739 9.76377C18.2273 9.73939 18.1807 9.71013 18.1378 9.68136C18.1378 9.68136 18.1341 9.68136 18.1341 9.67794C18.1037 9.66209 18.076 9.64151 18.052 9.61698C18.0331 9.60502 18.0151 9.59183 17.9981 9.57748L17.9005 9.47995C17.8403 9.41992 17.7896 9.35111 17.7501 9.27585C17.6389 9.0859 17.5808 8.86954 17.5818 8.64943C17.5821 8.40242 17.6394 8.19175 17.7576 8.02009Z" fill="white"/>
<path d="M24.2323 10.6801L23.473 11.4395L28.9412 16.9077L29.7006 16.1484L24.2323 10.6801Z" fill="white"/>
<path d="M28.9413 23.8813L23.473 29.3496L24.2323 30.1089L29.7006 24.6407L28.9413 23.8813Z" fill="white"/>
<path d="M15.7397 10.6792L10.2714 16.1475L11.0307 16.9068L16.499 11.4385L15.7397 10.6792Z" fill="white"/>
</g>
<defs>
<clipPath id="clip0_502_2925">
<rect width="40" height="40" fill="white"/>
</clipPath>
</defs>
</svg>
