<svg width="195" height="60" viewBox="0 0 195 60" fill="none" xmlns="http://www.w3.org/2000/svg">
<g clip-path="url(#clip0_502_2921)">
<path d="M12.67 38.017C13.3898 37.6364 13.9419 37.1029 14.3262 36.4165C14.7104 35.7301 14.9026 34.917 14.9026 33.9772C14.9026 32.9551 14.6153 32.0747 14.0409 31.3361C13.6037 30.7753 13.0321 30.3478 12.3262 30.0538C12.7787 29.7984 13.1666 29.4427 13.46 29.0139C13.9077 28.3614 14.1316 27.5948 14.1316 26.714C14.1351 25.9837 13.948 25.2651 13.5888 24.6292C13.226 23.9828 12.7034 23.4612 12.0211 23.0645C11.3389 22.6678 10.5163 22.4701 9.55338 22.4716H3.27551V38.5861H10.113C11.0976 38.5871 11.9499 38.3974 12.67 38.017ZM5.28974 24.3531H9.53253C10.286 24.3531 10.8996 24.5725 11.3734 25.0114C11.8472 25.4503 12.0841 26.0173 12.0841 26.7122C12.0841 27.2199 11.9703 27.6588 11.7428 28.0289C11.5189 28.3946 11.1996 28.6923 10.8193 28.8903C10.4224 29.0977 9.98028 29.2034 9.53253 29.1979H5.28974V24.3531ZM5.28974 36.6853V31.0786H9.95791C10.5248 31.0786 11.0266 31.2072 11.4634 31.4645C11.8906 31.7126 12.2441 32.07 12.4875 32.4999C12.7338 32.9325 12.8569 33.421 12.8569 33.9655C12.8569 34.5332 12.7207 35.0182 12.4484 35.4205C12.1705 35.8287 11.7851 36.1521 11.335 36.355C10.8651 36.5745 10.3317 36.6842 9.7348 36.6842L5.28974 36.6853Z" fill="#3D5A08"/>
<path d="M51.9546 34.6096C51.4806 34.9522 50.8333 35.1236 50.0128 35.1239C49.1401 35.1239 48.4086 34.9317 47.8182 34.5475C47.2279 34.1632 46.8512 33.6428 46.688 32.9864L44.6515 33.3108C44.8605 34.4454 45.4257 35.3277 46.3471 35.9578C47.2686 36.5879 48.449 36.9031 49.8884 36.9033C51.3958 36.9033 52.5784 36.5695 53.4363 35.9019C54.2941 35.2342 54.7231 34.3185 54.7234 33.1547C54.7234 32.5282 54.5927 32.0003 54.3313 31.5709C54.0699 31.1415 53.631 30.7684 53.0145 30.4517C52.3991 30.1347 51.5578 29.8421 50.4908 29.5739C49.5435 29.3354 48.8217 29.1229 48.3255 28.9364C47.8293 28.7498 47.4899 28.554 47.3073 28.349C47.1239 28.1437 47.0324 27.8919 47.0329 27.5937C47.0329 27.0787 47.2768 26.6682 47.7645 26.3622C48.2521 26.0561 48.8904 25.9144 49.6792 25.9368C50.4997 25.9587 51.1748 26.1582 51.7044 26.5352C52.234 26.9121 52.5475 27.4214 52.6448 28.0629L54.6813 27.6935C54.609 27.008 54.3343 26.3594 53.8924 25.8304C53.4483 25.2966 52.8645 24.8844 52.1407 24.5937C51.417 24.3031 50.5965 24.1576 49.6792 24.1574C48.7526 24.1574 47.9412 24.3047 47.2451 24.5992C46.5489 24.8938 46.0061 25.3059 45.6167 25.8355C45.229 26.3658 45.035 26.9852 45.0348 27.6935C45.0348 28.2751 45.1654 28.7674 45.4265 29.1705C45.6877 29.5735 46.1242 29.9261 46.7359 30.2282C47.3475 30.5303 48.1868 30.8229 49.2538 31.106C50.2384 31.3743 50.9751 31.6016 51.4637 31.7882C51.9524 31.9747 52.2751 32.1744 52.4319 32.3873C52.5884 32.5994 52.6667 32.8735 52.6667 33.2095C52.6655 33.7996 52.4281 34.2663 51.9546 34.6096Z" fill="#3D5A08"/>
<path d="M32.7834 44.247C31.9299 43.6862 30.8948 43.4058 29.6781 43.4058C28.5077 43.4058 27.4874 43.6687 26.6174 44.1947C25.7474 44.7207 25.0703 45.4679 24.586 46.4364C24.101 47.4023 23.8586 48.5455 23.8589 49.8661C23.8589 51.1268 24.105 52.2291 24.5974 53.173C25.0897 54.1169 25.7779 54.8518 26.6621 55.3777C27.5472 55.903 28.5823 56.1656 29.7673 56.1656C30.9378 56.1656 31.9953 55.873 32.9399 55.2878C33.8845 54.7026 34.5917 53.8764 35.0613 52.8094L33.1477 52.151C32.8119 52.8374 32.3493 53.3633 31.76 53.7285C31.1706 54.0938 30.4769 54.2767 29.6788 54.2772C28.4923 54.2772 27.5779 53.8856 26.9356 53.1024C26.3826 52.4275 26.0831 51.5 26.0066 50.3489H35.2603C35.32 48.9166 35.1354 47.682 34.7065 46.6449C34.2776 45.6079 33.6366 44.8086 32.7834 44.247ZM26.9364 46.3845C27.5779 45.5937 28.5141 45.1983 29.745 45.1983C30.894 45.1983 31.7596 45.5658 32.3419 46.3007C32.8013 46.8805 33.0833 47.6983 33.1938 48.7455H26.0337C26.1537 47.7652 26.4545 46.9782 26.9364 46.3845Z" fill="#3D5A08"/>
<path d="M26.2341 16.0953C26.8413 16.4245 27.5984 16.5895 28.5018 16.5895C29.6618 16.5895 30.6535 16.3425 31.4769 15.8485C32.0814 15.475 32.5939 14.9702 32.9765 14.3715V16.2566H34.7435V8.78092C34.7435 8.30324 34.722 7.84677 34.6791 7.41152C34.6387 6.99211 34.5298 6.58216 34.3569 6.19794C34.0131 5.40315 33.4425 4.81245 32.6598 4.42036C31.877 4.02826 30.9305 3.83514 29.835 3.83514C28.4656 3.83514 27.3702 4.1358 26.5322 4.74259C25.6943 5.34938 25.1306 6.17636 24.8406 7.2345L26.7308 7.8091C26.9566 7.06808 27.3434 6.53102 27.891 6.19794C28.4397 5.85961 29.0779 5.69319 29.808 5.69319C30.9145 5.69319 31.6915 5.95276 32.1389 6.47189C32.5413 6.93348 32.7457 7.63171 32.7724 8.53403C32.3481 8.59292 31.9078 8.65217 31.4462 8.71106C30.7147 8.8086 29.9953 8.91601 29.2882 9.03329C28.6388 9.13528 27.9953 9.27153 27.3603 9.44148C26.748 9.61887 26.2217 9.86576 25.7762 10.1774C25.3472 10.4781 24.9972 10.8778 24.7557 11.3427C24.514 11.8046 24.3958 12.3522 24.3958 12.986C24.3916 13.6134 24.5508 14.2311 24.8578 14.7782C25.165 15.3221 25.6215 15.7625 26.2341 16.0953ZM26.6365 12.0303C26.8157 11.7672 27.0526 11.5485 27.3292 11.391C27.6218 11.2227 27.9314 11.0859 28.2527 10.9828C28.748 10.8492 29.2499 10.7416 29.7564 10.6605C30.3149 10.5695 30.9056 10.4835 31.534 10.4045C31.9363 10.3508 32.3503 10.2915 32.7585 10.2326V10.2754C32.7585 10.297 32.753 10.312 32.753 10.3347C32.753 10.5012 32.7477 10.6891 32.7369 10.8983C32.7312 11.3177 32.6717 11.7347 32.5599 12.1389C32.4617 12.6417 32.2464 13.1142 31.9315 13.5182C31.6148 13.9425 31.1905 14.2808 30.6642 14.5383C30.1379 14.7958 29.515 14.9249 28.8007 14.9249C28.2261 14.9249 27.7586 14.8338 27.4108 14.6458C27.3409 14.6093 27.2711 14.5654 27.2067 14.5222C27.2067 14.5222 27.2012 14.5222 27.2012 14.5171C27.1555 14.4933 27.1139 14.4625 27.0779 14.4257C27.0497 14.4077 27.0227 14.3879 26.9971 14.3664L26.8508 14.2201C26.7605 14.1301 26.6844 14.0268 26.6251 13.914C26.4583 13.629 26.3711 13.3045 26.3728 12.9743C26.3731 12.6038 26.4591 12.2878 26.6365 12.0303Z" fill="#3D5A08"/>
<path d="M36.3484 16.02L35.2094 17.159L43.4119 25.3615L44.5509 24.2225L36.3484 16.02Z" fill="#3D5A08"/>
<path d="M43.4119 35.8223L35.2095 44.0248L36.3485 45.1638L44.5509 36.9613L43.4119 35.8223Z" fill="#3D5A08"/>
<path d="M23.6095 16.0198L15.407 24.2223L16.546 25.3613L24.7485 17.1589L23.6095 16.0198Z" fill="#3D5A08"/>
</g>
<path d="M66.692 36V23.4H72.596C74.108 23.4 75.26 23.7 76.052 24.3C76.844 24.888 77.24 25.68 77.24 26.676C77.24 27.348 77.084 27.924 76.772 28.404C76.46 28.872 76.04 29.238 75.512 29.502C74.996 29.754 74.432 29.88 73.82 29.88L74.144 29.232C74.852 29.232 75.488 29.364 76.052 29.628C76.616 29.88 77.06 30.252 77.384 30.744C77.72 31.236 77.888 31.848 77.888 32.58C77.888 33.66 77.474 34.5 76.646 35.1C75.818 35.7 74.588 36 72.956 36H66.692ZM69.032 34.164H72.812C73.688 34.164 74.36 34.02 74.828 33.732C75.296 33.444 75.53 32.982 75.53 32.346C75.53 31.722 75.296 31.266 74.828 30.978C74.36 30.678 73.688 30.528 72.812 30.528H68.852V28.71H72.344C73.16 28.71 73.784 28.566 74.216 28.278C74.66 27.99 74.882 27.558 74.882 26.982C74.882 26.394 74.66 25.956 74.216 25.668C73.784 25.38 73.16 25.236 72.344 25.236H69.032V34.164ZM86.0914 36V34.056L85.9654 33.642V30.24C85.9654 29.58 85.7674 29.07 85.3714 28.71C84.9754 28.338 84.3754 28.152 83.5714 28.152C83.0314 28.152 82.4974 28.236 81.9694 28.404C81.4534 28.572 81.0154 28.806 80.6554 29.106L79.7734 27.468C80.2894 27.072 80.9014 26.778 81.6094 26.586C82.3294 26.382 83.0734 26.28 83.8414 26.28C85.2334 26.28 86.3074 26.616 87.0634 27.288C87.8314 27.948 88.2154 28.974 88.2154 30.366V36H86.0914ZM83.0674 36.126C82.3474 36.126 81.7174 36.006 81.1774 35.766C80.6374 35.514 80.2174 35.172 79.9174 34.74C79.6294 34.296 79.4854 33.798 79.4854 33.246C79.4854 32.706 79.6114 32.22 79.8634 31.788C80.1274 31.356 80.5534 31.014 81.1414 30.762C81.7294 30.51 82.5094 30.384 83.4814 30.384H86.2714V31.878H83.6434C82.8754 31.878 82.3594 32.004 82.0954 32.256C81.8314 32.496 81.6994 32.796 81.6994 33.156C81.6994 33.564 81.8614 33.888 82.1854 34.128C82.5094 34.368 82.9594 34.488 83.5354 34.488C84.0874 34.488 84.5794 34.362 85.0114 34.11C85.4554 33.858 85.7734 33.486 85.9654 32.994L86.3434 34.344C86.1274 34.908 85.7374 35.346 85.1734 35.658C84.6214 35.97 83.9194 36.126 83.0674 36.126ZM94.073 36.126C93.269 36.126 92.495 36.024 91.751 35.82C91.019 35.604 90.437 35.346 90.005 35.046L90.869 33.336C91.301 33.612 91.817 33.84 92.417 34.02C93.017 34.2 93.617 34.29 94.217 34.29C94.925 34.29 95.435 34.194 95.747 34.002C96.071 33.81 96.233 33.552 96.233 33.228C96.233 32.964 96.125 32.766 95.909 32.634C95.693 32.49 95.411 32.382 95.063 32.31C94.715 32.238 94.325 32.172 93.893 32.112C93.473 32.052 93.047 31.974 92.615 31.878C92.195 31.77 91.811 31.62 91.463 31.428C91.115 31.224 90.833 30.954 90.617 30.618C90.401 30.282 90.293 29.838 90.293 29.286C90.293 28.674 90.467 28.146 90.815 27.702C91.163 27.246 91.649 26.898 92.273 26.658C92.909 26.406 93.659 26.28 94.523 26.28C95.171 26.28 95.825 26.352 96.485 26.496C97.145 26.64 97.691 26.844 98.123 27.108L97.259 28.818C96.803 28.542 96.341 28.356 95.873 28.26C95.417 28.152 94.961 28.098 94.505 28.098C93.821 28.098 93.311 28.2 92.975 28.404C92.651 28.608 92.489 28.866 92.489 29.178C92.489 29.466 92.597 29.682 92.813 29.826C93.029 29.97 93.311 30.084 93.659 30.168C94.007 30.252 94.391 30.324 94.811 30.384C95.243 30.432 95.669 30.51 96.089 30.618C96.509 30.726 96.893 30.876 97.241 31.068C97.601 31.248 97.889 31.506 98.105 31.842C98.321 32.178 98.429 32.616 98.429 33.156C98.429 33.756 98.249 34.278 97.889 34.722C97.541 35.166 97.043 35.514 96.395 35.766C95.747 36.006 94.973 36.126 94.073 36.126ZM104.885 36.126C103.817 36.126 102.881 35.916 102.077 35.496C101.285 35.064 100.667 34.476 100.223 33.732C99.7906 32.988 99.5746 32.142 99.5746 31.194C99.5746 30.234 99.7846 29.388 100.205 28.656C100.637 27.912 101.225 27.33 101.969 26.91C102.725 26.49 103.583 26.28 104.543 26.28C105.479 26.28 106.313 26.484 107.045 26.892C107.777 27.3 108.353 27.876 108.773 28.62C109.193 29.364 109.403 30.24 109.403 31.248C109.403 31.344 109.397 31.452 109.385 31.572C109.385 31.692 109.379 31.806 109.367 31.914H101.357V30.42H108.179L107.297 30.888C107.309 30.336 107.195 29.85 106.955 29.43C106.715 29.01 106.385 28.68 105.965 28.44C105.557 28.2 105.083 28.08 104.543 28.08C103.991 28.08 103.505 28.2 103.085 28.44C102.677 28.68 102.353 29.016 102.113 29.448C101.885 29.868 101.771 30.366 101.771 30.942V31.302C101.771 31.878 101.903 32.388 102.167 32.832C102.431 33.276 102.803 33.618 103.283 33.858C103.763 34.098 104.315 34.218 104.939 34.218C105.479 34.218 105.965 34.134 106.397 33.966C106.829 33.798 107.213 33.534 107.549 33.174L108.755 34.56C108.323 35.064 107.777 35.454 107.117 35.73C106.469 35.994 105.725 36.126 104.885 36.126ZM117.666 36.18C116.682 36.18 115.776 36.024 114.948 35.712C114.132 35.388 113.418 34.938 112.806 34.362C112.194 33.774 111.72 33.084 111.384 32.292C111.048 31.5 110.88 30.636 110.88 29.7C110.88 28.764 111.048 27.9 111.384 27.108C111.72 26.316 112.194 25.632 112.806 25.056C113.43 24.468 114.156 24.018 114.984 23.706C115.812 23.382 116.718 23.22 117.702 23.22C118.77 23.22 119.73 23.394 120.582 23.742C121.446 24.09 122.172 24.6 122.76 25.272L121.284 26.712C120.792 26.22 120.258 25.86 119.682 25.632C119.118 25.392 118.494 25.272 117.81 25.272C117.15 25.272 116.538 25.38 115.974 25.596C115.41 25.812 114.924 26.118 114.516 26.514C114.108 26.91 113.79 27.378 113.562 27.918C113.346 28.458 113.238 29.052 113.238 29.7C113.238 30.336 113.346 30.924 113.562 31.464C113.79 32.004 114.108 32.478 114.516 32.886C114.924 33.282 115.404 33.588 115.956 33.804C116.508 34.02 117.12 34.128 117.792 34.128C118.416 34.128 119.016 34.032 119.592 33.84C120.18 33.636 120.738 33.3 121.266 32.832L122.598 34.578C121.938 35.106 121.17 35.508 120.294 35.784C119.43 36.048 118.554 36.18 117.666 36.18ZM120.384 34.272V29.556H122.598V34.578L120.384 34.272ZM125.468 36V22.644H127.718V36H125.468ZM134.991 36.126C134.007 36.126 133.131 35.916 132.363 35.496C131.595 35.064 130.989 34.476 130.545 33.732C130.101 32.988 129.879 32.142 129.879 31.194C129.879 30.234 130.101 29.388 130.545 28.656C130.989 27.912 131.595 27.33 132.363 26.91C133.131 26.49 134.007 26.28 134.991 26.28C135.987 26.28 136.869 26.49 137.637 26.91C138.417 27.33 139.023 27.906 139.455 28.638C139.899 29.37 140.121 30.222 140.121 31.194C140.121 32.142 139.899 32.988 139.455 33.732C139.023 34.476 138.417 35.064 137.637 35.496C136.869 35.916 135.987 36.126 134.991 36.126ZM134.991 34.2C135.543 34.2 136.035 34.08 136.467 33.84C136.899 33.6 137.235 33.252 137.475 32.796C137.727 32.34 137.853 31.806 137.853 31.194C137.853 30.57 137.727 30.036 137.475 29.592C137.235 29.136 136.899 28.788 136.467 28.548C136.035 28.308 135.549 28.188 135.009 28.188C134.457 28.188 133.965 28.308 133.533 28.548C133.113 28.788 132.777 29.136 132.525 29.592C132.273 30.036 132.147 30.57 132.147 31.194C132.147 31.806 132.273 32.34 132.525 32.796C132.777 33.252 133.113 33.6 133.533 33.84C133.965 34.08 134.451 34.2 134.991 34.2ZM147.601 36.126C146.785 36.126 146.059 35.946 145.423 35.586C144.787 35.226 144.283 34.686 143.911 33.966C143.551 33.234 143.371 32.31 143.371 31.194C143.371 30.066 143.557 29.142 143.929 28.422C144.313 27.702 144.823 27.168 145.459 26.82C146.107 26.46 146.821 26.28 147.601 26.28C148.549 26.28 149.383 26.484 150.103 26.892C150.835 27.3 151.411 27.87 151.831 28.602C152.263 29.334 152.479 30.198 152.479 31.194C152.479 32.19 152.263 33.054 151.831 33.786C151.411 34.518 150.835 35.094 150.103 35.514C149.383 35.922 148.549 36.126 147.601 36.126ZM142.273 36V22.644H144.523V28.62L144.343 31.176L144.415 33.732V36H142.273ZM147.349 34.2C147.889 34.2 148.369 34.08 148.789 33.84C149.221 33.6 149.563 33.252 149.815 32.796C150.067 32.34 150.193 31.806 150.193 31.194C150.193 30.57 150.067 30.036 149.815 29.592C149.563 29.136 149.221 28.788 148.789 28.548C148.369 28.308 147.889 28.188 147.349 28.188C146.809 28.188 146.323 28.308 145.891 28.548C145.459 28.788 145.117 29.136 144.865 29.592C144.613 30.036 144.487 30.57 144.487 31.194C144.487 31.806 144.613 32.34 144.865 32.796C145.117 33.252 145.459 33.6 145.891 33.84C146.323 34.08 146.809 34.2 147.349 34.2ZM160.412 36V34.056L160.286 33.642V30.24C160.286 29.58 160.088 29.07 159.692 28.71C159.296 28.338 158.696 28.152 157.892 28.152C157.352 28.152 156.818 28.236 156.29 28.404C155.774 28.572 155.336 28.806 154.976 29.106L154.094 27.468C154.61 27.072 155.222 26.778 155.93 26.586C156.65 26.382 157.394 26.28 158.162 26.28C159.554 26.28 160.628 26.616 161.384 27.288C162.152 27.948 162.536 28.974 162.536 30.366V36H160.412ZM157.388 36.126C156.668 36.126 156.038 36.006 155.498 35.766C154.958 35.514 154.538 35.172 154.238 34.74C153.95 34.296 153.806 33.798 153.806 33.246C153.806 32.706 153.932 32.22 154.184 31.788C154.448 31.356 154.874 31.014 155.462 30.762C156.05 30.51 156.83 30.384 157.802 30.384H160.592V31.878H157.964C157.196 31.878 156.68 32.004 156.416 32.256C156.152 32.496 156.02 32.796 156.02 33.156C156.02 33.564 156.182 33.888 156.506 34.128C156.83 34.368 157.28 34.488 157.856 34.488C158.408 34.488 158.9 34.362 159.332 34.11C159.776 33.858 160.094 33.486 160.286 32.994L160.664 34.344C160.448 34.908 160.058 35.346 159.494 35.658C158.942 35.97 158.24 36.126 157.388 36.126ZM165.423 36V22.644H167.673V36H165.423Z" fill="#3D5A08"/>
<defs>
<clipPath id="clip0_502_2921">
<rect width="60" height="60" fill="white"/>
</clipPath>
</defs>
</svg>
