<svg width="42" height="42" viewBox="0 0 42 42" fill="none" xmlns="http://www.w3.org/2000/svg">
<path d="M34.2169 5.24475C33.7955 5.2754 33.382 5.37425 32.9923 5.53743H32.9871C32.613 5.68575 30.8346 6.43387 28.1308 7.56787L18.4419 11.6484C11.4896 14.5753 4.65544 17.4576 4.65544 17.4576L4.73682 17.4261C4.73682 17.4261 4.26563 17.5809 3.77344 17.9182C3.46937 18.1117 3.20772 18.3649 3.00432 18.6624C2.76282 19.0168 2.56857 19.5589 2.64075 20.1193C2.75888 21.0669 3.37313 21.6352 3.81413 21.9489C4.26038 22.2666 4.68563 22.4149 4.68563 22.4149H4.69613L11.1051 24.5739C11.3925 25.4966 13.0581 30.9724 13.4584 32.2337C13.6946 32.9871 13.9243 33.4582 14.2118 33.8179C14.3509 34.0016 14.5136 34.1552 14.7092 34.2786C14.8109 34.3377 14.9193 34.3844 15.0321 34.4177L14.9664 34.4019C14.9861 34.4072 15.0019 34.4229 15.0163 34.4282C15.0688 34.4426 15.1043 34.4479 15.1712 34.4584C16.1858 34.7655 17.0008 34.1355 17.0008 34.1355L17.0468 34.0987L20.8307 30.6534L27.1727 35.5189L27.3171 35.5806C28.6388 36.1607 29.9775 35.8378 30.6849 35.2682C31.3976 34.6946 31.6746 33.9609 31.6746 33.9609L31.7205 33.8428L36.6214 8.736C36.7605 8.1165 36.7959 7.53637 36.6424 6.97331C36.484 6.40345 36.1184 5.91334 35.6173 5.59912C35.1966 5.34333 34.7087 5.21987 34.2169 5.24475ZM34.0843 7.93537C34.0791 8.01806 34.0948 8.00887 34.0581 8.16768V8.18212L29.2031 33.0277C29.1821 33.0632 29.1467 33.1406 29.0496 33.2181C28.9472 33.2994 28.8658 33.3506 28.4393 33.1813L20.6824 27.2344L15.9968 31.5052L16.9811 25.2184L29.6546 13.4059C30.177 12.9202 30.0024 12.8179 30.0024 12.8179C30.0392 12.222 29.2136 12.6433 29.2136 12.6433L13.2326 22.5435L13.2274 22.5172L5.56763 19.9382V19.9329L5.54794 19.929C5.56137 19.9245 5.57452 19.9193 5.58732 19.9132L5.62932 19.8922L5.67 19.8778C5.67 19.8778 12.5094 16.9956 19.4618 14.0687C22.9425 12.6026 26.4495 11.1261 29.1467 9.98681C30.7463 9.3135 32.3475 8.64412 33.9504 7.97868C34.0581 7.93668 34.0069 7.93537 34.0843 7.93537Z" fill="white"/>
</svg>
