<svg width="20" height="20" viewBox="0 0 20 20" fill="none" xmlns="http://www.w3.org/2000/svg">
<path d="M16.2938 2.49759C16.0931 2.51219 15.8962 2.55926 15.7106 2.63696H15.7081C15.53 2.70759 14.6831 3.06384 13.3956 3.60384L8.78189 5.54696C5.47126 6.94071 2.21689 8.31321 2.21689 8.31321L2.25564 8.29821C2.25564 8.29821 2.03126 8.37196 1.79689 8.53259C1.65209 8.62473 1.5275 8.74528 1.43064 8.88696C1.31564 9.05571 1.22314 9.31384 1.25751 9.58071C1.31376 10.032 1.60626 10.3026 1.81626 10.452C2.02876 10.6032 2.23126 10.6738 2.23126 10.6738H2.23626L5.28814 11.702C5.42501 12.1413 6.21814 14.7488 6.40876 15.3495C6.52126 15.7082 6.63064 15.9326 6.76751 16.1038C6.83376 16.1913 6.91126 16.2645 7.00439 16.3232C7.0528 16.3514 7.10442 16.3736 7.15814 16.3895L7.12689 16.382C7.13626 16.3845 7.14376 16.392 7.15064 16.3945C7.17564 16.4013 7.19251 16.4038 7.22439 16.4088C7.70751 16.5551 8.09564 16.2551 8.09564 16.2551L8.11751 16.2376L9.91939 14.597L12.9394 16.9138L13.0081 16.9432C13.6375 17.2195 14.275 17.0657 14.6119 16.7945C14.9513 16.5213 15.0831 16.172 15.0831 16.172L15.105 16.1157L17.4388 4.16009C17.505 3.86509 17.5219 3.58884 17.4488 3.32071C17.3733 3.04935 17.1993 2.81597 16.9606 2.66634C16.7603 2.54453 16.5279 2.48574 16.2938 2.49759ZM16.2306 3.77884C16.2281 3.81821 16.2356 3.81384 16.2181 3.88946V3.89634L13.9063 15.7276C13.8963 15.7445 13.8794 15.7813 13.8331 15.8182C13.7844 15.857 13.7456 15.8813 13.5425 15.8007L9.84876 12.9688L7.61751 15.0026L8.08626 12.0088L14.1213 6.38384C14.37 6.15259 14.2869 6.10384 14.2869 6.10384C14.3044 5.82009 13.9113 6.02071 13.9113 6.02071L6.30126 10.7351L6.29876 10.7226L2.65126 9.49446V9.49196L2.64189 9.49009C2.64828 9.48796 2.65454 9.48546 2.66064 9.48259L2.68064 9.47259L2.70001 9.46571C2.70001 9.46571 5.95689 8.09321 9.26751 6.69946C10.925 6.00134 12.595 5.29821 13.8794 4.75571C14.6411 4.43509 15.4036 4.11634 16.1669 3.79946C16.2181 3.77946 16.1938 3.77884 16.2306 3.77884Z" fill="#3D5A08"/>
</svg>
