<svg width="53" height="62" viewBox="0 0 53 62" fill="none" xmlns="http://www.w3.org/2000/svg">
<path d="M7.75192 49.6H8.95192V58H7.75192V49.6ZM2.92792 58H1.72792V49.6H2.92792V58ZM7.85992 54.256H2.80792V53.212H7.85992V54.256ZM10.4077 58L14.2117 49.6H15.3997L19.2157 58H17.9557L14.5597 50.272H15.0397L11.6437 58H10.4077ZM12.0277 55.9L12.3517 54.94H17.0797L17.4277 55.9H12.0277ZM20.6654 58V49.6H24.2774C25.1894 49.6 25.9054 49.784 26.4254 50.152C26.9454 50.52 27.2054 51.056 27.2054 51.76C27.2054 52.448 26.9574 52.976 26.4614 53.344C25.9654 53.704 25.3134 53.884 24.5054 53.884L24.7214 53.524C25.6574 53.524 26.3734 53.712 26.8694 54.088C27.3734 54.456 27.6254 54.996 27.6254 55.708C27.6254 56.428 27.3614 56.992 26.8334 57.4C26.3134 57.8 25.5374 58 24.5054 58H20.6654ZM21.8534 57.052H24.4814C25.1214 57.052 25.6014 56.936 25.9214 56.704C26.2494 56.464 26.4134 56.1 26.4134 55.612C26.4134 55.124 26.2494 54.768 25.9214 54.544C25.6014 54.32 25.1214 54.208 24.4814 54.208H21.8534V57.052ZM21.8534 53.296H24.1934C24.7774 53.296 25.2214 53.18 25.5254 52.948C25.8374 52.716 25.9934 52.376 25.9934 51.928C25.9934 51.472 25.8374 51.128 25.5254 50.896C25.2214 50.664 24.7774 50.548 24.1934 50.548H21.8534V53.296ZM30.7223 53.224H35.0423V54.244H30.7223V53.224ZM30.8303 56.956H35.7263V58H29.6303V49.6H35.5583V50.644H30.8303V56.956ZM37.6107 58V49.6H40.8867C41.6227 49.6 42.2507 49.716 42.7707 49.948C43.2907 50.18 43.6907 50.516 43.9707 50.956C44.2507 51.396 44.3907 51.92 44.3907 52.528C44.3907 53.136 44.2507 53.66 43.9707 54.1C43.6907 54.532 43.2907 54.868 42.7707 55.108C42.2507 55.34 41.6227 55.456 40.8867 55.456H38.2707L38.8107 54.892V58H37.6107ZM38.8107 55.012L38.2707 54.412H40.8507C41.6187 54.412 42.1987 54.248 42.5907 53.92C42.9907 53.592 43.1907 53.128 43.1907 52.528C43.1907 51.928 42.9907 51.464 42.5907 51.136C42.1987 50.808 41.6187 50.644 40.8507 50.644H38.2707L38.8107 50.044V55.012ZM44.9725 49.6H46.3525L48.5485 52.672L50.7445 49.6H52.1485L49.3045 53.632L52.3765 58H50.9605L48.5485 54.652L46.1485 58H44.7685L47.8285 53.68L44.9725 49.6Z" fill="white"/>
<path d="M27 1L27 32" stroke="white" stroke-linecap="round"/>
<path d="M27 1L10 15" stroke="white" stroke-linecap="round"/>
<path d="M27 1L44 15" stroke="white" stroke-linecap="round"/>
</svg>
