<svg width="43" height="26" viewBox="0 0 43 26" fill="none" xmlns="http://www.w3.org/2000/svg">
<path d="M28.4143 3.98385C26.6076 2.1707 29.4081 -0.641629 31.2159 1.17189C34.6748 4.64591 38.1319 8.11527 41.591 11.5882C42.3523 12.3524 42.3523 13.6355 41.591 14.3998C38.1281 17.8716 34.6665 21.3445 31.2038 24.8179C29.3985 26.6369 26.6003 23.8228 28.4066 22.0074C31.3997 19.0013 34.3944 15.9978 37.389 12.9921C34.398 9.9932 31.4077 6.98709 28.4146 3.98432L28.4143 3.98385ZM27.5951 9.27176C25.5443 9.27176 23.8842 10.9414 23.8842 12.9992C23.8842 15.0561 25.5447 16.7198 27.5951 16.7198C29.6448 16.7198 31.3024 15.0564 31.3024 12.9992C31.3024 10.9414 29.6452 9.27176 27.5951 9.27176ZM16.0889 9.27176C14.0392 9.27176 12.378 10.9414 12.378 12.9992C12.378 15.0561 14.0396 16.7198 16.0889 16.7198C18.1398 16.7198 19.7973 15.0564 19.7973 12.9992C19.797 10.9414 18.1398 9.27176 16.0889 9.27176ZM4.58552 9.27176C2.53469 9.27176 0.875 10.9414 0.875 12.9992C0.875 15.0561 2.53469 16.7198 4.58552 16.7198C6.63384 16.7198 8.29353 15.0564 8.29353 12.9992C8.29281 10.9414 6.63384 9.27176 4.58552 9.27176Z" fill="url(#paint0_linear_513_2919)"/>
<defs>
<linearGradient id="paint0_linear_513_2919" x1="43.6843" y1="14.6025" x2="1.41713" y2="16.0388" gradientUnits="userSpaceOnUse">
<stop stop-color="#DC5001"/>
<stop offset="1" stop-color="#DC5001" stop-opacity="0.3"/>
</linearGradient>
</defs>
</svg>
