<svg width="42" height="42" viewBox="0 0 42 42" fill="none" xmlns="http://www.w3.org/2000/svg">
<path d="M15.6452 12.0088C15.9655 12.0175 16.3208 12.035 16.6585 12.784C16.8825 13.2827 17.2588 14.2015 17.5668 14.9505C17.8065 15.5332 18.0025 16.0127 18.0515 16.1107C18.1635 16.3347 18.2335 16.592 18.0865 16.8947L18.0375 16.9963C17.9372 17.2314 17.8014 17.4497 17.635 17.6438C17.5504 17.7419 17.467 17.8411 17.3848 17.9413C17.236 18.1233 17.0872 18.3018 16.9612 18.4278C16.7355 18.6518 16.5028 18.8932 16.7618 19.3412C17.0225 19.7892 17.9307 21.2627 19.273 22.451C20.2554 23.3355 21.3817 24.0457 22.6033 24.551C22.7258 24.6035 22.8255 24.6472 22.9007 24.684C23.3505 24.908 23.6182 24.873 23.8773 24.572C24.138 24.2692 25.0025 23.2612 25.307 22.8132C25.601 22.3652 25.902 22.4352 26.3185 22.5892C26.735 22.745 28.9505 23.8317 29.4003 24.054L29.6505 24.1765C29.9638 24.3252 30.1755 24.4285 30.2665 24.579C30.3785 24.7697 30.3785 25.664 30.0075 26.7175C29.626 27.7675 27.7903 28.7755 26.959 28.8525L26.7227 28.8805C25.9598 28.9715 24.9938 29.0905 21.5498 27.7342C17.3043 26.0647 14.5025 21.9242 13.9372 21.086C13.9071 21.0412 13.8762 20.9968 13.8445 20.953L13.834 20.939C13.5767 20.5942 12 18.4855 12 16.3085C12 14.226 13.0273 13.141 13.4945 12.6475L13.5768 12.56C13.728 12.3892 13.9128 12.2513 14.1196 12.1549C14.3264 12.0586 14.5509 12.0058 14.779 12C15.0817 12 15.3862 12 15.6452 12.0088Z" fill="white"/>
<path fill-rule="evenodd" clip-rule="evenodd" d="M4.175 36.8293C4.14202 36.948 4.14093 37.0732 4.17182 37.1924C4.20271 37.3116 4.26449 37.4205 4.35094 37.5082C4.43738 37.5959 4.54543 37.6593 4.66417 37.6918C4.78292 37.7244 4.90815 37.7251 5.02725 37.6938L13.0895 35.5868C15.6474 36.9723 18.5104 37.6983 21.4195 37.6991H21.4265C31.027 37.6991 38.853 29.9168 38.853 20.3531C38.8591 18.072 38.4114 15.8125 37.5359 13.7061C36.6604 11.5998 35.3747 9.68857 33.7535 8.08384C32.1354 6.46558 30.2133 5.18331 28.0977 4.31083C25.9822 3.43835 23.7149 2.99289 21.4265 3.00009C11.826 3.00009 4 10.7806 4 20.3443C4 23.3876 4.8015 26.3766 6.3275 29.0138L4.175 36.8293ZM8.85975 29.7103C8.95228 29.3745 8.97703 29.0236 8.93257 28.6781C8.8881 28.3325 8.7753 27.9993 8.60075 27.6978C7.30598 25.4635 6.62441 22.9267 6.625 20.3443C6.625 12.2418 13.2628 5.62509 21.4265 5.62509C25.399 5.62509 29.1055 7.15984 31.902 9.94409C33.2781 11.305 34.3693 12.9263 35.1121 14.7134C35.8548 16.5006 36.2342 18.4178 36.228 20.3531C36.228 28.4556 29.5903 35.0741 21.4265 35.0741H21.4177C18.9462 35.0728 16.514 34.4557 14.3407 33.2786C13.755 32.9615 13.0706 32.8789 12.4263 33.0476L7.59275 34.3093L8.85975 29.7103Z" fill="white"/>
</svg>
