<svg width="20" height="20" viewBox="0 0 20 20" fill="none" xmlns="http://www.w3.org/2000/svg">
<path d="M7.4501 5.71803C7.6026 5.7222 7.77176 5.73053 7.9326 6.0872C8.03926 6.3247 8.21843 6.7622 8.3651 7.11887C8.47926 7.39637 8.5726 7.6247 8.59593 7.67137C8.64926 7.77803 8.6826 7.90053 8.6126 8.0447L8.58926 8.09303C8.5415 8.205 8.47686 8.30898 8.3976 8.40137C8.35732 8.44812 8.31759 8.49534 8.27843 8.54303C8.2076 8.6297 8.13676 8.7147 8.07676 8.7747C7.96926 8.88137 7.85843 8.99637 7.98176 9.2097C8.10593 9.42303 8.53843 10.1247 9.1776 10.6905C9.64542 11.1117 10.1817 11.4499 10.7634 11.6905C10.8218 11.7155 10.8693 11.7364 10.9051 11.7539C11.1193 11.8605 11.2468 11.8439 11.3701 11.7005C11.4943 11.5564 11.9059 11.0764 12.0509 10.863C12.1909 10.6497 12.3343 10.683 12.5326 10.7564C12.7309 10.8305 13.7859 11.348 14.0001 11.4539L14.1193 11.5122C14.2684 11.583 14.3693 11.6322 14.4126 11.7039C14.4659 11.7947 14.4659 12.2205 14.2893 12.7222C14.1076 13.2222 13.2334 13.7022 12.8376 13.7389L12.7251 13.7522C12.3618 13.7955 11.9018 13.8522 10.2618 13.2064C8.2401 12.4114 6.90593 10.4397 6.63676 10.0405C6.6224 10.0192 6.60767 9.99806 6.5926 9.9772L6.5876 9.97053C6.4651 9.80637 5.71426 8.8022 5.71426 7.76553C5.71426 6.77387 6.20343 6.2572 6.42593 6.0222L6.4651 5.98053C6.53712 5.89918 6.62511 5.83352 6.7236 5.78764C6.8221 5.74176 6.92898 5.71665 7.0376 5.71387C7.18176 5.71387 7.32676 5.71387 7.4501 5.71803Z" fill="#3D5A08"/>
<path fill-rule="evenodd" clip-rule="evenodd" d="M1.98812 17.5379C1.97242 17.5944 1.97189 17.6541 1.9866 17.7108C2.00131 17.7676 2.03073 17.8194 2.0719 17.8612C2.11306 17.903 2.16451 17.9331 2.22106 17.9486C2.2776 17.9642 2.33724 17.9645 2.39395 17.9496L6.23312 16.9463C7.45119 17.606 8.81451 17.9517 10.1998 17.9521H10.2031C14.7748 17.9521 18.5015 14.2463 18.5015 9.69209C18.5044 8.60586 18.2912 7.52991 17.8743 6.52687C17.4574 5.52383 16.8451 4.61374 16.0731 3.84959C15.3026 3.07899 14.3873 2.46838 13.3799 2.05291C12.3725 1.63745 11.2928 1.42532 10.2031 1.42875C5.63145 1.42875 1.90479 5.13375 1.90479 9.68792C1.90479 11.1371 2.28645 12.5604 3.01312 13.8163L1.98812 17.5379ZM4.21895 14.1479C4.26301 13.988 4.2748 13.8209 4.25363 13.6564C4.23245 13.4918 4.17874 13.3331 4.09562 13.1896C3.47906 12.1256 3.1545 10.9176 3.15479 9.68792C3.15479 5.82959 6.31562 2.67875 10.2031 2.67875C12.0948 2.67875 13.8598 3.40959 15.1915 4.73542C15.8467 5.38345 16.3664 6.15551 16.7201 7.00653C17.0737 7.85755 17.2544 8.7705 17.2515 9.69209C17.2515 13.5504 14.0906 16.7021 10.2031 16.7021H10.199C9.02203 16.7015 7.86381 16.4076 6.82895 15.8471C6.55002 15.6961 6.22412 15.6568 5.91729 15.7371L3.61562 16.3379L4.21895 14.1479Z" fill="#3D5A08"/>
</svg>
